<?xml version="1.0" encoding="utf-8"?>
<!-- Generator: Adobe Illustrator 16.0.0, SVG Export Plug-In . SVG Version: 6.00 Build 0)  -->
<!DOCTYPE svg PUBLIC "-//W3C//DTD SVG 1.1//EN" "http://www.w3.org/Graphics/SVG/1.1/DTD/svg11.dtd">
<svg version="1.1" id="Layer_1" xmlns="http://www.w3.org/2000/svg" xmlns:xlink="http://www.w3.org/1999/xlink" x="0px" y="0px"
	 width="45px" height="45px" viewBox="0 0 45 45" enable-background="new 0 0 45 45" xml:space="preserve">
<g>
	<path fill-rule="evenodd" clip-rule="evenodd" fill="#2EB563" d="M30.958,29.18c-0.644-0.163-1.253-0.092-1.85,0.123
		c-0.717,0.258-1.295,0.705-1.698,1.352c-1.343,2.158-2.137,4.475-1.986,7.055c0.081,1.403,0.484,2.717,1.082,3.983
		c0.104,0.221,0.127,0.547,0.042,0.768c-0.065,0.167-0.369,0.349-0.553,0.336c-0.22-0.016-0.519-0.181-0.621-0.369
		c-0.627-1.147-1.034-2.376-1.225-3.673c-0.053-0.356-0.085-0.716-0.125-1.069c-0.96,0-1.902,0-2.882,0
		c-0.065,0.455-0.125,0.945-0.208,1.431c-0.191,1.128-0.579,2.191-1.088,3.212c-0.226,0.452-0.593,0.608-0.97,0.427
		c-0.378-0.184-0.489-0.575-0.263-1.024c0.842-1.678,1.24-3.447,1.109-5.323c-0.154-2.196-0.904-4.194-2.163-5.98
		c-0.724-1.026-1.809-1.408-3.056-1.315c-0.062,0.005-0.124,0.02-0.183,0.036c-0.035,0.009-0.067,0.031-0.125,0.061
		c0.504,1.14,1.006,2.278,1.51,3.416c0.151,0.343,0.312,0.681,0.454,1.027c0.171,0.414,0.037,0.785-0.327,0.947
		c-0.364,0.162-0.735,0.02-0.919-0.391c-0.765-1.708-1.533-3.414-2.264-5.136c-0.106-0.251-0.06-0.589-0.016-0.876
		c0.403-2.652,0.822-5.302,1.233-7.953c0.069-0.443,0.027-0.851-0.395-1.126c-0.598-0.389-1.31-0.045-1.455,0.716
		c-0.208,1.09-0.406,2.183-0.607,3.275c-0.286,1.558-0.558,3.118-0.861,4.673c-0.176,0.903-0.081,1.757,0.291,2.595
		c0.985,2.225,1.939,4.463,2.948,6.675c0.599,1.313,0.319,2.532-0.239,3.747c-0.146,0.316-0.518,0.429-0.833,0.306
		c-0.32-0.124-0.496-0.427-0.414-0.786c0.061-0.266,0.163-0.524,0.267-0.777c0.278-0.676,0.233-1.325-0.065-1.991
		c-0.913-2.038-1.768-4.103-2.713-6.124c-0.662-1.416-0.835-2.829-0.514-4.364c0.504-2.404,0.901-4.831,1.361-7.245
		c0.378-1.986,1.779-2.701,3.64-1.855c0.1-0.092,0.208-0.19,0.235-0.216c-0.446-1.03-0.866-2.01-1.299-2.986
		c-0.038-0.086-0.141-0.166-0.231-0.204c-1.396-0.59-2.096-1.658-2.037-3.124c0.052-1.273,0.942-2.334,2.308-2.784
		c0.135-0.044,0.27-0.2,0.332-0.337c1.395-3.088,3.721-5.052,7.039-5.779c4.433-0.971,9.079,1.452,10.87,5.646
		c0.121,0.284,0.269,0.442,0.584,0.533c1.268,0.363,2.152,1.534,2.191,2.826c0.039,1.341-0.753,2.519-2.008,3.005
		c-0.126,0.049-0.28,0.135-0.33,0.245c-0.435,0.961-0.847,1.933-1.267,2.901c-0.036-0.007-0.072-0.015-0.108-0.022
		c0.105,0.101,0.212,0.201,0.317,0.302c0.001-0.039,0.001-0.078,0.001-0.116c0.507-0.082,1.018-0.25,1.521-0.228
		c1.039,0.046,1.84,0.762,2.039,1.782c0.439,2.253,0.847,4.512,1.266,6.768c0.106,0.577,0.212,1.153,0.308,1.731
		c0.173,1.042-0.006,2.036-0.428,2.995c-0.976,2.215-1.939,4.435-2.927,6.644c-0.298,0.666-0.354,1.315-0.072,1.991
		c0.091,0.219,0.176,0.44,0.245,0.667c0.13,0.42-0.043,0.783-0.42,0.912c-0.361,0.124-0.686-0.049-0.868-0.442
		c-0.626-1.343-0.673-2.646-0.002-4.027c0.904-1.861,1.641-3.803,2.531-5.671c0.601-1.258,0.714-2.497,0.433-3.85
		c-0.496-2.394-0.906-4.804-1.353-7.208c-0.016-0.086-0.034-0.172-0.059-0.255c-0.146-0.489-0.565-0.758-1.059-0.683
		c-0.456,0.07-0.813,0.473-0.761,0.96c0.084,0.793,0.219,1.582,0.339,2.371c0.32,2.097,0.647,4.192,0.959,6.291
		c0.025,0.172-0.016,0.375-0.087,0.538c-0.727,1.67-1.464,3.335-2.202,4.999c-0.204,0.461-0.571,0.634-0.953,0.467
		c-0.386-0.168-0.508-0.553-0.306-1.014c0.592-1.347,1.19-2.691,1.786-4.038C30.854,29.437,30.899,29.32,30.958,29.18z
		 M25.894,4.386c0.296,1.434,0.121,2.294-0.605,3.113c-0.723,0.814-1.901,1.07-2.91,0.631c-0.973-0.423-1.502-1.292-1.379-2.336
		c0.094-0.793,0.51-1.391,1.275-1.658c0.692-0.242,1.36-0.142,1.923,0.369c0.302,0.274,0.332,0.646,0.104,0.94
		c-0.226,0.292-0.61,0.349-0.938,0.141c-0.41-0.26-0.642-0.259-0.852,0.003c-0.241,0.301-0.228,0.745,0.051,1.028
		c0.313,0.317,0.694,0.437,1.131,0.313c0.947-0.268,1.315-1.582,0.667-2.411c-0.494-0.633-1.175-0.85-1.955-0.829
		c-4.19,0.112-7.116,3.158-7.836,6.041c-0.389,1.555-0.431,3.095-0.021,4.625c1.058,3.94,5.035,6.539,9.097,5.986
		c6.084-0.828,9.263-7.598,5.985-12.756C28.725,6.157,27.49,5.101,25.894,4.386z M31.049,27.671
		c-0.229-1.475-0.464-2.992-0.709-4.574c-1.908,1.654-4.021,2.803-6.328,3.607c-2.302,0.803-4.682,1.222-7.114,1.429
		c0.891,0.462,1.588,1.098,2.1,1.94c0.716,1.179,1.309,2.415,1.663,3.749c0.207,0.78,0.333,1.581,0.498,2.385
		c0.65,0.18,1.968,0.218,2.648,0.045c0.105-0.027,0.248-0.168,0.259-0.268c0.231-2.205,1.015-4.211,2.193-6.069
		c0.654-1.033,1.587-1.735,2.781-2.009C29.675,27.76,30.341,27.749,31.049,27.671z M15.403,18.665
		c-0.09,0.242-0.203,0.416-0.213,0.596c-0.027,0.467,0.046,0.945-0.024,1.403c-0.076,0.487-0.029,0.849,0.34,1.234
		c1.479,1.544,3.097,2.867,5.188,3.487c0.694,0.206,1.431,0.432,2.135,0.223c2.642-0.782,5.031-2.039,7.05-3.95
		c0.168-0.159,0.192-0.307,0.17-0.526c-0.059-0.579-0.135-1.166-0.093-1.741c0.023-0.317-0.034-0.491-0.28-0.639
		C25.781,22.84,19.312,22.752,15.403,18.665z M19.305,26.393c-1.714-0.767-3.16-1.889-4.503-3.251
		c-0.192,1.243-0.373,2.415-0.558,3.618C15.974,26.81,17.642,26.685,19.305,26.393z M32.346,12.854
		c0.8-0.549,0.698-2.065-0.131-2.525C32.259,11.169,32.303,12.019,32.346,12.854z M12.814,12.815
		c0.041-0.821,0.082-1.632,0.123-2.446C12.245,10.763,11.997,12.167,12.814,12.815z"/>
	<path fill-rule="evenodd" clip-rule="evenodd" fill="#2EB563" d="M22.585,18.767c-1.732,0.004-3.287-1.019-3.916-2.575
		c-0.152-0.378-0.082-0.702,0.204-0.901c0.282-0.197,0.568-0.181,0.827,0.034c0.101,0.083,0.175,0.211,0.232,0.333
		c0.521,1.109,1.386,1.727,2.613,1.738c1.261,0.011,2.147-0.613,2.677-1.753c0.199-0.427,0.569-0.587,0.94-0.417
		c0.372,0.17,0.492,0.549,0.311,0.984C25.829,17.76,24.303,18.764,22.585,18.767z"/>
	<path fill-rule="evenodd" clip-rule="evenodd" fill="#2EB563" d="M18.965,9.948c0.954,0.004,1.765,0.764,1.809,1.695
		c0.021,0.439-0.222,0.763-0.604,0.805c-0.388,0.043-0.682-0.206-0.753-0.652c-0.045-0.28-0.171-0.478-0.476-0.471
		c-0.284,0.006-0.396,0.191-0.441,0.46c-0.08,0.481-0.423,0.739-0.828,0.656c-0.386-0.08-0.598-0.441-0.527-0.895
		C17.296,10.59,18.033,9.943,18.965,9.948z"/>
	<path fill-rule="evenodd" clip-rule="evenodd" fill="#2EB563" d="M26.229,9.946c1.022-0.005,1.863,0.83,1.831,1.819
		c-0.013,0.371-0.263,0.652-0.61,0.684c-0.364,0.033-0.694-0.208-0.739-0.588c-0.035-0.295-0.125-0.525-0.451-0.534
		c-0.352-0.009-0.438,0.234-0.48,0.542c-0.053,0.385-0.38,0.616-0.747,0.579c-0.36-0.037-0.604-0.33-0.604-0.727
		C24.429,10.752,25.24,9.952,26.229,9.946z"/>
</g>
</svg>
