<svg xmlns="http://www.w3.org/2000/svg" xmlns:xlink="http://www.w3.org/1999/xlink" width="75" zoomAndPan="magnify" viewBox="0 0 56.25 56.249997" height="75" preserveAspectRatio="xMidYMid meet" version="1.0"><defs><g/></defs><g fill="#38b6ff" fill-opacity="1"><g transform="translate(3.436328, 29.660272)"><g><path d="M 4.632812 -2.105469 C 4.632812 -3.300781 3.875 -4.253906 2.570312 -4.253906 C 1.261719 -4.253906 0.503906 -3.300781 0.503906 -2.105469 L 0.503906 0 L 1.515625 0 L 1.515625 -2.105469 C 1.515625 -2.8125 1.851562 -3.308594 2.570312 -3.308594 C 3.285156 -3.308594 3.621094 -2.8125 3.621094 -2.105469 L 3.621094 0 L 4.632812 0 Z M 4.632812 -2.105469 "/></g></g></g><g fill="#38b6ff" fill-opacity="1"><g transform="translate(8.04231, 29.660272)"><g><path d="M 3.546875 -2.105469 C 3.546875 -1.28125 3.117188 -0.902344 2.425781 -0.902344 C 1.589844 -0.902344 1.273438 -1.441406 1.273438 -2.105469 C 1.273438 -2.769531 1.601562 -3.308594 2.425781 -3.308594 C 3.183594 -3.308594 3.511719 -2.847656 3.546875 -2.105469 Z M 4.894531 0 C 4.523438 -0.824219 4.574219 -1.675781 4.554688 -2.105469 C 4.503906 -3.417969 3.707031 -4.253906 2.425781 -4.253906 C 1.050781 -4.253906 0.261719 -3.292969 0.261719 -2.113281 C 0.261719 -0.910156 1.113281 0.0429688 2.308594 0.0429688 C 2.9375 0.0429688 3.386719 -0.226562 3.671875 -0.648438 C 3.722656 -0.4375 3.789062 -0.21875 3.882812 0 Z M 4.894531 0 "/></g></g></g><g fill="#38b6ff" fill-opacity="1"><g transform="translate(12.63987, 29.660272)"><g><path d="M 4.632812 -2.105469 C 4.632812 -3.300781 3.875 -4.253906 2.570312 -4.253906 C 1.261719 -4.253906 0.503906 -3.300781 0.503906 -2.105469 L 0.503906 0 L 1.515625 0 L 1.515625 -2.105469 C 1.515625 -2.8125 1.851562 -3.308594 2.570312 -3.308594 C 3.285156 -3.308594 3.621094 -2.8125 3.621094 -2.105469 L 3.621094 0 L 4.632812 0 Z M 4.632812 -2.105469 "/></g></g></g><g fill="#38b6ff" fill-opacity="1"><g transform="translate(17.245852, 29.660272)"><g><path d="M 4.632812 -2.105469 C 4.632812 -3.300781 3.875 -4.253906 2.570312 -4.253906 C 1.261719 -4.253906 0.503906 -3.300781 0.503906 -2.105469 L 0.503906 0 L 1.515625 0 L 1.515625 -2.105469 C 1.515625 -2.8125 1.851562 -3.308594 2.570312 -3.308594 C 3.285156 -3.308594 3.621094 -2.8125 3.621094 -2.105469 L 3.621094 0 L 4.632812 0 Z M 4.632812 -2.105469 "/></g></g></g><g fill="#38b6ff" fill-opacity="1"><g transform="translate(21.851833, 29.660272)"><g><path d="M 3.554688 -2.105469 C 3.554688 -1.398438 3.175781 -0.902344 2.460938 -0.902344 C 1.742188 -0.902344 1.449219 -1.390625 1.449219 -2.105469 L 1.449219 -4.210938 L 0.4375 -4.210938 L 0.4375 -2.105469 C 0.4375 -0.910156 1.195312 0.0429688 2.351562 0.0429688 C 2.871094 0.0429688 3.277344 -0.152344 3.554688 -0.480469 L 3.554688 -0.226562 C 3.554688 0.4375 3.257812 0.960938 2.339844 0.960938 C 1.886719 0.960938 1.382812 0.867188 1.09375 0.714844 L 1.09375 1.75 C 1.457031 1.871094 1.9375 1.9375 2.390625 1.9375 C 3.78125 1.9375 4.566406 0.976562 4.566406 -0.21875 L 4.566406 -4.210938 L 3.554688 -4.210938 Z M 3.554688 -2.105469 "/></g></g></g><g fill="#38b6ff" fill-opacity="1"><g transform="translate(26.457816, 29.660272)"><g><path d="M 7.074219 -2.273438 C 7.074219 -3.367188 6.382812 -4.253906 5.179688 -4.253906 C 4.53125 -4.253906 4.058594 -3.917969 3.789062 -3.402344 C 3.519531 -3.917969 3.046875 -4.253906 2.398438 -4.253906 C 1.195312 -4.253906 0.503906 -3.367188 0.503906 -2.273438 L 0.503906 0 L 1.515625 0 L 1.515625 -2.273438 C 1.515625 -2.878906 1.800781 -3.308594 2.398438 -3.308594 C 3 -3.308594 3.285156 -2.878906 3.285156 -2.273438 L 3.285156 0 L 4.296875 0 L 4.296875 -2.273438 C 4.296875 -2.878906 4.582031 -3.308594 5.179688 -3.308594 C 5.777344 -3.308594 6.0625 -2.878906 6.0625 -2.273438 L 6.0625 0 L 7.074219 0 Z M 7.074219 -2.273438 "/></g></g></g><g fill="#38b6ff" fill-opacity="1"><g transform="translate(33.505772, 29.660272)"><g><path d="M 3.546875 -2.105469 C 3.546875 -1.28125 3.117188 -0.902344 2.425781 -0.902344 C 1.589844 -0.902344 1.273438 -1.441406 1.273438 -2.105469 C 1.273438 -2.769531 1.601562 -3.308594 2.425781 -3.308594 C 3.183594 -3.308594 3.511719 -2.847656 3.546875 -2.105469 Z M 4.894531 0 C 4.523438 -0.824219 4.574219 -1.675781 4.554688 -2.105469 C 4.503906 -3.417969 3.707031 -4.253906 2.425781 -4.253906 C 1.050781 -4.253906 0.261719 -3.292969 0.261719 -2.113281 C 0.261719 -0.910156 1.113281 0.0429688 2.308594 0.0429688 C 2.9375 0.0429688 3.386719 -0.226562 3.671875 -0.648438 C 3.722656 -0.4375 3.789062 -0.21875 3.882812 0 Z M 4.894531 0 "/></g></g></g><g fill="#7ed957" fill-opacity="1"><g transform="translate(38.103459, 29.660272)"><g><path d="M 1.878906 -0.597656 C 1.878906 -0.960938 1.640625 -1.246094 1.238281 -1.246094 C 0.832031 -1.246094 0.589844 -0.953125 0.589844 -0.597656 C 0.589844 -0.246094 0.832031 0.0429688 1.238281 0.0429688 C 1.640625 0.0429688 1.878906 -0.253906 1.878906 -0.597656 Z M 1.878906 -0.597656 "/></g></g></g><g fill="#7ed957" fill-opacity="1"><g transform="translate(40.107472, 29.660272)"><g><path d="M 2.410156 -0.902344 C 1.609375 -0.902344 1.273438 -1.441406 1.273438 -2.105469 C 1.273438 -2.769531 1.609375 -3.308594 2.410156 -3.308594 C 3.207031 -3.308594 3.546875 -2.769531 3.546875 -2.105469 C 3.546875 -1.441406 3.207031 -0.902344 2.410156 -0.902344 Z M 2.410156 0.0429688 C 3.765625 0.0429688 4.554688 -0.917969 4.554688 -2.105469 C 4.554688 -3.292969 3.765625 -4.253906 2.410156 -4.253906 C 1.050781 -4.253906 0.261719 -3.292969 0.261719 -2.105469 C 0.261719 -0.917969 1.050781 0.0429688 2.410156 0.0429688 Z M 2.410156 0.0429688 "/></g></g></g><g fill="#7ed957" fill-opacity="1"><g transform="translate(44.460835, 29.660272)"><g><path d="M 1.515625 -2.105469 C 1.515625 -2.761719 1.8125 -3.277344 2.730469 -3.277344 C 2.839844 -3.277344 2.9375 -3.25 3.046875 -3.234375 L 3.046875 -4.210938 C 2.921875 -4.226562 2.804688 -4.253906 2.679688 -4.253906 C 1.289062 -4.253906 0.503906 -3.292969 0.503906 -2.097656 L 0.503906 0 L 1.515625 0 Z M 1.515625 -2.105469 "/></g></g></g><g fill="#7ed957" fill-opacity="1"><g transform="translate(47.214284, 29.660272)"><g><path d="M 3.292969 -2.527344 C 3.292969 -2.097656 3.007812 -1.742188 2.324219 -1.742188 C 1.640625 -1.742188 1.355469 -2.105469 1.355469 -2.527344 C 1.355469 -2.957031 1.640625 -3.308594 2.324219 -3.308594 C 3.007812 -3.308594 3.292969 -2.957031 3.292969 -2.527344 Z M 2.871094 0.84375 C 2.871094 1.113281 2.710938 1.320312 2.324219 1.320312 C 1.9375 1.320312 1.777344 1.113281 1.777344 0.84375 C 1.777344 0.574219 1.9375 0.363281 2.324219 0.363281 C 2.710938 0.363281 2.871094 0.574219 2.871094 0.84375 Z M 3.796875 0.84375 C 3.796875 0.3125 3.453125 -0.152344 2.828125 -0.320312 L 2.828125 -0.84375 C 3.773438 -1.027344 4.304688 -1.71875 4.304688 -2.527344 C 4.304688 -2.804688 4.246094 -3.066406 4.125 -3.300781 C 4.285156 -3.359375 4.453125 -3.367188 4.632812 -3.367188 L 4.785156 -3.367188 L 4.785156 -4.210938 L 4.632812 -4.210938 C 4.195312 -4.210938 3.855469 -4.203125 3.460938 -3.984375 C 3.15625 -4.152344 2.769531 -4.253906 2.324219 -4.253906 C 1.070312 -4.253906 0.34375 -3.476562 0.34375 -2.527344 C 0.34375 -1.710938 0.875 -1.027344 1.820312 -0.84375 L 1.820312 -0.320312 C 1.195312 -0.152344 0.851562 0.3125 0.851562 0.84375 C 0.851562 1.507812 1.390625 2.0625 2.324219 2.0625 C 3.257812 2.0625 3.796875 1.523438 3.796875 0.84375 Z M 3.796875 0.84375 "/></g></g></g></svg>