<?xml version="1.0" encoding="utf-8"?>
<!-- Generator: Adobe Illustrator 16.0.0, SVG Export Plug-In . SVG Version: 6.00 Build 0)  -->
<!DOCTYPE svg PUBLIC "-//W3C//DTD SVG 1.1//EN" "http://www.w3.org/Graphics/SVG/1.1/DTD/svg11.dtd">
<svg version="1.1" id="Layer_1" xmlns="http://www.w3.org/2000/svg" xmlns:xlink="http://www.w3.org/1999/xlink" x="0px" y="0px"
	 width="75px" height="18.667px" viewBox="0 27.5 75 18.667" enable-background="new 0 27.5 75 18.667" xml:space="preserve">
<g>
	<g>
		<g transform="translate(3.436328, 29.660272)">
			<g>
				<path fill="#38B6FF" d="M7.529,7.079c0-1.594-1.01-2.865-2.75-2.865c-1.744,0-2.755,1.271-2.755,2.865v2.807h1.349V7.079
					c0-0.943,0.448-1.604,1.406-1.604c0.953,0,1.401,0.661,1.401,1.604v2.807h1.349V7.079z"/>
			</g>
		</g>
	</g>
	<g>
		<g transform="translate(8.04231, 29.660272)">
			<g>
				<path fill="#38B6FF" d="M7.617,7.079c0,1.099-0.572,1.604-1.494,1.604c-1.115,0-1.537-0.719-1.537-1.604
					s0.438-1.604,1.537-1.604C7.132,5.475,7.57,6.09,7.617,7.079z M9.414,9.887C8.92,8.788,8.987,7.652,8.961,7.079
					c-0.067-1.75-1.13-2.865-2.838-2.865c-1.834,0-2.886,1.281-2.886,2.854c0,1.604,1.136,2.875,2.729,2.875
					c0.838,0,1.438-0.359,1.817-0.922C7.851,9.304,7.94,9.596,8.065,9.887H9.414z"/>
			</g>
		</g>
	</g>
	<g>
		<g transform="translate(12.63987, 29.660272)">
			<g>
				<path fill="#38B6FF" d="M10.597,7.079c0-1.594-1.01-2.865-2.75-2.865c-1.744,0-2.755,1.271-2.755,2.865v2.807h1.349V7.079
					c0-0.943,0.448-1.604,1.406-1.604c0.953,0,1.401,0.661,1.401,1.604v2.807h1.349V7.079z"/>
			</g>
		</g>
	</g>
	<g>
		<g transform="translate(17.245852, 29.660272)">
			<g>
				<path fill="#38B6FF" d="M12.133,7.079c0-1.594-1.011-2.865-2.75-2.865c-1.745,0-2.755,1.271-2.755,2.865v2.807h1.349V7.079
					c0-0.943,0.448-1.604,1.406-1.604c0.953,0,1.401,0.661,1.401,1.604v2.807h1.349V7.079z"/>
			</g>
		</g>
	</g>
	<g>
		<g transform="translate(21.851833, 29.660272)">
			<g>
				<path fill="#38B6FF" d="M12.231,7.079c0,0.943-0.506,1.604-1.459,1.604c-0.958,0-1.349-0.651-1.349-1.604V4.272H8.075v2.807
					c0,1.594,1.01,2.865,2.552,2.865c0.692,0,1.234-0.261,1.604-0.698v0.339c0,0.886-0.396,1.583-1.62,1.583
					c-0.604,0-1.276-0.125-1.661-0.328v1.381c0.484,0.161,1.125,0.25,1.729,0.25c1.854,0,2.901-1.281,2.901-2.875V4.272h-1.349
					V7.079z"/>
			</g>
		</g>
	</g>
	<g>
		<g transform="translate(26.457816, 29.660272)">
			<g>
				<path fill="#38B6FF" d="M18.458,6.855c0-1.458-0.922-2.641-2.525-2.641c-0.865,0-1.495,0.448-1.854,1.136
					c-0.359-0.688-0.989-1.136-1.854-1.136c-1.604,0-2.525,1.183-2.525,2.641v3.031h1.349V6.855c0-0.807,0.381-1.38,1.177-1.38
					c0.803,0,1.183,0.573,1.183,1.38v3.031h1.349V6.855c0-0.807,0.381-1.38,1.178-1.38s1.177,0.573,1.177,1.38v3.031h1.349V6.855z"
					/>
			</g>
		</g>
	</g>
	<g>
		<g transform="translate(33.505772, 29.660272)">
			<g>
				<path fill="#38B6FF" d="M16.105,7.079c0,1.099-0.573,1.604-1.495,1.604c-1.114,0-1.536-0.719-1.536-1.604
					s0.438-1.604,1.536-1.604C15.62,5.475,16.058,6.09,16.105,7.079z M17.901,9.887c-0.495-1.099-0.427-2.234-0.453-2.807
					c-0.067-1.75-1.13-2.865-2.839-2.865c-1.833,0-2.885,1.281-2.885,2.854c0,1.604,1.135,2.875,2.729,2.875
					c0.839,0,1.438-0.359,1.818-0.922c0.067,0.281,0.156,0.573,0.281,0.864H17.901z"/>
			</g>
		</g>
	</g>
	<g>
		<g transform="translate(38.103459, 29.660272)">
			<g>
				<path fill="#7ED957" d="M15.413,9.09c0-0.484-0.317-0.864-0.854-0.864c-0.541,0-0.864,0.391-0.864,0.864
					c0,0.469,0.323,0.854,0.864,0.854C15.096,9.944,15.413,9.549,15.413,9.09z"/>
			</g>
		</g>
	</g>
	<g>
		<g transform="translate(40.107472, 29.660272)">
			<g>
				<path fill="#7ED957" d="M16.789,8.683c-1.066,0-1.516-0.719-1.516-1.604s0.449-1.604,1.516-1.604
					c1.063,0,1.516,0.719,1.516,1.604S17.852,8.683,16.789,8.683z M16.789,9.944c1.809,0,2.859-1.281,2.859-2.865
					s-1.051-2.865-2.859-2.865c-1.813,0-2.863,1.281-2.863,2.865S14.977,9.944,16.789,9.944z"/>
			</g>
		</g>
	</g>
	<g>
		<g transform="translate(44.460835, 29.660272)">
			<g>
				<path fill="#7ED957" d="M17.048,7.079c0-0.875,0.396-1.563,1.62-1.563c0.146,0,0.275,0.037,0.422,0.057V4.272
					c-0.167-0.021-0.323-0.058-0.49-0.058c-1.854,0-2.9,1.281-2.9,2.875v2.797h1.349V7.079z"/>
			</g>
		</g>
	</g>
	<g>
		<g transform="translate(47.214284, 29.660272)">
			<g>
				<path fill="#7ED957" d="M20.336,6.517c0,0.573-0.38,1.047-1.292,1.047c-0.911,0-1.291-0.484-1.291-1.047
					c0-0.573,0.38-1.042,1.291-1.042C19.956,5.475,20.336,5.944,20.336,6.517z M19.773,11.012c0,0.359-0.214,0.636-0.729,0.636
					s-0.729-0.276-0.729-0.636s0.213-0.641,0.729-0.641S19.773,10.652,19.773,11.012z M21.007,11.012
					c0-0.708-0.458-1.328-1.292-1.552V8.762c1.261-0.244,1.969-1.167,1.969-2.245c0-0.37-0.078-0.719-0.239-1.031
					c0.214-0.078,0.438-0.088,0.677-0.088h0.203V4.272h-0.203c-0.583,0-1.036,0.01-1.563,0.302
					c-0.406-0.224-0.922-0.359-1.516-0.359c-1.672,0-2.641,1.037-2.641,2.302c0,1.088,0.709,2,1.969,2.245V9.46
					c-0.833,0.224-1.291,0.844-1.291,1.552c0,0.886,0.719,1.625,1.963,1.625C20.289,12.637,21.007,11.918,21.007,11.012z"/>
			</g>
		</g>
	</g>
</g>
</svg>
