<svg xmlns="http://www.w3.org/2000/svg" xmlns:xlink="http://www.w3.org/1999/xlink" width="45" zoomAndPan="magnify" viewBox="0 0 33.75 33.749999" height="45" preserveAspectRatio="xMidYMid meet" version="1.0"><defs><clipPath id="2531cd504e"><path d="M 0 0 L 33.5 0 L 33.5 33.5 L 0 33.5 Z M 0 0 " clip-rule="nonzero"/></clipPath><clipPath id="94ffbe8ca6"><path d="M 0 14 L 32 14 L 32 33.296875 L 0 33.296875 Z M 0 14 " clip-rule="nonzero"/></clipPath><clipPath id="efc483dfe0"><path d="M 25 0.296875 L 31 0.296875 L 31 7 L 25 7 Z M 25 0.296875 " clip-rule="nonzero"/></clipPath><clipPath id="c10bf2a880"><path d="M 7 0.296875 L 13 0.296875 L 13 7 L 7 7 Z M 7 0.296875 " clip-rule="nonzero"/></clipPath><clipPath id="94c6099945"><path d="M 23.484375 6.695312 L 33.5 6.695312 L 33.5 12.53125 L 23.484375 12.53125 Z M 23.484375 6.695312 " clip-rule="nonzero"/></clipPath></defs><g clip-path="url(#2531cd504e)"><path fill="#ffffff" d="M 0 0 L 33.75 0 L 33.75 33.75 L 0 33.75 Z M 0 0 " fill-opacity="1" fill-rule="nonzero"/><path fill="#ffffff" d="M 0 0 L 33.75 0 L 33.75 33.75 L 0 33.75 Z M 0 0 " fill-opacity="1" fill-rule="nonzero"/></g><g clip-path="url(#94ffbe8ca6)"><path fill="#00bf63" d="M 29.636719 17.894531 L 28.71875 19.023438 L 27.203125 20.878906 L 27.140625 20.957031 L 25.914062 22.460938 L 23.800781 25.050781 C 23.65625 25.234375 23.433594 25.339844 23.199219 25.339844 L 14.59375 25.339844 C 13.550781 25.339844 12.554688 25.75 11.816406 26.484375 L 11.675781 26.625 L 6.921875 21.890625 C 6.921875 21.890625 6.921875 21.886719 6.921875 21.886719 C 6.957031 21.820312 6.992188 21.753906 7.03125 21.6875 C 7.042969 21.667969 7.054688 21.648438 7.066406 21.625 C 7.09375 21.578125 7.121094 21.53125 7.152344 21.484375 C 7.164062 21.464844 7.179688 21.445312 7.191406 21.421875 C 7.230469 21.367188 7.265625 21.308594 7.308594 21.253906 C 7.308594 21.25 7.3125 21.246094 7.3125 21.242188 C 7.316406 21.238281 7.316406 21.238281 7.320312 21.230469 C 7.363281 21.171875 7.410156 21.109375 7.457031 21.050781 C 7.472656 21.03125 7.488281 21.011719 7.5 20.996094 C 7.535156 20.949219 7.570312 20.90625 7.605469 20.867188 C 7.625 20.847656 7.640625 20.828125 7.65625 20.808594 C 7.699219 20.761719 7.742188 20.710938 7.785156 20.664062 C 7.792969 20.65625 7.800781 20.644531 7.8125 20.636719 C 7.863281 20.582031 7.917969 20.527344 7.972656 20.472656 C 7.988281 20.457031 8.003906 20.445312 8.019531 20.429688 C 8.0625 20.390625 8.105469 20.351562 8.144531 20.3125 C 8.164062 20.296875 8.183594 20.277344 8.199219 20.261719 C 8.25 20.222656 8.296875 20.179688 8.347656 20.140625 C 8.359375 20.128906 8.367188 20.121094 8.378906 20.113281 C 8.4375 20.0625 8.5 20.015625 8.5625 19.96875 C 8.578125 19.957031 8.59375 19.945312 8.609375 19.9375 C 8.660156 19.898438 8.707031 19.863281 8.757812 19.832031 C 8.777344 19.816406 8.796875 19.804688 8.816406 19.792969 C 8.867188 19.757812 8.921875 19.722656 8.976562 19.6875 C 8.988281 19.679688 9 19.671875 9.015625 19.664062 C 9.082031 19.621094 9.148438 19.582031 9.21875 19.542969 C 9.230469 19.535156 9.246094 19.53125 9.257812 19.523438 C 9.316406 19.492188 9.375 19.460938 9.429688 19.433594 C 9.449219 19.421875 9.46875 19.414062 9.488281 19.402344 C 9.546875 19.375 9.605469 19.347656 9.667969 19.320312 C 9.679688 19.3125 9.691406 19.308594 9.703125 19.300781 C 9.777344 19.269531 9.851562 19.238281 9.929688 19.207031 C 9.929688 19.207031 9.933594 19.207031 9.933594 19.203125 C 9.960938 19.195312 9.988281 19.183594 10.015625 19.175781 C 10.050781 19.160156 10.085938 19.148438 10.121094 19.132812 C 10.171875 19.117188 10.222656 19.097656 10.269531 19.082031 C 10.296875 19.074219 10.320312 19.066406 10.34375 19.0625 C 10.378906 19.050781 10.414062 19.039062 10.453125 19.027344 L 10.527344 19.007812 C 10.5625 18.996094 10.597656 18.988281 10.632812 18.976562 C 10.660156 18.96875 10.6875 18.964844 10.710938 18.957031 C 10.746094 18.949219 10.785156 18.941406 10.820312 18.933594 C 10.84375 18.925781 10.871094 18.921875 10.898438 18.917969 C 10.933594 18.910156 10.96875 18.902344 11.007812 18.894531 C 11.03125 18.890625 11.058594 18.886719 11.082031 18.878906 C 11.121094 18.875 11.160156 18.867188 11.195312 18.863281 C 11.222656 18.859375 11.246094 18.855469 11.273438 18.851562 C 11.28125 18.851562 11.292969 18.847656 11.304688 18.847656 C 11.328125 18.84375 11.355469 18.839844 11.382812 18.835938 C 11.410156 18.832031 11.4375 18.832031 11.464844 18.828125 C 11.503906 18.824219 11.539062 18.820312 11.578125 18.816406 C 11.605469 18.816406 11.628906 18.8125 11.65625 18.8125 C 11.699219 18.808594 11.738281 18.804688 11.78125 18.804688 C 11.804688 18.800781 11.828125 18.800781 11.851562 18.800781 C 11.910156 18.796875 11.96875 18.796875 12.03125 18.796875 C 12.035156 18.796875 12.039062 18.796875 12.042969 18.796875 C 12.878906 18.796875 13.734375 18.984375 14.546875 19.40625 C 14.609375 19.4375 14.671875 19.46875 14.738281 19.496094 C 14.742188 19.5 14.742188 19.5 14.746094 19.5 C 14.746094 19.5 14.75 19.5 14.75 19.503906 C 14.882812 19.5625 15.023438 19.609375 15.164062 19.652344 C 15.515625 19.753906 15.886719 19.800781 16.253906 19.800781 L 21.777344 19.800781 C 21.804688 19.800781 21.832031 19.800781 21.863281 19.804688 C 21.871094 19.804688 21.878906 19.808594 21.886719 19.808594 C 21.917969 19.808594 21.945312 19.8125 21.972656 19.820312 C 21.976562 19.820312 21.976562 19.820312 21.980469 19.820312 C 22.007812 19.824219 22.035156 19.832031 22.0625 19.839844 C 22.070312 19.839844 22.078125 19.84375 22.085938 19.84375 C 22.113281 19.851562 22.140625 19.863281 22.167969 19.871094 C 22.171875 19.871094 22.171875 19.875 22.175781 19.875 C 22.199219 19.882812 22.222656 19.894531 22.25 19.90625 C 22.257812 19.910156 22.261719 19.914062 22.269531 19.914062 C 22.296875 19.929688 22.320312 19.941406 22.347656 19.957031 C 22.347656 19.957031 22.351562 19.957031 22.351562 19.960938 C 22.375 19.972656 22.398438 19.988281 22.421875 20.003906 C 22.425781 20.007812 22.433594 20.011719 22.4375 20.015625 C 22.460938 20.035156 22.484375 20.050781 22.507812 20.070312 C 22.507812 20.070312 22.511719 20.074219 22.511719 20.074219 C 22.53125 20.089844 22.550781 20.109375 22.570312 20.128906 C 22.574219 20.132812 22.582031 20.140625 22.585938 20.144531 C 22.605469 20.164062 22.625 20.183594 22.640625 20.207031 C 22.644531 20.210938 22.648438 20.210938 22.648438 20.214844 C 22.660156 20.230469 22.671875 20.242188 22.679688 20.257812 C 22.683594 20.261719 22.6875 20.269531 22.695312 20.277344 C 22.699219 20.28125 22.703125 20.289062 22.707031 20.296875 C 22.722656 20.320312 22.738281 20.34375 22.75 20.367188 C 22.753906 20.371094 22.753906 20.371094 22.753906 20.375 C 22.769531 20.398438 22.777344 20.421875 22.789062 20.449219 C 22.792969 20.453125 22.796875 20.460938 22.796875 20.46875 C 22.808594 20.496094 22.820312 20.523438 22.828125 20.550781 C 22.835938 20.578125 22.84375 20.609375 22.851562 20.636719 C 22.851562 20.644531 22.851562 20.652344 22.855469 20.65625 C 22.859375 20.6875 22.863281 20.71875 22.867188 20.75 C 22.875 20.820312 22.875 20.886719 22.867188 20.957031 C 22.84375 21.207031 22.730469 21.429688 22.5625 21.597656 C 22.371094 21.785156 22.109375 21.902344 21.816406 21.902344 L 16.445312 21.902344 C 16.285156 21.902344 16.136719 21.960938 16.019531 22.054688 C 15.898438 22.15625 15.8125 22.300781 15.785156 22.460938 C 15.777344 22.496094 15.773438 22.535156 15.773438 22.570312 C 15.773438 22.59375 15.777344 22.621094 15.78125 22.644531 C 15.78125 22.652344 15.78125 22.660156 15.785156 22.664062 C 15.785156 22.683594 15.789062 22.699219 15.792969 22.714844 C 15.792969 22.722656 15.796875 22.730469 15.796875 22.742188 C 15.800781 22.753906 15.804688 22.769531 15.8125 22.785156 C 15.816406 22.792969 15.816406 22.800781 15.820312 22.808594 C 15.824219 22.824219 15.832031 22.835938 15.839844 22.851562 C 15.84375 22.859375 15.847656 22.867188 15.851562 22.875 C 15.855469 22.886719 15.863281 22.902344 15.875 22.914062 C 15.878906 22.921875 15.878906 22.929688 15.886719 22.933594 C 15.894531 22.949219 15.90625 22.964844 15.917969 22.980469 C 15.921875 22.984375 15.921875 22.988281 15.925781 22.992188 C 15.941406 23.007812 15.957031 23.027344 15.972656 23.042969 C 15.976562 23.042969 15.976562 23.046875 15.976562 23.046875 C 15.992188 23.0625 16.007812 23.074219 16.027344 23.089844 C 16.035156 23.097656 16.046875 23.105469 16.058594 23.113281 C 16.0625 23.117188 16.070312 23.121094 16.074219 23.125 C 16.089844 23.136719 16.105469 23.144531 16.125 23.15625 C 16.128906 23.160156 16.136719 23.160156 16.140625 23.164062 C 16.152344 23.171875 16.164062 23.175781 16.179688 23.183594 C 16.1875 23.183594 16.191406 23.1875 16.199219 23.191406 C 16.210938 23.195312 16.222656 23.199219 16.234375 23.203125 C 16.242188 23.207031 16.25 23.207031 16.257812 23.210938 C 16.273438 23.214844 16.285156 23.21875 16.296875 23.222656 C 16.304688 23.222656 16.3125 23.222656 16.320312 23.226562 C 16.332031 23.230469 16.347656 23.230469 16.363281 23.230469 C 16.367188 23.234375 16.375 23.234375 16.382812 23.234375 C 16.402344 23.238281 16.421875 23.238281 16.445312 23.238281 L 21.777344 23.238281 C 21.855469 23.238281 21.933594 23.234375 22.011719 23.230469 C 22.183594 23.214844 22.347656 23.1875 22.511719 23.136719 C 22.582031 23.113281 22.652344 23.089844 22.71875 23.0625 C 22.726562 23.058594 22.734375 23.058594 22.742188 23.054688 C 22.765625 23.042969 22.792969 23.03125 22.820312 23.019531 C 22.828125 23.015625 22.839844 23.011719 22.847656 23.003906 C 22.871094 22.996094 22.894531 22.984375 22.917969 22.972656 C 22.925781 22.96875 22.9375 22.960938 22.949219 22.953125 C 22.96875 22.945312 22.988281 22.933594 23.011719 22.921875 C 23.023438 22.914062 23.03125 22.90625 23.042969 22.902344 C 23.0625 22.890625 23.082031 22.878906 23.101562 22.867188 C 23.113281 22.859375 23.125 22.851562 23.136719 22.84375 C 23.152344 22.832031 23.171875 22.820312 23.1875 22.808594 C 23.199219 22.800781 23.210938 22.792969 23.222656 22.785156 C 23.238281 22.773438 23.257812 22.761719 23.273438 22.75 C 23.285156 22.742188 23.296875 22.730469 23.308594 22.722656 C 23.324219 22.710938 23.339844 22.699219 23.351562 22.683594 C 23.363281 22.675781 23.375 22.664062 23.386719 22.65625 C 23.402344 22.644531 23.417969 22.632812 23.429688 22.617188 C 23.441406 22.609375 23.453125 22.597656 23.464844 22.585938 C 23.476562 22.574219 23.492188 22.5625 23.503906 22.550781 C 23.515625 22.539062 23.527344 22.527344 23.539062 22.515625 C 23.550781 22.5 23.5625 22.488281 23.574219 22.476562 C 23.578125 22.472656 23.582031 22.46875 23.585938 22.460938 C 23.59375 22.453125 23.601562 22.449219 23.609375 22.441406 C 23.617188 22.425781 23.628906 22.414062 23.640625 22.402344 C 23.652344 22.386719 23.664062 22.375 23.671875 22.363281 C 23.683594 22.351562 23.695312 22.335938 23.707031 22.324219 C 23.714844 22.308594 23.726562 22.296875 23.734375 22.285156 C 23.746094 22.269531 23.757812 22.257812 23.765625 22.242188 C 23.777344 22.230469 23.785156 22.214844 23.796875 22.203125 C 23.804688 22.1875 23.8125 22.175781 23.824219 22.160156 C 23.832031 22.148438 23.839844 22.132812 23.851562 22.117188 C 23.859375 22.105469 23.867188 22.089844 23.875 22.078125 C 23.882812 22.0625 23.894531 22.046875 23.902344 22.03125 C 23.910156 22.019531 23.917969 22.003906 23.925781 21.992188 C 23.933594 21.976562 23.941406 21.960938 23.949219 21.945312 C 23.957031 21.929688 23.964844 21.917969 23.96875 21.902344 C 23.976562 21.886719 23.984375 21.871094 23.992188 21.855469 C 24 21.839844 24.003906 21.828125 24.011719 21.8125 C 24.019531 21.796875 24.027344 21.78125 24.03125 21.765625 C 24.039062 21.75 24.042969 21.734375 24.050781 21.722656 C 24.058594 21.703125 24.0625 21.6875 24.070312 21.671875 C 24.074219 21.65625 24.078125 21.644531 24.085938 21.628906 C 24.089844 21.609375 24.09375 21.59375 24.101562 21.578125 C 24.105469 21.5625 24.109375 21.546875 24.113281 21.535156 C 24.121094 21.515625 24.125 21.5 24.128906 21.484375 C 24.132812 21.46875 24.136719 21.453125 24.140625 21.4375 C 24.144531 21.421875 24.148438 21.402344 24.152344 21.386719 C 24.15625 21.371094 24.160156 21.355469 24.164062 21.339844 C 24.167969 21.324219 24.171875 21.308594 24.175781 21.289062 C 24.175781 21.273438 24.179688 21.257812 24.183594 21.242188 C 24.183594 21.226562 24.1875 21.210938 24.191406 21.191406 C 24.191406 21.175781 24.195312 21.160156 24.195312 21.144531 C 24.199219 21.128906 24.199219 21.109375 24.203125 21.09375 C 24.203125 21.078125 24.207031 21.0625 24.207031 21.046875 C 24.207031 21.027344 24.210938 21.011719 24.210938 20.992188 C 24.210938 20.976562 24.210938 20.960938 24.214844 20.945312 C 24.214844 20.929688 24.214844 20.910156 24.214844 20.894531 C 24.214844 20.878906 24.214844 20.863281 24.214844 20.847656 C 24.214844 20.828125 24.214844 20.8125 24.214844 20.792969 C 24.214844 20.777344 24.214844 20.761719 24.214844 20.746094 C 24.210938 20.730469 24.210938 20.710938 24.210938 20.695312 C 24.207031 20.667969 24.207031 20.644531 24.203125 20.621094 C 24.199219 20.574219 24.195312 20.53125 24.1875 20.484375 C 24.175781 20.410156 24.160156 20.335938 24.140625 20.261719 L 26.007812 18.46875 L 27.203125 17.316406 L 28.148438 16.410156 C 28.242188 16.3125 28.355469 16.238281 28.472656 16.1875 C 28.492188 16.179688 28.511719 16.171875 28.53125 16.164062 C 28.550781 16.160156 28.570312 16.152344 28.59375 16.144531 C 28.691406 16.117188 28.792969 16.101562 28.894531 16.101562 C 28.902344 16.101562 28.910156 16.101562 28.917969 16.105469 C 28.976562 16.105469 29.035156 16.109375 29.09375 16.121094 C 29.097656 16.121094 29.105469 16.125 29.109375 16.125 C 29.253906 16.15625 29.390625 16.214844 29.515625 16.308594 C 29.558594 16.339844 29.597656 16.371094 29.636719 16.410156 C 29.84375 16.613281 29.945312 16.882812 29.945312 17.148438 C 29.945312 17.417969 29.84375 17.6875 29.636719 17.894531 Z M 11.160156 28.574219 C 11.15625 28.609375 11.144531 28.644531 11.132812 28.679688 C 11.121094 28.714844 11.109375 28.75 11.089844 28.785156 C 11.0625 28.839844 11.03125 28.894531 10.992188 28.945312 C 10.96875 28.972656 10.945312 29.003906 10.917969 29.03125 L 8.25 31.683594 L 1.632812 25.09375 L 4.296875 22.441406 C 4.421875 22.316406 4.578125 22.238281 4.738281 22.199219 C 4.746094 22.199219 4.757812 22.195312 4.765625 22.195312 C 4.769531 22.195312 4.777344 22.191406 4.785156 22.191406 C 4.835938 22.183594 4.886719 22.179688 4.9375 22.179688 C 5.109375 22.179688 5.28125 22.226562 5.433594 22.328125 C 5.484375 22.359375 5.53125 22.398438 5.574219 22.441406 L 10.917969 27.757812 C 10.992188 27.835938 11.054688 27.921875 11.097656 28.015625 C 11.117188 28.054688 11.132812 28.097656 11.144531 28.136719 C 11.167969 28.21875 11.179688 28.308594 11.179688 28.394531 C 11.179688 28.453125 11.175781 28.515625 11.160156 28.574219 Z M 30.582031 15.460938 C 30.136719 15.015625 29.535156 14.765625 28.894531 14.765625 C 28.835938 14.765625 28.777344 14.769531 28.71875 14.773438 C 28.183594 14.808594 27.683594 15.023438 27.285156 15.382812 C 27.257812 15.40625 27.234375 15.429688 27.207031 15.453125 L 27.203125 15.457031 L 25.050781 17.527344 L 23.421875 19.097656 C 22.984375 18.707031 22.398438 18.464844 21.773438 18.464844 L 16.230469 18.464844 C 15.933594 18.464844 15.648438 18.414062 15.390625 18.316406 C 15.3125 18.289062 15.234375 18.253906 15.160156 18.21875 C 14.1875 17.714844 13.136719 17.460938 12.042969 17.460938 C 11.507812 17.460938 10.980469 17.523438 10.460938 17.640625 C 10.03125 17.742188 9.609375 17.882812 9.203125 18.058594 C 9.074219 18.113281 8.949219 18.171875 8.828125 18.234375 C 8.285156 18.507812 7.773438 18.851562 7.3125 19.257812 C 7.15625 19.394531 7.007812 19.535156 6.863281 19.683594 C 6.464844 20.101562 6.128906 20.558594 5.851562 21.039062 C 5.570312 20.910156 5.257812 20.839844 4.9375 20.839844 C 4.335938 20.839844 3.773438 21.074219 3.347656 21.496094 L 0.351562 24.476562 C 0.0117188 24.816406 0.0117188 25.371094 0.351562 25.710938 L 7.632812 32.957031 C 7.976562 33.296875 8.53125 33.296875 8.871094 32.957031 L 11.867188 29.976562 C 12.46875 29.375 12.65625 28.523438 12.433594 27.761719 L 12.628906 27.570312 C 13.199219 26.996094 13.980469 26.675781 14.792969 26.675781 L 23.199219 26.675781 C 23.839844 26.675781 24.441406 26.390625 24.84375 25.894531 L 27.640625 22.460938 L 28.71875 21.140625 L 30.644531 18.78125 C 31.0625 18.339844 31.289062 17.761719 31.289062 17.148438 C 31.289062 16.507812 31.039062 15.910156 30.582031 15.460938 " fill-opacity="1" fill-rule="nonzero"/></g><path fill="#00bf63" d="M 5.03125 23.8125 C 4.609375 23.8125 4.265625 24.152344 4.265625 24.574219 C 4.265625 24.996094 4.609375 25.339844 5.03125 25.339844 C 5.457031 25.339844 5.800781 24.996094 5.800781 24.574219 C 5.800781 24.152344 5.457031 23.8125 5.03125 23.8125 " fill-opacity="1" fill-rule="nonzero"/><g clip-path="url(#efc483dfe0)"><path fill="#00bf63" d="M 30.96875 3.195312 C 30.96875 4.792969 29.667969 6.09375 28.058594 6.09375 C 26.449219 6.09375 25.148438 4.792969 25.148438 3.195312 C 25.148438 1.59375 26.449219 0.296875 28.058594 0.296875 C 29.667969 0.296875 30.96875 1.59375 30.96875 3.195312 " fill-opacity="1" fill-rule="nonzero"/></g><g clip-path="url(#c10bf2a880)"><path fill="#00bf63" d="M 13 3.195312 C 13 4.792969 11.695312 6.09375 10.089844 6.09375 C 8.480469 6.09375 7.175781 4.792969 7.175781 3.195312 C 7.175781 1.59375 8.480469 0.296875 10.089844 0.296875 C 11.695312 0.296875 13 1.59375 13 3.195312 " fill-opacity="1" fill-rule="nonzero"/></g><g clip-path="url(#94c6099945)"><path fill="#00bf63" d="M 29.648438 6.757812 L 26.46875 6.757812 C 25.46875 6.757812 24.550781 7.117188 23.839844 7.714844 C 23.417969 8.066406 23.453125 8.71875 23.910156 9.023438 C 24.210938 9.222656 24.492188 9.453125 24.753906 9.710938 C 25.382812 10.339844 25.84375 11.09375 26.105469 11.910156 C 26.214844 12.25 26.53125 12.476562 26.886719 12.476562 L 32.082031 12.476562 C 32.992188 12.476562 33.738281 11.734375 33.738281 10.828125 C 33.738281 8.589844 31.898438 6.757812 29.648438 6.757812 " fill-opacity="1" fill-rule="nonzero"/></g><path fill="#00bf63" d="M 14.238281 9.023438 C 14.691406 8.71875 14.726562 8.066406 14.308594 7.714844 C 13.597656 7.117188 12.679688 6.757812 11.679688 6.757812 L 8.496094 6.757812 C 6.25 6.757812 4.410156 8.589844 4.410156 10.828125 C 4.410156 11.734375 5.15625 12.476562 6.066406 12.476562 L 11.261719 12.476562 C 11.617188 12.476562 11.933594 12.25 12.042969 11.910156 C 12.304688 11.09375 12.765625 10.339844 13.394531 9.710938 C 13.65625 9.453125 13.9375 9.222656 14.238281 9.023438 " fill-opacity="1" fill-rule="nonzero"/><path fill="#00bf63" d="M 20.867188 8.992188 L 17.28125 8.992188 C 14.746094 8.992188 12.671875 11.054688 12.671875 13.578125 C 12.671875 14.601562 13.511719 15.441406 14.539062 15.441406 L 23.609375 15.441406 C 24.636719 15.441406 25.476562 14.601562 25.476562 13.578125 C 25.476562 11.054688 23.402344 8.992188 20.867188 8.992188 " fill-opacity="1" fill-rule="nonzero"/><path fill="#00bf63" d="M 22.355469 4.976562 C 22.355469 6.777344 20.886719 8.242188 19.074219 8.242188 C 17.261719 8.242188 15.792969 6.777344 15.792969 4.976562 C 15.792969 3.167969 17.261719 1.707031 19.074219 1.707031 C 20.886719 1.707031 22.355469 3.167969 22.355469 4.976562 " fill-opacity="1" fill-rule="nonzero"/></svg>