<svg xmlns="http://www.w3.org/2000/svg" xmlns:xlink="http://www.w3.org/1999/xlink" width="387" zoomAndPan="magnify" viewBox="0 0 290.25 478.499994" height="638" preserveAspectRatio="xMidYMid meet" version="1.0"><path fill="#7ed957" d="M 272.203125 199.046875 C 259.011719 172.996094 239.203125 155.101562 216.429688 148.65625 C 171.726562 136 147.453125 115.644531 129.734375 100.78125 C 111.945312 85.863281 101.207031 76.855469 84.058594 89.285156 C 60.050781 106.679688 59.921875 130.347656 59.789062 155.402344 C 59.65625 180.546875 59.519531 206.550781 36.171875 229.882812 C 18.132812 247.914062 6.136719 264.988281 0.515625 280.632812 C -4.445312 294.453125 -4.085938 306.511719 1.5625 315.503906 C 10.925781 330.421875 33.226562 334.398438 58.378906 325.636719 C 85.472656 316.199219 103.085938 322.5 125.378906 330.476562 C 145.171875 337.550781 169.203125 346.152344 207.175781 346.148438 C 212.4375 346.148438 217.972656 345.984375 223.796875 345.628906 C 242.464844 344.480469 257.578125 337.214844 268.71875 324.027344 C 278.617188 312.308594 284.921875 296.164062 286.949219 277.335938 C 289.730469 251.574219 284.351562 223.039062 272.203125 199.046875 Z M 285.800781 277.214844 C 281.488281 317.207031 258.28125 342.351562 223.722656 344.472656 C 176.128906 347.390625 148.203125 337.410156 125.769531 329.386719 C 111.304688 324.210938 98.796875 319.738281 84.410156 319.738281 C 76.40625 319.738281 67.820312 321.125 58 324.546875 C 33.378906 333.121094 11.609375 329.332031 2.542969 314.890625 C -9.476562 295.746094 3.402344 264.273438 36.992188 230.699219 C 60.675781 207.03125 60.8125 180.789062 60.949219 155.410156 C 61.078125 130.65625 61.203125 107.273438 84.738281 90.222656 C 101.15625 78.324219 111.042969 86.613281 128.988281 101.667969 C 146.789062 116.597656 171.171875 137.046875 216.113281 149.769531 C 238.574219 156.125 258.125 173.8125 271.167969 199.570312 C 283.222656 223.367188 288.554688 251.667969 285.800781 277.214844 Z M 212.46875 152.167969 C 170.164062 140.195312 147.199219 120.929688 130.429688 106.863281 C 113.585938 92.738281 103.417969 84.207031 87.164062 95.984375 C 64.429688 112.460938 64.308594 134.863281 64.183594 158.585938 C 64.058594 182.375 63.925781 206.976562 41.84375 229.050781 C 9.652344 261.222656 -2.59375 291.53125 9.082031 310.125 C 17.949219 324.253906 39.070312 328.023438 62.890625 319.726562 C 88.519531 310.800781 105.183594 316.761719 126.28125 324.304688 C 145.011719 331.003906 167.761719 339.144531 203.703125 339.140625 C 208.683594 339.140625 213.921875 338.984375 219.433594 338.648438 C 237.113281 337.5625 251.425781 330.679688 261.972656 318.195312 C 271.34375 307.097656 277.3125 291.8125 279.234375 273.988281 C 281.863281 249.601562 276.773438 222.589844 265.273438 199.878906 C 252.785156 175.214844 234.03125 158.269531 212.46875 152.167969 Z M 278.082031 273.863281 C 274.003906 311.699219 252.054688 335.484375 219.363281 337.492188 C 174.320312 340.257812 147.898438 330.808594 126.667969 323.214844 C 112.976562 318.320312 101.136719 314.082031 87.515625 314.082031 C 79.9375 314.082031 71.808594 315.394531 62.507812 318.636719 C 39.21875 326.746094 18.632812 323.164062 10.0625 309.511719 C -1.304688 291.40625 10.878906 261.632812 42.660156 229.871094 C 65.082031 207.460938 65.214844 182.617188 65.339844 158.589844 C 65.464844 135.171875 65.582031 113.050781 87.84375 96.921875 C 103.363281 85.675781 112.710938 93.515625 129.683594 107.75 C 146.535156 121.882812 169.613281 141.238281 212.152344 153.28125 C 233.398438 159.296875 251.898438 176.027344 264.238281 200.398438 C 275.644531 222.917969 280.691406 249.695312 278.082031 273.863281 Z M 208.507812 155.683594 C 168.605469 144.386719 146.941406 126.21875 131.125 112.949219 C 115.222656 99.609375 105.621094 91.558594 90.269531 102.683594 C 68.808594 118.234375 68.695312 139.378906 68.578125 161.765625 C 68.457031 184.203125 68.335938 207.40625 47.507812 228.222656 C 17.132812 258.582031 5.578125 287.1875 16.597656 304.746094 C 24.972656 318.089844 44.914062 321.648438 67.398438 313.820312 C 91.570312 305.398438 107.285156 311.019531 127.179688 318.136719 C 144.851562 324.457031 166.320312 332.136719 200.230469 332.136719 C 204.929688 332.136719 209.871094 331.988281 215.074219 331.667969 C 231.757812 330.644531 245.269531 324.148438 255.226562 312.359375 C 264.070312 301.890625 269.707031 287.460938 271.519531 270.640625 C 274 247.628906 269.195312 222.140625 258.34375 200.707031 C 246.558594 177.433594 228.859375 161.441406 208.507812 155.683594 Z M 270.367188 270.515625 C 266.464844 306.726562 246.285156 328.59375 215 330.511719 C 172.511719 333.125 147.59375 324.207031 127.570312 317.046875 C 114.648438 312.425781 103.472656 308.429688 90.625 308.429688 C 83.472656 308.429688 75.796875 309.667969 67.019531 312.726562 C 45.0625 320.371094 25.65625 317 17.578125 304.128906 C 6.863281 287.0625 18.359375 258.992188 48.328125 229.039062 C 69.488281 207.886719 69.613281 184.445312 69.734375 161.773438 C 69.851562 139.6875 69.960938 118.828125 90.949219 103.621094 C 105.566406 93.023438 114.382812 100.417969 130.378906 113.835938 C 146.277344 127.171875 168.050781 145.433594 208.191406 156.792969 C 228.226562 162.464844 245.671875 178.246094 257.308594 201.230469 C 268.066406 222.464844 272.824219 247.722656 270.367188 270.515625 Z M 204.546875 159.195312 C 167.046875 148.582031 146.6875 131.503906 131.820312 119.035156 C 116.859375 106.484375 107.828125 98.910156 93.375 109.382812 C 73.1875 124.011719 73.082031 143.894531 72.96875 164.949219 C 72.859375 186.03125 72.742188 207.835938 53.175781 227.390625 C 24.609375 255.941406 13.746094 282.847656 24.117188 299.367188 C 32 311.921875 50.757812 315.273438 71.910156 307.90625 C 94.617188 300 109.382812 305.28125 128.078125 311.964844 C 144.695312 317.910156 164.878906 325.128906 196.753906 325.128906 C 201.175781 325.128906 205.820312 324.988281 210.710938 324.6875 C 226.40625 323.726562 239.113281 317.617188 248.476562 306.527344 C 256.796875 296.679688 262.097656 283.113281 263.800781 267.292969 C 266.132812 245.65625 261.617188 221.6875 251.414062 201.535156 C 240.332031 179.648438 223.6875 164.613281 204.546875 159.195312 Z M 262.648438 267.171875 C 258.984375 301.1875 240.027344 321.730469 210.640625 323.535156 C 170.707031 325.984375 147.289062 317.609375 128.46875 310.878906 C 116.320312 306.53125 105.8125 302.773438 93.726562 302.773438 C 87.003906 302.773438 79.785156 303.941406 71.527344 306.816406 C 50.90625 313.996094 32.679688 310.832031 25.097656 298.75 C 15.035156 282.722656 25.835938 256.351562 53.996094 228.207031 C 73.898438 208.316406 74.015625 186.273438 74.128906 164.953125 C 74.238281 144.203125 74.34375 124.605469 94.054688 110.320312 C 107.773438 100.378906 116.050781 107.320312 131.078125 119.921875 C 146.023438 132.457031 166.492188 149.628906 204.234375 160.308594 C 244.828125 171.800781 267.210938 224.839844 262.648438 267.171875 Z M 200.585938 162.710938 C 165.488281 152.773438 146.433594 136.789062 132.519531 125.121094 C 118.496094 113.359375 110.035156 106.261719 96.480469 116.082031 C 77.566406 129.789062 77.46875 148.414062 77.363281 168.128906 C 77.257812 187.859375 77.148438 208.261719 58.84375 226.558594 C 32.089844 253.300781 21.917969 278.507812 31.632812 293.984375 C 39.023438 305.753906 56.601562 308.902344 76.417969 301.996094 C 97.664062 294.597656 111.480469 299.539062 128.976562 305.796875 C 144.535156 311.363281 163.433594 318.121094 193.28125 318.121094 C 197.421875 318.121094 201.769531 317.992188 206.351562 317.710938 C 221.054688 316.808594 232.957031 311.082031 241.730469 300.695312 C 249.527344 291.46875 254.488281 278.761719 256.085938 263.945312 C 258.269531 243.679688 254.042969 221.238281 244.484375 202.367188 C 234.101562 181.867188 218.515625 167.785156 200.585938 162.710938 Z M 254.933594 263.820312 C 251.503906 295.648438 233.769531 314.867188 206.277344 316.554688 C 168.910156 318.847656 146.984375 311.007812 129.367188 304.707031 C 117.992188 300.640625 108.152344 297.121094 96.832031 297.121094 C 90.53125 297.121094 83.773438 298.210938 76.039062 300.90625 C 56.75 307.625 39.707031 304.667969 32.613281 293.371094 C 23.203125 278.382812 33.316406 253.710938 59.664062 227.378906 C 78.304688 208.746094 78.414062 188.101562 78.519531 168.136719 C 78.625 148.722656 78.722656 130.382812 97.160156 117.019531 C 109.980469 107.730469 117.722656 114.21875 131.773438 126.007812 C 145.769531 137.746094 164.9375 153.820312 200.273438 163.824219 C 238.257812 174.574219 259.203125 224.210938 254.933594 263.820312 Z M 196.628906 166.222656 C 163.929688 156.96875 146.175781 142.078125 133.214844 131.207031 C 120.132812 120.234375 112.238281 113.613281 99.585938 122.78125 C 81.945312 135.566406 81.851562 152.929688 81.753906 171.3125 C 81.65625 189.6875 81.558594 208.691406 64.511719 225.726562 C 39.566406 250.660156 30.085938 274.164062 39.152344 288.605469 C 46.046875 299.589844 62.445312 302.527344 80.929688 296.085938 C 100.710938 289.195312 113.582031 293.800781 129.875 299.628906 C 144.375 304.8125 161.988281 311.113281 189.808594 311.113281 C 193.664062 311.113281 197.71875 310.992188 201.988281 310.730469 C 215.699219 309.890625 226.800781 304.550781 234.984375 294.863281 C 242.25 286.261719 246.878906 274.410156 248.367188 260.597656 C 250.402344 241.710938 246.460938 220.785156 237.554688 203.195312 C 227.875 184.085938 213.339844 170.957031 196.628906 166.222656 Z M 247.214844 260.472656 C 244.023438 290.109375 227.511719 308.003906 201.914062 309.574219 C 167.097656 311.710938 146.675781 304.40625 130.265625 298.539062 C 119.660156 294.746094 110.488281 291.464844 99.9375 291.464844 C 94.0625 291.464844 87.761719 292.484375 80.546875 294.996094 C 62.59375 301.25 46.730469 298.5 40.132812 287.992188 C 31.375 274.042969 40.792969 251.070312 65.328125 226.546875 C 82.710938 209.175781 82.816406 189.929688 82.914062 171.320312 C 83.007812 153.238281 83.101562 136.160156 100.265625 123.71875 C 112.1875 115.082031 119.390625 121.121094 132.46875 132.09375 C 145.515625 143.03125 163.378906 158.015625 196.3125 167.335938 C 231.6875 177.351562 251.195312 223.578125 247.214844 260.472656 Z M 192.667969 169.738281 C 162.371094 161.160156 145.921875 147.363281 133.910156 137.289062 C 121.773438 127.109375 114.445312 120.964844 102.691406 129.484375 C 86.324219 141.34375 86.238281 157.445312 86.148438 174.496094 C 86.058594 191.519531 85.964844 209.121094 70.179688 224.898438 C 47.042969 248.019531 38.253906 269.824219 46.667969 283.226562 C 53.070312 293.421875 68.285156 296.152344 85.4375 290.179688 C 103.757812 283.796875 115.679688 288.0625 130.773438 293.460938 C 144.214844 298.265625 160.542969 304.105469 186.332031 304.105469 C 189.910156 304.105469 193.667969 303.992188 197.625 303.75 C 210.34375 302.96875 220.644531 298.015625 228.238281 289.027344 C 234.976562 281.050781 239.269531 270.058594 240.648438 257.25 C 242.539062 239.734375 238.882812 220.335938 230.625 204.023438 C 221.648438 186.304688 208.167969 174.125 192.667969 169.738281 Z M 239.5 257.125 C 236.542969 284.566406 221.253906 301.140625 197.554688 302.597656 C 165.296875 304.574219 146.371094 297.808594 131.164062 292.371094 C 121.332031 288.851562 112.828125 285.8125 103.042969 285.8125 C 97.597656 285.8125 91.75 286.753906 85.058594 289.085938 C 68.4375 294.875 53.753906 292.332031 47.648438 282.609375 C 39.542969 269.699219 48.273438 248.429688 70.996094 225.71875 C 87.121094 209.601562 87.214844 191.757812 87.304688 174.5 C 87.394531 157.753906 87.480469 141.933594 103.371094 130.417969 C 114.394531 122.433594 121.0625 128.027344 133.167969 138.175781 C 145.257812 148.320312 161.816406 162.207031 192.351562 170.851562 C 225.117188 180.125 243.183594 222.949219 239.5 257.125 Z M 188.707031 173.25 C 160.8125 165.355469 145.667969 152.652344 134.605469 143.375 C 123.410156 133.984375 116.652344 128.316406 105.796875 136.183594 C 90.703125 147.117188 90.625 161.960938 90.542969 177.675781 C 90.457031 193.34375 90.371094 209.550781 75.847656 224.066406 C 54.523438 245.378906 46.425781 265.484375 54.1875 277.84375 C 60.09375 287.257812 74.132812 289.777344 89.949219 284.265625 C 106.808594 278.394531 117.78125 282.320312 131.675781 287.289062 C 144.058594 291.71875 159.101562 297.097656 182.863281 297.097656 C 186.15625 297.097656 189.617188 296.996094 193.265625 296.769531 C 204.992188 296.050781 214.488281 291.484375 221.492188 283.195312 C 227.703125 275.839844 231.660156 265.710938 232.933594 253.902344 C 234.675781 237.761719 231.308594 219.886719 223.695312 204.855469 C 215.421875 188.519531 202.996094 177.296875 188.707031 173.25 Z M 231.78125 253.777344 C 229.0625 279.027344 214.996094 294.277344 193.191406 295.617188 C 163.488281 297.4375 146.066406 291.207031 132.0625 286.199219 C 123.003906 282.957031 115.164062 280.15625 106.148438 280.15625 C 101.125 280.15625 95.738281 281.027344 89.566406 283.175781 C 74.277344 288.5 60.777344 286.164062 55.167969 277.230469 C 47.714844 265.359375 55.75 245.789062 76.664062 224.886719 C 91.527344 210.03125 91.613281 193.585938 91.699219 177.683594 C 91.78125 162.269531 91.859375 147.710938 106.476562 137.117188 C 116.601562 129.785156 122.730469 134.925781 133.863281 144.261719 C 145.003906 153.605469 160.257812 166.402344 188.390625 174.363281 C 218.546875 182.902344 235.175781 222.316406 231.78125 253.777344 Z M 184.746094 176.765625 C 159.253906 169.546875 145.410156 157.9375 135.304688 149.460938 C 125.046875 140.859375 118.859375 135.667969 108.902344 142.882812 C 95.082031 152.894531 95.011719 166.476562 94.933594 180.859375 C 94.859375 195.175781 94.78125 209.980469 81.515625 223.238281 C 62 242.738281 54.597656 261.144531 61.703125 272.464844 C 67.117188 281.089844 79.976562 283.402344 94.457031 278.359375 C 109.855469 272.996094 119.878906 276.582031 132.574219 281.121094 C 143.898438 285.171875 157.65625 290.089844 179.386719 290.089844 C 182.402344 290.089844 185.566406 289.996094 188.902344 289.792969 C 199.640625 289.132812 208.335938 284.949219 214.742188 277.363281 C 220.429688 270.628906 224.054688 261.359375 225.21875 250.554688 C 228.367188 221.339844 212.855469 184.722656 184.746094 176.765625 Z M 224.066406 250.429688 C 221.582031 273.488281 208.738281 287.414062 188.832031 288.636719 C 161.6875 290.304688 145.757812 284.605469 132.964844 280.03125 C 124.675781 277.066406 117.503906 274.5 109.253906 274.5 C 104.65625 274.5 99.722656 275.296875 94.078125 277.265625 C 80.125 282.125 67.800781 280 62.683594 271.851562 C 55.882812 261.015625 63.230469 243.148438 82.332031 224.054688 C 95.9375 210.460938 96.015625 195.414062 96.09375 180.863281 C 96.167969 166.785156 96.238281 153.488281 109.582031 143.816406 C 118.808594 137.132812 124.402344 141.828125 134.558594 150.347656 C 144.75 158.890625 158.703125 170.59375 184.433594 177.878906 C 211.976562 185.675781 227.164062 221.6875 224.066406 250.429688 Z M 180.785156 180.277344 C 157.695312 173.742188 145.15625 163.226562 136 155.546875 C 126.6875 147.734375 121.0625 143.019531 112.007812 149.582031 C 99.460938 158.671875 99.398438 170.996094 99.328125 184.039062 C 99.257812 197.003906 99.1875 210.40625 87.179688 222.40625 C 69.480469 240.097656 62.765625 256.800781 69.222656 267.085938 C 74.140625 274.921875 85.816406 277.027344 98.96875 272.449219 C 112.902344 267.59375 121.980469 270.839844 133.472656 274.949219 C 143.738281 278.621094 156.210938 283.085938 175.914062 283.082031 C 178.644531 283.082031 181.515625 282.996094 184.539062 282.8125 C 194.285156 282.214844 202.175781 278.417969 207.996094 271.53125 C 213.15625 265.417969 216.441406 257.007812 217.5 247.207031 C 220.355469 220.710938 206.285156 187.496094 180.785156 180.277344 Z M 216.351562 247.082031 C 214.101562 267.949219 202.480469 280.550781 184.46875 281.65625 C 159.882812 283.167969 145.453125 278.007812 133.863281 273.863281 C 126.34375 271.171875 119.84375 268.847656 112.359375 268.847656 C 108.1875 268.847656 103.710938 269.570312 98.585938 271.355469 C 85.964844 275.75 74.824219 273.835938 70.203125 266.472656 C 64.054688 256.675781 70.707031 240.511719 88 223.226562 C 100.34375 210.890625 100.414062 197.242188 100.484375 184.046875 C 100.554688 171.304688 100.617188 159.265625 112.6875 150.519531 C 121.011719 144.484375 126.070312 148.730469 135.253906 156.433594 C 144.492188 164.179688 157.140625 174.789062 180.46875 181.394531 C 205.40625 188.449219 219.15625 221.054688 216.351562 247.082031 Z M 176.824219 183.792969 C 156.136719 177.9375 144.902344 168.511719 136.695312 161.628906 C 128.324219 154.609375 123.269531 150.371094 115.113281 156.28125 C 103.84375 164.449219 103.78125 175.511719 103.722656 187.222656 C 103.660156 198.832031 103.59375 210.835938 92.847656 221.574219 C 76.957031 237.460938 70.9375 252.460938 76.738281 261.707031 C 81.164062 268.757812 91.664062 270.652344 103.480469 266.535156 C 115.949219 262.191406 124.082031 265.101562 134.371094 268.78125 C 143.582031 272.074219 154.769531 276.074219 172.441406 276.074219 C 174.890625 276.074219 177.46875 276 180.179688 275.832031 C 196.667969 274.820312 207.734375 262.867188 209.785156 243.855469 C 212.347656 220.082031 199.714844 190.273438 176.824219 183.792969 Z M 208.632812 243.734375 C 206.621094 262.410156 196.222656 273.6875 180.109375 274.679688 C 158.074219 276.027344 145.148438 271.40625 134.761719 267.691406 C 128.015625 265.277344 122.179688 263.191406 115.464844 263.191406 C 111.71875 263.191406 107.699219 263.84375 103.097656 265.445312 C 91.808594 269.375 81.847656 267.667969 77.71875 261.089844 C 72.222656 252.335938 78.183594 237.871094 93.667969 222.394531 C 104.75 211.316406 104.816406 199.070312 104.878906 187.226562 C 104.9375 175.816406 104.996094 165.042969 115.792969 157.21875 C 123.214844 151.839844 127.742188 155.628906 135.953125 162.515625 C 144.238281 169.464844 155.585938 178.980469 176.511719 184.90625 C 198.835938 191.226562 211.144531 220.425781 208.632812 243.734375 Z M 172.863281 187.304688 C 154.578125 182.128906 144.644531 173.800781 137.390625 167.714844 C 129.960938 161.484375 125.476562 157.722656 118.21875 162.980469 C 108.21875 170.226562 108.167969 180.027344 108.113281 190.402344 C 108.058594 200.660156 108 211.265625 98.515625 220.746094 C 84.4375 234.820312 79.105469 248.121094 84.257812 256.324219 C 88.191406 262.589844 97.503906 264.277344 107.988281 260.628906 C 118.996094 256.792969 126.179688 259.359375 135.269531 262.613281 C 143.421875 265.527344 153.324219 269.070312 168.964844 269.070312 C 171.136719 269.070312 173.417969 269 175.816406 268.851562 C 190.4375 267.957031 200.25 257.359375 202.066406 240.507812 C 204.335938 219.449219 193.144531 193.046875 172.863281 187.304688 Z M 200.917969 240.386719 C 199.140625 256.871094 189.964844 266.824219 175.746094 267.699219 C 156.273438 268.894531 144.84375 264.804688 135.660156 261.523438 C 129.6875 259.386719 124.519531 257.539062 118.570312 257.539062 C 115.25 257.539062 111.6875 258.113281 107.605469 259.535156 C 97.652344 263 88.875 261.5 85.238281 255.710938 C 80.394531 247.992188 85.664062 235.226562 99.335938 221.5625 C 109.15625 211.746094 109.214844 200.898438 109.273438 190.410156 C 109.324219 180.335938 109.375 170.816406 118.898438 163.917969 C 125.425781 159.1875 129.414062 162.53125 136.648438 168.601562 C 143.980469 174.753906 154.027344 183.175781 172.550781 188.417969 C 192.265625 194 203.136719 219.796875 200.917969 240.386719 Z M 168.902344 190.820312 C 153.019531 186.324219 144.390625 179.085938 138.089844 173.800781 C 131.824219 168.546875 127.683594 165.074219 121.324219 169.679688 C 112.597656 176.003906 112.554688 184.542969 112.507812 193.585938 C 112.457031 202.488281 112.410156 211.691406 104.183594 219.914062 C 91.914062 232.179688 87.273438 243.777344 91.773438 250.945312 C 95.214844 256.425781 103.347656 257.90625 112.496094 254.71875 C 122.046875 251.390625 128.28125 253.621094 136.171875 256.441406 C 143.265625 258.980469 151.878906 262.0625 165.492188 262.0625 C 167.382812 262.0625 169.367188 262.003906 171.457031 261.875 C 184.207031 261.089844 192.765625 251.851562 194.351562 237.160156 C 196.328125 218.820312 186.574219 195.820312 168.902344 190.820312 Z M 193.199219 237.035156 C 191.660156 251.332031 183.707031 259.960938 171.382812 260.71875 C 154.46875 261.757812 144.539062 258.207031 136.558594 255.355469 C 131.359375 253.492188 126.859375 251.882812 121.675781 251.882812 C 118.78125 251.882812 115.675781 252.386719 112.117188 253.625 C 103.496094 256.628906 95.894531 255.335938 92.753906 250.332031 C 88.5625 243.652344 93.140625 232.589844 105.003906 220.734375 C 113.566406 212.175781 113.617188 202.726562 113.664062 193.59375 C 113.710938 184.851562 113.753906 176.59375 122.003906 170.617188 C 127.632812 166.542969 131.082031 169.433594 137.34375 174.6875 C 143.726562 180.039062 152.464844 187.371094 168.589844 191.933594 C 185.695312 196.777344 195.125 219.164062 193.199219 237.035156 Z M 164.941406 194.332031 C 151.460938 190.515625 144.132812 184.371094 138.785156 179.886719 C 133.429688 175.394531 129.890625 172.421875 124.429688 176.378906 C 116.980469 181.777344 116.941406 189.058594 116.898438 196.765625 C 116.859375 204.316406 116.816406 212.121094 109.851562 219.085938 C 99.394531 229.539062 95.445312 239.4375 99.292969 245.566406 C 102.234375 250.257812 109.191406 251.53125 117.007812 248.808594 C 125.09375 245.988281 130.378906 247.882812 137.070312 250.273438 C 143.105469 252.433594 150.433594 255.054688 162.019531 255.054688 C 163.625 255.054688 165.316406 255.003906 167.09375 254.894531 C 177.976562 254.226562 185.28125 246.34375 186.632812 233.8125 C 188.316406 218.1875 180.003906 198.597656 164.941406 194.332031 Z M 185.484375 233.6875 C 184.179688 245.792969 177.449219 253.097656 167.023438 253.738281 C 152.667969 254.625 144.230469 251.605469 137.460938 249.183594 C 133.027344 247.597656 129.195312 246.226562 124.78125 246.226562 C 122.3125 246.226562 119.664062 246.65625 116.625 247.714844 C 109.339844 250.253906 102.921875 249.167969 100.273438 244.949219 C 96.734375 239.3125 100.621094 229.949219 110.671875 219.902344 C 117.972656 212.605469 118.019531 204.195312 118.058594 196.773438 C 118.097656 189.367188 118.132812 182.371094 125.109375 177.316406 C 129.835938 173.890625 132.578125 176.191406 138.042969 180.773438 C 143.472656 185.324219 150.90625 191.5625 164.628906 195.445312 C 179.125 199.550781 187.117188 218.535156 185.484375 233.6875 Z M 185.484375 233.6875 " fill-opacity="1" fill-rule="nonzero"/></svg>