<svg xmlns="http://www.w3.org/2000/svg" xmlns:xlink="http://www.w3.org/1999/xlink" width="305" zoomAndPan="magnify" viewBox="0 0 228.75 228.749994" height="305" preserveAspectRatio="xMidYMid meet" version="1.0"><path fill="#7ed957" d="M 213.914062 104.59375 C 203.898438 84.753906 188.855469 71.125 171.558594 66.214844 C 137.605469 56.578125 119.175781 41.074219 105.714844 29.753906 C 92.207031 18.390625 84.054688 11.53125 71.027344 20.996094 C 52.792969 34.246094 52.699219 52.273438 52.597656 71.355469 C 52.496094 90.503906 52.390625 110.308594 34.660156 128.078125 C 20.960938 141.8125 11.847656 154.816406 7.582031 166.730469 C 3.8125 177.257812 4.085938 186.441406 8.375 193.292969 C 15.488281 204.652344 32.425781 207.679688 51.527344 201.007812 C 72.101562 193.820312 85.476562 198.617188 102.410156 204.691406 C 117.441406 210.082031 135.691406 216.632812 164.53125 216.632812 C 168.527344 216.632812 172.730469 216.503906 177.152344 216.234375 C 191.332031 215.359375 202.808594 209.824219 211.269531 199.78125 C 218.785156 190.855469 223.574219 178.5625 225.117188 164.222656 C 227.226562 144.601562 223.144531 122.867188 213.914062 104.59375 Z M 224.242188 164.128906 C 220.96875 194.589844 203.34375 213.738281 177.097656 215.351562 C 140.949219 217.578125 119.742188 209.972656 102.707031 203.863281 C 91.722656 199.921875 82.222656 196.515625 71.296875 196.515625 C 65.21875 196.515625 58.695312 197.570312 51.238281 200.175781 C 32.539062 206.710938 16.003906 203.820312 9.121094 192.824219 C -0.0078125 178.242188 9.773438 154.273438 35.28125 128.703125 C 53.269531 110.675781 53.375 90.6875 53.476562 71.359375 C 53.578125 52.507812 53.671875 34.699219 71.542969 21.710938 C 84.011719 12.648438 91.519531 18.964844 105.148438 30.425781 C 118.667969 41.800781 137.1875 57.375 171.316406 67.0625 C 188.375 71.90625 203.222656 85.375 213.128906 104.992188 C 222.285156 123.117188 226.332031 144.671875 224.242188 164.128906 Z M 168.550781 68.890625 C 136.421875 59.769531 118.980469 45.097656 106.246094 34.386719 C 93.453125 23.625 85.730469 17.128906 73.386719 26.101562 C 56.121094 38.648438 56.03125 55.710938 55.933594 73.777344 C 55.839844 91.898438 55.738281 110.632812 38.964844 127.445312 C 14.519531 151.949219 5.21875 175.03125 14.085938 189.195312 C 20.820312 199.957031 36.863281 202.824219 54.953125 196.507812 C 74.414062 189.710938 87.070312 194.246094 103.09375 199.996094 C 117.320312 205.097656 134.597656 211.296875 161.890625 211.292969 C 165.675781 211.292969 169.65625 211.175781 173.839844 210.917969 C 187.265625 210.089844 198.136719 204.851562 206.144531 195.339844 C 213.261719 186.890625 217.796875 175.246094 219.257812 161.671875 C 221.253906 143.097656 217.386719 122.523438 208.652344 105.226562 C 199.167969 86.445312 184.925781 73.539062 168.550781 68.890625 Z M 218.382812 161.578125 C 215.285156 190.394531 198.613281 208.507812 173.785156 210.039062 C 139.578125 212.144531 119.511719 204.945312 103.390625 199.164062 C 92.992188 195.433594 83.996094 192.207031 73.65625 192.207031 C 67.898438 192.207031 61.726562 193.207031 54.660156 195.675781 C 36.972656 201.855469 21.339844 199.125 14.828125 188.726562 C 6.199219 174.9375 15.453125 152.261719 39.585938 128.070312 C 56.617188 111 56.714844 92.082031 56.8125 73.78125 C 56.90625 55.945312 56.996094 39.097656 73.902344 26.8125 C 85.6875 18.246094 92.789062 24.21875 105.679688 35.0625 C 118.476562 45.824219 136.003906 60.566406 168.3125 69.738281 C 184.445312 74.320312 198.496094 87.0625 207.867188 105.625 C 216.527344 122.773438 220.359375 143.167969 218.382812 161.578125 Z M 165.542969 71.566406 C 135.238281 62.964844 118.785156 49.125 106.773438 39.019531 C 94.695312 28.859375 87.402344 22.730469 75.746094 31.203125 C 59.445312 43.046875 59.359375 59.152344 59.269531 76.199219 C 59.179688 93.289062 59.085938 110.960938 43.269531 126.8125 C 20.199219 149.9375 11.425781 171.726562 19.792969 185.097656 C 26.15625 195.257812 41.296875 197.972656 58.375 192.007812 C 76.730469 185.59375 88.667969 189.875 103.777344 195.296875 C 117.199219 200.109375 133.503906 205.957031 159.253906 205.957031 C 162.824219 205.957031 166.578125 205.84375 170.527344 205.601562 C 183.199219 204.824219 193.460938 199.875 201.023438 190.898438 C 207.738281 182.921875 212.019531 171.933594 213.394531 159.121094 C 215.28125 141.597656 211.632812 122.183594 203.390625 105.859375 C 194.4375 88.132812 180.996094 75.953125 165.542969 71.566406 Z M 212.519531 159.027344 C 209.558594 186.605469 194.230469 203.257812 170.472656 204.722656 C 138.207031 206.710938 119.28125 199.917969 104.074219 194.464844 C 94.257812 190.945312 85.773438 187.902344 76.011719 187.902344 C 70.582031 187.902344 64.753906 188.84375 58.085938 191.175781 C 41.414062 197 26.675781 194.429688 20.539062 184.628906 C 12.402344 171.628906 21.132812 150.25 43.890625 127.4375 C 59.964844 111.328125 60.058594 93.472656 60.148438 76.207031 C 60.238281 59.386719 60.324219 43.496094 76.261719 31.914062 C 87.363281 23.847656 94.058594 29.476562 106.207031 39.695312 C 118.28125 49.851562 134.816406 63.761719 165.300781 72.414062 C 180.519531 76.734375 193.765625 88.753906 202.605469 106.257812 C 210.773438 122.429688 214.386719 141.664062 212.519531 159.027344 Z M 162.535156 74.242188 C 134.054688 66.160156 118.59375 53.152344 107.300781 43.65625 C 95.9375 34.097656 89.082031 28.328125 78.101562 36.304688 C 62.769531 47.445312 62.691406 62.589844 62.605469 78.625 C 62.523438 94.683594 62.433594 111.285156 47.574219 126.179688 C 25.878906 147.925781 17.628906 168.417969 25.503906 181 C 31.492188 190.5625 45.738281 193.117188 61.800781 187.503906 C 79.046875 181.480469 90.261719 185.503906 104.460938 190.597656 C 117.078125 195.121094 132.40625 200.621094 156.617188 200.621094 C 159.972656 200.621094 163.5 200.515625 167.214844 200.285156 C 179.132812 199.550781 188.785156 194.898438 195.898438 186.453125 C 202.214844 178.953125 206.238281 168.621094 207.535156 156.574219 C 209.304688 140.09375 205.878906 121.839844 198.128906 106.492188 C 189.710938 89.820312 177.070312 78.371094 162.535156 74.242188 Z M 206.660156 156.480469 C 203.875 182.386719 189.480469 198.03125 167.160156 199.40625 C 136.835938 201.273438 119.046875 194.894531 104.753906 189.765625 C 95.527344 186.457031 87.550781 183.59375 78.371094 183.59375 C 73.265625 183.59375 67.78125 184.484375 61.511719 186.671875 C 45.851562 192.144531 32.007812 189.730469 26.25 180.53125 C 18.605469 168.324219 26.8125 148.238281 48.195312 126.804688 C 63.3125 111.65625 63.398438 94.863281 63.484375 78.628906 C 63.570312 62.824219 63.648438 47.898438 78.621094 37.019531 C 89.039062 29.445312 95.324219 34.734375 106.738281 44.332031 C 118.085938 53.878906 133.632812 66.957031 162.296875 75.089844 C 193.125 83.84375 210.125 124.238281 206.660156 156.480469 Z M 159.527344 76.917969 C 132.871094 69.351562 118.398438 57.179688 107.832031 48.289062 C 97.183594 39.332031 90.753906 33.929688 80.460938 41.40625 C 66.097656 51.84375 66.023438 66.03125 65.941406 81.046875 C 65.863281 96.074219 65.78125 111.613281 51.878906 125.546875 C 31.558594 145.914062 23.835938 165.113281 31.214844 176.902344 C 36.824219 185.867188 50.175781 188.261719 65.226562 183.003906 C 81.359375 177.367188 91.855469 181.132812 105.140625 185.898438 C 116.957031 190.136719 131.308594 195.285156 153.980469 195.285156 C 157.121094 195.285156 160.425781 195.183594 163.902344 194.96875 C 175.070312 194.285156 184.109375 189.921875 190.773438 182.011719 C 196.691406 174.984375 200.460938 165.308594 201.675781 154.023438 C 203.332031 138.589844 200.121094 121.496094 192.863281 107.121094 C 184.980469 91.511719 173.140625 80.785156 159.527344 76.917969 Z M 200.800781 153.929688 C 198.195312 178.167969 184.726562 192.804688 163.847656 194.089844 C 135.46875 195.835938 118.816406 189.867188 105.4375 185.070312 C 96.796875 181.96875 89.324219 179.289062 80.730469 179.289062 C 75.945312 179.289062 70.8125 180.121094 64.9375 182.171875 C 50.289062 187.289062 37.34375 185.035156 31.957031 176.433594 C 24.8125 165.019531 32.492188 146.226562 52.5 126.171875 C 66.660156 111.980469 66.742188 96.257812 66.824219 81.054688 C 66.902344 66.265625 66.972656 52.296875 80.976562 42.121094 C 90.714844 35.042969 96.59375 39.988281 107.265625 48.964844 C 117.894531 57.90625 132.453125 70.148438 159.289062 77.765625 C 188.136719 85.957031 204.042969 123.757812 200.800781 153.929688 Z M 156.519531 79.597656 C 131.6875 72.546875 118.203125 61.207031 108.359375 52.925781 C 98.425781 44.570312 92.429688 39.527344 82.820312 46.511719 C 69.421875 56.246094 69.351562 69.46875 69.277344 83.472656 C 69.203125 97.46875 69.128906 111.941406 56.183594 124.914062 C 37.238281 143.902344 30.039062 161.808594 36.921875 172.804688 C 42.160156 181.167969 54.613281 183.40625 68.652344 178.503906 C 83.675781 173.253906 93.449219 176.761719 105.824219 181.199219 C 116.835938 185.148438 130.210938 189.945312 151.339844 189.945312 C 154.269531 189.945312 157.347656 189.855469 160.589844 189.65625 C 171.003906 189.015625 179.433594 184.949219 185.648438 177.570312 C 191.167969 171.019531 194.683594 161.992188 195.8125 151.472656 C 197.359375 137.085938 194.367188 121.152344 187.601562 107.753906 C 180.25 93.199219 169.214844 83.199219 156.519531 79.597656 Z M 194.941406 151.378906 C 192.515625 173.949219 179.972656 187.578125 160.535156 188.777344 C 134.09375 190.402344 118.582031 184.839844 106.121094 180.371094 C 98.066406 177.480469 91.101562 174.984375 83.089844 174.984375 C 78.625 174.984375 73.839844 175.757812 68.363281 177.671875 C 54.726562 182.433594 42.679688 180.339844 37.667969 172.335938 C 31.015625 161.710938 38.171875 144.21875 56.804688 125.539062 C 70.003906 112.308594 70.082031 97.648438 70.160156 83.476562 C 70.230469 69.703125 70.300781 56.695312 83.335938 47.222656 C 92.390625 40.644531 97.863281 45.246094 107.792969 53.601562 C 117.699219 61.933594 131.265625 73.34375 156.28125 80.445312 C 183.144531 88.070312 197.960938 123.277344 194.941406 151.378906 Z M 153.511719 82.273438 C 130.503906 75.742188 118.011719 65.234375 108.886719 57.558594 C 99.671875 49.804688 94.105469 45.125 85.179688 51.613281 C 72.75 60.644531 72.683594 72.910156 72.617188 85.894531 C 72.546875 98.859375 72.476562 112.265625 60.488281 124.285156 C 42.917969 141.894531 36.242188 158.5 42.632812 168.707031 C 47.492188 176.472656 59.050781 178.550781 72.078125 174.003906 C 85.988281 169.140625 95.042969 172.390625 106.507812 176.5 C 116.714844 180.164062 129.117188 184.609375 148.703125 184.609375 C 151.417969 184.609375 154.273438 184.523438 157.277344 184.339844 C 166.9375 183.746094 174.757812 179.972656 180.527344 173.125 C 185.644531 167.050781 188.90625 158.679688 189.953125 148.921875 C 191.386719 135.582031 188.613281 120.808594 182.339844 108.386719 C 175.523438 94.886719 165.285156 85.613281 153.511719 82.273438 Z M 189.078125 148.828125 C 186.832031 169.730469 175.222656 182.351562 157.222656 183.460938 C 132.722656 184.964844 118.351562 179.8125 106.804688 175.671875 C 99.335938 172.992188 92.878906 170.675781 85.445312 170.675781 C 81.308594 170.675781 76.867188 171.394531 71.789062 173.167969 C 59.164062 177.578125 48.011719 175.644531 43.375 168.238281 C 37.222656 158.40625 43.851562 142.207031 61.109375 124.90625 C 73.351562 112.632812 73.425781 99.042969 73.496094 85.898438 C 73.5625 73.144531 73.625 61.097656 85.695312 52.328125 C 94.066406 46.242188 99.132812 50.503906 108.324219 58.234375 C 117.507812 65.960938 130.082031 76.539062 153.273438 83.121094 C 178.15625 90.183594 191.878906 122.796875 189.078125 148.828125 Z M 150.503906 84.949219 C 129.320312 78.933594 117.816406 69.257812 109.417969 62.195312 C 100.914062 55.042969 95.78125 50.722656 87.539062 56.714844 C 76.074219 65.042969 76.015625 76.347656 75.953125 88.316406 C 75.886719 100.253906 75.824219 112.59375 64.789062 123.652344 C 48.597656 139.882812 42.449219 155.195312 48.339844 164.609375 C 52.828125 171.777344 63.488281 173.695312 75.5 169.5 C 88.304688 165.027344 96.640625 168.015625 107.191406 171.800781 C 116.597656 175.175781 128.019531 179.273438 146.066406 179.273438 C 148.566406 179.273438 151.195312 179.195312 153.964844 179.023438 C 162.871094 178.476562 170.085938 174.996094 175.402344 168.683594 C 180.121094 163.082031 183.125 155.367188 184.09375 146.375 C 185.414062 134.082031 182.855469 120.464844 177.078125 109.019531 C 170.792969 96.578125 161.355469 88.027344 150.503906 84.949219 Z M 183.21875 146.277344 C 181.152344 165.511719 170.46875 177.125 153.910156 178.144531 C 131.351562 179.53125 118.121094 174.785156 107.488281 170.972656 C 100.605469 168.503906 94.652344 166.367188 87.804688 166.367188 C 83.988281 166.367188 79.898438 167.03125 75.210938 168.667969 C 63.601562 172.722656 53.347656 170.945312 49.085938 164.140625 C 43.425781 155.097656 49.527344 140.195312 65.414062 124.273438 C 76.699219 112.960938 76.765625 100.433594 76.832031 88.324219 C 76.894531 76.585938 76.953125 65.496094 88.054688 57.429688 C 95.742188 51.84375 100.398438 55.757812 108.851562 62.867188 C 117.3125 69.984375 128.898438 79.730469 150.265625 85.796875 C 173.167969 92.296875 185.792969 122.320312 183.21875 146.277344 Z M 147.496094 87.625 C 128.136719 82.128906 117.625 73.285156 109.945312 66.828125 C 102.15625 60.277344 97.457031 56.324219 89.894531 61.816406 C 79.402344 69.445312 79.347656 79.789062 79.289062 90.742188 C 79.230469 101.644531 79.171875 112.921875 69.09375 123.019531 C 54.277344 137.871094 48.652344 151.886719 54.050781 160.511719 C 58.164062 167.082031 67.925781 168.839844 78.925781 165 C 90.621094 160.914062 98.234375 163.644531 107.875 167.105469 C 116.476562 170.1875 126.921875 173.9375 143.425781 173.9375 C 145.714844 173.9375 148.121094 173.863281 150.652344 173.707031 C 158.808594 173.207031 165.410156 170.019531 170.277344 164.242188 C 174.597656 159.113281 177.347656 152.050781 178.234375 143.824219 C 180.625 121.574219 168.84375 93.683594 147.496094 87.625 Z M 177.359375 143.726562 C 175.46875 161.289062 165.714844 171.898438 150.597656 172.828125 C 129.984375 174.097656 117.886719 169.757812 108.167969 166.273438 C 101.875 164.015625 96.429688 162.0625 90.164062 162.0625 C 86.671875 162.0625 82.925781 162.667969 78.636719 164.167969 C 68.039062 167.867188 58.679688 166.25 54.796875 160.042969 C 49.628906 151.792969 55.210938 138.183594 69.71875 123.640625 C 80.046875 113.285156 80.109375 101.828125 80.167969 90.746094 C 80.222656 80.023438 80.277344 69.894531 90.414062 62.53125 C 97.417969 57.441406 101.667969 61.015625 109.382812 67.503906 C 117.121094 74.011719 127.714844 82.925781 147.257812 88.472656 C 168.175781 94.410156 179.710938 121.839844 177.359375 143.726562 Z M 144.488281 90.300781 C 126.953125 85.324219 117.429688 77.3125 110.476562 71.460938 C 103.402344 65.511719 99.132812 61.921875 92.253906 66.921875 C 82.726562 73.84375 82.675781 83.230469 82.625 93.164062 C 82.570312 103.039062 82.515625 113.246094 73.398438 122.386719 C 59.957031 135.859375 54.855469 148.582031 59.757812 156.414062 C 63.496094 162.382812 72.363281 163.984375 82.351562 160.496094 C 92.933594 156.800781 99.828125 159.273438 108.554688 162.40625 C 116.351562 165.203125 125.824219 168.597656 140.789062 168.597656 C 142.863281 168.597656 145.042969 168.53125 147.339844 168.390625 C 154.742188 167.9375 160.734375 165.046875 165.152344 159.800781 C 169.074219 155.144531 171.570312 148.738281 172.371094 141.273438 C 174.542969 121.09375 163.855469 95.796875 144.488281 90.300781 Z M 171.496094 141.179688 C 169.789062 157.070312 160.964844 166.671875 147.285156 167.511719 C 128.613281 168.660156 117.65625 164.730469 108.851562 161.574219 C 103.144531 159.527344 98.203125 157.757812 92.519531 157.757812 C 89.355469 157.757812 85.953125 158.304688 82.0625 159.667969 C 72.476562 163.015625 64.015625 161.554688 60.503906 155.945312 C 55.835938 148.484375 60.886719 136.171875 74.019531 123.011719 C 83.394531 113.613281 83.449219 103.222656 83.503906 93.171875 C 83.554688 83.464844 83.605469 74.296875 92.769531 67.636719 C 99.09375 63.039062 102.933594 66.273438 109.910156 72.140625 C 116.925781 78.039062 126.53125 86.121094 144.25 91.148438 C 163.1875 96.523438 173.628906 121.359375 171.496094 141.179688 Z M 141.480469 92.976562 C 125.769531 88.515625 117.234375 81.339844 111.003906 76.097656 C 104.644531 70.75 100.808594 67.519531 94.613281 72.023438 C 86.050781 78.242188 86.007812 86.667969 85.960938 95.585938 C 85.914062 104.429688 85.867188 113.570312 77.703125 121.753906 C 65.636719 133.851562 61.0625 145.273438 65.46875 152.316406 C 68.832031 157.6875 76.804688 159.128906 85.777344 155.996094 C 95.25 152.6875 101.421875 154.902344 109.238281 157.707031 C 116.234375 160.214844 124.730469 163.261719 138.148438 163.261719 C 140.011719 163.261719 141.96875 163.203125 144.027344 163.074219 C 156.550781 162.304688 164.957031 153.203125 166.511719 138.722656 C 168.457031 120.613281 158.863281 97.910156 141.480469 92.976562 Z M 165.636719 138.628906 C 164.109375 152.851562 156.210938 161.445312 143.972656 162.195312 C 127.238281 163.226562 117.421875 159.703125 109.535156 156.875 C 104.414062 155.039062 99.980469 153.449219 94.878906 153.449219 C 92.035156 153.449219 88.980469 153.945312 85.488281 155.164062 C 76.914062 158.160156 69.347656 156.855469 66.214844 151.847656 C 62.039062 145.179688 66.566406 134.164062 78.324219 122.375 C 86.742188 113.941406 86.792969 104.613281 86.839844 95.59375 C 86.886719 86.902344 86.929688 78.695312 95.128906 72.738281 C 100.765625 68.640625 104.203125 71.527344 110.4375 76.773438 C 116.730469 82.0625 125.347656 89.3125 141.242188 93.824219 C 158.199219 98.636719 167.546875 120.878906 165.636719 138.628906 Z M 138.472656 95.652344 C 124.585938 91.710938 117.042969 85.363281 111.53125 80.730469 C 105.890625 75.984375 102.484375 73.121094 96.972656 77.125 C 89.378906 82.644531 89.339844 90.109375 89.296875 98.011719 C 89.253906 105.824219 89.210938 113.898438 82.007812 121.121094 C 71.316406 131.839844 67.265625 141.96875 71.179688 148.21875 C 74.164062 152.992188 81.238281 154.277344 89.199219 151.496094 C 97.5625 148.574219 103.015625 150.53125 109.921875 153.007812 C 116.113281 155.226562 123.632812 157.925781 135.511719 157.925781 C 137.160156 157.925781 138.890625 157.871094 140.714844 157.761719 C 151.816406 157.078125 159.269531 149.007812 160.652344 136.171875 C 162.375 120.132812 153.875 100.023438 138.472656 95.652344 Z M 159.777344 136.078125 C 158.425781 148.632812 151.460938 156.214844 140.660156 156.878906 C 125.871094 157.789062 117.191406 154.679688 110.21875 152.175781 C 105.679688 150.550781 101.757812 149.140625 97.238281 149.140625 C 94.71875 149.140625 92.011719 149.582031 88.914062 150.664062 C 81.351562 153.304688 74.683594 152.160156 71.921875 147.75 C 68.246094 141.875 72.246094 132.152344 82.628906 121.742188 C 90.089844 114.265625 90.132812 106.003906 90.175781 98.015625 C 90.21875 90.34375 90.253906 83.09375 97.488281 77.839844 C 102.445312 74.234375 105.472656 76.785156 110.96875 81.40625 C 116.539062 86.089844 124.164062 92.507812 138.234375 96.5 C 153.207031 100.75 161.460938 120.398438 159.777344 136.078125 Z M 135.464844 98.328125 C 123.402344 94.90625 116.847656 89.390625 112.0625 85.367188 C 107.304688 81.363281 104.160156 78.71875 99.328125 82.226562 C 92.703125 87.042969 92.667969 93.546875 92.632812 100.433594 C 92.597656 107.214844 92.558594 114.226562 86.3125 120.488281 C 76.992188 129.828125 73.472656 138.664062 76.886719 144.121094 C 79.5 148.292969 85.675781 149.421875 92.625 146.996094 C 99.878906 144.460938 104.613281 146.160156 110.605469 148.308594 C 115.992188 150.242188 122.535156 152.589844 132.875 152.585938 C 134.308594 152.585938 135.816406 152.542969 137.402344 152.445312 C 147.085938 151.847656 153.585938 144.8125 154.789062 133.621094 C 156.292969 119.652344 148.882812 102.136719 135.464844 98.328125 Z M 153.914062 133.527344 C 152.746094 144.414062 146.707031 150.988281 137.347656 151.566406 C 124.5 152.359375 116.960938 149.652344 110.902344 147.480469 C 106.949219 146.0625 103.53125 144.835938 99.597656 144.835938 C 97.398438 144.835938 95.039062 145.21875 92.335938 146.160156 C 85.789062 148.449219 80.019531 147.464844 77.632812 143.652344 C 74.449219 138.566406 77.925781 130.140625 86.933594 121.113281 C 93.4375 114.59375 93.476562 107.398438 93.511719 100.441406 C 93.546875 93.78125 93.582031 87.496094 99.84375 82.941406 C 104.121094 79.835938 106.738281 82.042969 111.496094 86.042969 C 116.34375 90.117188 122.980469 95.703125 135.226562 99.179688 C 148.21875 102.863281 155.378906 119.917969 153.914062 133.527344 Z M 132.457031 101.003906 C 122.21875 98.097656 116.652344 93.417969 112.589844 90 C 108.523438 86.578125 105.835938 84.316406 101.6875 87.332031 C 96.03125 91.441406 96 96.988281 95.96875 102.859375 C 95.9375 108.605469 95.90625 114.554688 90.617188 119.855469 C 82.675781 127.816406 79.675781 135.359375 82.597656 140.023438 C 84.832031 143.597656 90.113281 144.566406 96.050781 142.492188 C 102.191406 140.347656 106.207031 141.789062 111.289062 143.609375 C 115.871094 145.253906 121.4375 147.25 130.234375 147.25 C 131.457031 147.25 132.738281 147.210938 134.089844 147.128906 C 142.355469 146.621094 147.902344 140.617188 148.929688 131.074219 C 150.207031 119.171875 143.894531 104.25 132.457031 101.003906 Z M 148.054688 130.976562 C 147.066406 140.195312 141.953125 145.761719 134.035156 146.25 C 123.132812 146.921875 116.726562 144.625 111.582031 142.78125 C 108.21875 141.574219 105.308594 140.527344 101.953125 140.527344 C 100.082031 140.527344 98.066406 140.855469 95.761719 141.660156 C 90.230469 143.59375 85.351562 142.769531 83.34375 139.554688 C 80.652344 135.261719 83.605469 128.128906 91.238281 120.480469 C 96.785156 114.917969 96.820312 108.515625 96.847656 102.863281 C 96.878906 97.222656 96.90625 91.894531 102.203125 88.042969 C 105.792969 85.433594 107.875 87.1875 112.027344 90.675781 C 116.148438 94.144531 121.796875 98.894531 132.21875 101.851562 C 143.226562 104.980469 149.296875 119.4375 148.054688 130.976562 Z M 148.054688 130.976562 " fill-opacity="1" fill-rule="nonzero"/></svg>