<svg xmlns="http://www.w3.org/2000/svg" xmlns:xlink="http://www.w3.org/1999/xlink" width="305" zoomAndPan="magnify" viewBox="0 0 228.75 228.749994" height="305" preserveAspectRatio="xMidYMid meet" version="1.0"><defs><clipPath id="70fcd99da0"><path d="M 0 6 L 224 6 L 224 226 L 0 226 Z M 0 6 " clip-rule="nonzero"/></clipPath><clipPath id="f01e17b2c6"><path d="M -40.003906 150.019531 L 64.003906 -47.804688 L 243.242188 46.429688 L 139.234375 244.253906 Z M -40.003906 150.019531 " clip-rule="nonzero"/></clipPath><clipPath id="949c33ec87"><path d="M -40.003906 150.019531 L 64.003906 -47.804688 L 243.242188 46.429688 L 139.234375 244.253906 Z M -40.003906 150.019531 " clip-rule="nonzero"/></clipPath></defs><g clip-path="url(#70fcd99da0)"><g clip-path="url(#f01e17b2c6)"><g clip-path="url(#949c33ec87)"><path fill="#dd9bcf" d="M 138.855469 6.367188 C 117.027344 6.023438 98.296875 12.890625 86.117188 25.703125 C 62.199219 50.855469 40.289062 59.816406 24.292969 66.359375 C 8.234375 72.925781 -1.457031 76.890625 0.808594 92.554688 C 3.976562 114.480469 19.597656 122.800781 36.136719 131.609375 C 52.734375 140.445312 69.894531 149.585938 77.226562 173.140625 C 82.890625 191.34375 90.023438 205.214844 98.425781 214.375 C 105.847656 222.464844 113.953125 226.421875 121.871094 225.820312 C 135 224.820312 145.382812 211.457031 148.328125 191.78125 C 151.496094 170.585938 161.789062 161.132812 174.816406 149.167969 C 186.378906 138.546875 200.425781 125.652344 213.621094 100.546875 C 215.449219 97.070312 217.265625 93.351562 219.054688 89.378906 C 224.785156 76.636719 225.226562 64.113281 220.371094 52.160156 C 216.054688 41.539062 207.558594 31.753906 195.804688 23.859375 C 179.71875 13.058594 158.960938 6.683594 138.855469 6.367188 Z M 195.320312 24.578125 C 220.296875 41.34375 228.871094 65.4375 218.265625 89.023438 C 203.652344 121.503906 187.339844 136.492188 174.230469 148.53125 C 165.777344 156.296875 158.46875 163.007812 153.46875 172.519531 C 150.6875 177.808594 148.621094 183.96875 147.46875 191.652344 C 144.589844 210.914062 134.515625 223.988281 121.804688 224.957031 C 104.953125 226.238281 88.597656 206.773438 78.050781 172.882812 C 70.617188 148.988281 53.292969 139.765625 36.542969 130.84375 C 20.203125 122.144531 4.773438 113.925781 1.664062 92.433594 C -0.503906 77.4375 8.417969 73.785156 24.621094 67.160156 C 40.691406 60.585938 62.699219 51.585938 86.742188 26.296875 C 98.757812 13.664062 117.261719 6.890625 138.84375 7.230469 C 158.785156 7.542969 179.371094 13.867188 195.320312 24.578125 Z M 87.066406 29.542969 C 64.433594 53.34375 43.699219 61.824219 28.5625 68.015625 C 13.355469 74.234375 4.175781 77.988281 6.320312 92.832031 C 9.324219 113.597656 24.113281 121.472656 39.769531 129.8125 C 55.472656 138.171875 71.710938 146.820312 78.648438 169.105469 C 88.753906 201.578125 104.558594 220.222656 120.921875 218.976562 C 133.359375 218.027344 143.195312 205.375 145.980469 186.742188 C 148.980469 166.691406 158.71875 157.75 171.046875 146.429688 C 181.992188 136.375 195.285156 124.167969 207.777344 100.40625 C 209.507812 97.113281 211.226562 93.59375 212.917969 89.832031 C 218.34375 77.769531 218.761719 65.910156 214.164062 54.589844 C 210.078125 44.535156 202.035156 35.269531 190.90625 27.796875 C 175.675781 17.570312 156.027344 11.535156 136.996094 11.234375 C 116.332031 10.910156 98.597656 17.410156 87.066406 29.542969 Z M 190.421875 28.511719 C 214.046875 44.375 222.164062 67.167969 212.128906 89.476562 C 198.300781 120.21875 182.863281 134.398438 170.460938 145.789062 C 162.460938 153.140625 155.539062 159.496094 150.804688 168.496094 C 148.171875 173.507812 146.214844 179.335938 145.125 186.613281 C 142.402344 204.835938 132.875 217.199219 120.855469 218.113281 C 104.921875 219.328125 89.449219 200.910156 79.472656 168.847656 C 72.433594 146.226562 56.035156 137.492188 40.175781 129.046875 C 24.71875 120.816406 10.117188 113.039062 7.179688 92.710938 C 5.128906 78.535156 13.570312 75.082031 28.890625 68.816406 C 44.101562 62.59375 64.933594 54.074219 87.691406 30.140625 C 99.058594 18.1875 116.5625 11.777344 136.984375 12.101562 C 155.851562 12.398438 175.332031 18.378906 190.421875 28.511719 Z M 88.015625 33.382812 C 66.667969 55.832031 47.113281 63.832031 32.832031 69.675781 C 18.472656 75.546875 9.808594 79.089844 11.835938 93.113281 C 14.667969 112.710938 28.625 120.144531 43.402344 128.015625 C 58.214844 135.902344 73.527344 144.054688 80.066406 165.066406 C 89.605469 195.714844 104.523438 213.3125 119.976562 212.132812 C 131.71875 211.238281 141.003906 199.296875 143.636719 181.707031 C 146.464844 162.796875 155.648438 154.363281 167.273438 143.6875 C 177.601562 134.203125 190.144531 122.679688 201.929688 100.261719 C 203.566406 97.15625 205.183594 93.835938 206.78125 90.289062 C 211.90625 78.898438 212.300781 67.707031 207.957031 57.023438 C 204.101562 47.53125 196.511719 38.785156 186.007812 31.734375 C 171.636719 22.085938 153.097656 16.386719 135.136719 16.105469 C 115.636719 15.796875 98.898438 21.933594 88.015625 33.382812 Z M 185.523438 32.449219 C 208.132812 47.632812 215.59375 68.582031 205.992188 89.933594 C 192.953125 118.929688 178.386719 132.304688 166.6875 143.050781 C 159.140625 149.984375 152.609375 155.980469 148.140625 164.476562 C 145.65625 169.203125 143.808594 174.707031 142.78125 181.578125 C 140.210938 198.753906 131.234375 210.410156 119.90625 211.273438 C 104.886719 212.414062 90.300781 195.046875 80.890625 164.8125 C 74.246094 143.460938 58.773438 135.21875 43.808594 127.25 C 29.230469 119.488281 15.460938 112.15625 12.691406 92.988281 C 10.761719 79.636719 18.714844 76.382812 33.160156 70.472656 C 47.511719 64.605469 67.167969 56.5625 88.640625 33.980469 C 99.359375 22.707031 115.867188 16.667969 135.125 16.96875 C 152.917969 17.25 171.289062 22.894531 185.523438 32.449219 Z M 88.964844 37.226562 C 68.902344 58.324219 50.523438 65.839844 37.101562 71.332031 C 23.59375 76.855469 15.441406 80.1875 17.347656 93.390625 C 20.015625 111.828125 33.140625 118.816406 47.035156 126.214844 C 60.953125 133.628906 75.34375 141.292969 81.488281 161.03125 C 90.457031 189.851562 104.488281 206.398438 119.027344 205.292969 C 130.078125 204.449219 138.816406 193.214844 141.292969 176.667969 C 143.949219 158.902344 152.578125 150.976562 163.503906 140.945312 C 173.210938 132.027344 185.003906 121.195312 196.085938 100.121094 C 197.621094 97.199219 199.144531 94.082031 200.644531 90.742188 C 205.464844 80.03125 205.835938 69.503906 201.753906 59.453125 C 198.125 50.527344 190.988281 42.300781 181.109375 35.667969 C 167.597656 26.597656 150.164062 21.242188 133.277344 20.976562 C 114.9375 20.6875 99.199219 26.457031 88.964844 37.226562 Z M 180.628906 36.386719 C 201.867188 50.648438 208.878906 70.332031 199.855469 90.386719 C 187.601562 117.640625 173.914062 130.207031 162.917969 140.308594 C 155.820312 146.828125 149.679688 152.464844 145.480469 160.457031 C 143.140625 164.902344 141.402344 170.078125 140.4375 176.539062 C 138.023438 192.671875 129.59375 203.621094 118.960938 204.429688 C 104.855469 205.503906 91.152344 189.183594 82.3125 160.773438 C 76.0625 140.695312 61.515625 132.945312 47.441406 125.453125 C 33.746094 118.160156 20.808594 111.269531 18.207031 93.265625 C 16.394531 80.734375 23.867188 77.679688 37.429688 72.132812 C 50.921875 66.613281 69.402344 59.054688 89.589844 37.820312 C 111.308594 14.980469 154.195312 18.640625 180.628906 36.386719 Z M 89.914062 41.066406 C 71.136719 60.8125 53.933594 67.851562 41.371094 72.988281 C 28.714844 78.164062 21.074219 81.289062 22.863281 93.667969 C 25.359375 110.941406 37.652344 117.488281 50.667969 124.417969 C 63.691406 131.355469 77.160156 138.527344 82.90625 156.996094 C 91.308594 183.988281 104.457031 199.488281 118.078125 198.449219 C 128.4375 197.660156 136.628906 187.132812 138.949219 171.628906 C 141.433594 155.007812 149.507812 147.59375 159.734375 138.203125 C 168.824219 129.855469 179.867188 119.710938 190.238281 99.980469 C 191.679688 97.242188 193.105469 94.320312 194.511719 91.195312 C 199.023438 81.160156 199.371094 71.300781 195.546875 61.882812 C 192.148438 53.519531 185.460938 45.816406 176.210938 39.605469 C 163.558594 31.109375 147.230469 26.09375 131.417969 25.84375 C 114.242188 25.574219 99.5 30.980469 89.914062 41.066406 Z M 175.730469 40.324219 C 195.601562 53.667969 202.160156 72.082031 193.722656 90.84375 C 182.25 116.34375 169.441406 128.113281 159.148438 137.566406 C 152.5 143.671875 146.75 148.953125 142.816406 156.433594 C 140.625 160.601562 139 165.449219 138.09375 171.5 C 135.835938 186.589844 127.953125 196.828125 118.011719 197.585938 C 104.820312 198.589844 92.007812 183.320312 83.734375 156.738281 C 77.878906 137.929688 64.253906 130.675781 51.074219 123.65625 C 38.261719 116.832031 26.15625 110.386719 23.71875 93.542969 C 22.027344 81.835938 29.015625 78.976562 41.699219 73.789062 C 54.332031 68.621094 71.636719 61.542969 90.539062 41.664062 C 110.859375 20.292969 150.992188 23.714844 175.730469 40.324219 Z M 90.863281 44.90625 C 73.371094 63.304688 57.34375 69.859375 45.640625 74.644531 C 33.832031 79.476562 26.707031 82.390625 28.378906 93.945312 C 30.707031 110.058594 42.167969 116.160156 54.300781 122.621094 C 66.429688 129.082031 78.972656 135.761719 84.328125 152.960938 C 92.160156 178.128906 104.421875 192.574219 117.128906 191.605469 C 126.796875 190.871094 134.441406 181.050781 136.605469 166.589844 C 138.917969 151.113281 146.441406 144.207031 155.960938 135.460938 C 164.433594 127.679688 174.726562 118.230469 184.394531 99.835938 C 185.734375 97.289062 187.0625 94.566406 188.375 91.652344 C 192.582031 82.292969 192.910156 73.097656 189.339844 64.316406 C 186.171875 56.515625 179.9375 49.335938 171.3125 43.542969 C 159.519531 35.625 144.300781 30.949219 129.558594 30.714844 C 113.546875 30.464844 99.804688 35.503906 90.863281 44.90625 Z M 170.832031 44.261719 C 189.335938 56.683594 195.441406 73.828125 187.585938 91.296875 C 176.894531 115.058594 164.964844 126.019531 155.375 134.824219 C 149.179688 140.515625 143.820312 145.441406 140.152344 152.414062 C 138.109375 156.296875 136.59375 160.820312 135.75 166.460938 C 133.648438 180.507812 126.3125 190.039062 117.066406 190.746094 C 104.789062 191.679688 92.859375 177.460938 85.152344 152.703125 C 79.695312 135.167969 66.992188 128.402344 54.707031 121.859375 C 42.773438 115.503906 31.5 109.5 29.234375 93.824219 C 27.660156 82.9375 34.164062 80.273438 45.96875 75.445312 C 57.746094 70.628906 73.871094 64.035156 91.488281 45.503906 C 110.414062 25.601562 147.792969 28.792969 170.832031 44.261719 Z M 91.8125 48.75 C 75.605469 65.792969 60.753906 71.867188 49.910156 76.300781 C 38.953125 80.785156 32.339844 83.488281 33.890625 94.226562 C 36.054688 109.171875 46.683594 114.832031 57.933594 120.824219 C 69.171875 126.808594 80.789062 132.996094 85.746094 148.925781 C 93.011719 172.265625 104.390625 185.664062 116.183594 184.765625 C 125.15625 184.082031 132.253906 174.972656 134.261719 161.550781 C 136.40625 147.21875 143.371094 140.820312 152.191406 132.722656 C 160.042969 125.507812 169.585938 116.746094 178.550781 99.695312 C 179.792969 97.332031 181.023438 94.808594 182.238281 92.105469 C 186.144531 83.425781 186.445312 74.894531 183.132812 66.746094 C 180.195312 59.511719 174.414062 52.851562 166.414062 47.480469 C 155.476562 40.136719 141.367188 35.800781 127.699219 35.585938 C 112.847656 35.351562 100.105469 40.027344 91.8125 48.75 Z M 165.933594 48.195312 C 183.066406 59.703125 188.722656 75.578125 181.449219 91.75 C 171.546875 113.765625 160.488281 123.921875 151.605469 132.082031 C 145.859375 137.359375 140.890625 141.925781 137.488281 148.394531 C 135.59375 151.996094 134.1875 156.1875 133.40625 161.421875 C 131.457031 174.425781 124.671875 183.25 116.117188 183.902344 C 104.753906 184.769531 93.710938 171.597656 86.574219 148.667969 C 81.511719 132.402344 69.734375 126.128906 58.34375 120.0625 C 47.289062 114.175781 36.847656 108.613281 34.75 94.101562 C 33.292969 84.035156 39.3125 81.574219 50.238281 77.101562 C 61.15625 72.636719 76.105469 66.523438 92.4375 49.34375 C 109.964844 30.910156 144.589844 33.867188 165.933594 48.195312 Z M 92.761719 52.589844 C 77.839844 68.28125 64.164062 73.875 54.179688 77.960938 C 44.074219 82.09375 37.972656 84.589844 39.40625 94.503906 C 41.398438 108.285156 51.195312 113.503906 61.570312 119.027344 C 71.910156 124.535156 82.605469 130.230469 87.167969 144.886719 C 93.863281 166.402344 104.355469 178.75 115.234375 177.921875 C 123.515625 177.292969 130.066406 168.886719 131.917969 156.511719 C 133.890625 143.324219 140.300781 137.433594 148.417969 129.980469 C 155.65625 123.332031 164.445312 115.261719 172.703125 99.550781 C 173.847656 97.375 174.984375 95.050781 176.101562 92.5625 C 179.703125 84.554688 179.980469 76.6875 176.929688 69.175781 C 174.21875 62.507812 168.890625 56.367188 161.515625 51.414062 C 151.4375 44.648438 138.433594 40.652344 125.839844 40.457031 C 112.152344 40.242188 100.40625 44.550781 92.761719 52.589844 Z M 161.035156 52.132812 C 176.800781 62.71875 182.007812 77.328125 175.3125 92.207031 C 166.195312 112.476562 156.015625 121.828125 147.832031 129.34375 C 142.539062 134.207031 137.960938 138.410156 134.824219 144.371094 C 133.078125 147.691406 131.78125 151.558594 131.058594 156.386719 C 129.269531 168.347656 123.03125 176.460938 115.167969 177.058594 C 104.71875 177.855469 94.558594 165.734375 87.992188 144.632812 C 83.328125 129.636719 72.472656 123.855469 61.976562 118.265625 C 51.800781 112.847656 42.191406 107.730469 40.261719 94.378906 C 38.925781 85.132812 44.460938 82.871094 54.507812 78.761719 C 64.566406 74.644531 78.339844 69.011719 93.386719 53.1875 C 109.519531 36.21875 141.390625 38.945312 161.035156 52.132812 Z M 93.710938 56.429688 C 80.074219 70.773438 67.574219 75.882812 58.449219 79.617188 C 49.191406 83.402344 43.605469 85.6875 44.917969 94.78125 C 46.746094 107.402344 55.710938 112.175781 65.203125 117.230469 C 74.652344 122.265625 84.421875 127.46875 88.589844 140.851562 C 94.714844 160.539062 104.320312 171.839844 114.285156 171.082031 C 121.878906 170.5 127.875 162.808594 129.570312 151.476562 C 131.375 139.429688 137.230469 134.050781 144.648438 127.238281 C 151.265625 121.160156 159.304688 113.777344 166.859375 99.410156 C 167.90625 97.417969 168.945312 95.292969 169.96875 93.015625 C 173.261719 85.6875 173.515625 78.484375 170.722656 71.605469 C 168.242188 65.503906 163.363281 59.882812 156.617188 55.351562 C 138.375 43.105469 108.746094 40.617188 93.710938 56.429688 Z M 156.136719 56.070312 C 170.535156 65.738281 175.289062 79.074219 169.175781 92.660156 C 160.84375 111.1875 151.539062 119.734375 144.0625 126.601562 C 139.21875 131.050781 135.027344 134.898438 132.160156 140.351562 C 130.5625 143.390625 129.375 146.929688 128.714844 151.347656 C 127.082031 162.261719 121.394531 169.671875 114.21875 170.21875 C 104.6875 170.945312 95.414062 159.871094 89.414062 140.59375 C 85.144531 126.871094 75.210938 121.582031 65.609375 116.46875 C 56.316406 111.519531 47.539062 106.84375 45.777344 94.65625 C 44.558594 86.234375 49.609375 84.167969 58.777344 80.417969 C 67.976562 76.652344 80.570312 71.503906 94.335938 57.027344 C 109.074219 41.527344 138.1875 44.019531 156.136719 56.070312 Z M 94.660156 60.273438 C 82.308594 73.261719 70.984375 77.894531 62.71875 81.273438 C 54.3125 84.710938 49.238281 86.789062 50.433594 95.058594 C 52.089844 106.519531 60.222656 110.847656 68.835938 115.433594 C 77.390625 119.992188 86.238281 124.703125 90.007812 136.816406 C 95.566406 154.675781 104.289062 164.929688 113.339844 164.238281 C 120.234375 163.714844 125.6875 156.726562 127.226562 146.4375 C 128.855469 135.535156 134.160156 130.664062 140.878906 124.496094 C 146.875 118.988281 154.164062 112.296875 161.011719 99.269531 C 161.960938 97.464844 162.902344 95.535156 163.832031 93.472656 C 166.824219 86.820312 167.050781 80.28125 164.515625 74.039062 C 162.265625 68.5 157.839844 63.398438 151.71875 59.289062 C 135.175781 48.179688 108.300781 45.925781 94.660156 60.273438 Z M 151.238281 60.007812 C 164.269531 68.753906 168.570312 80.824219 163.042969 93.117188 C 155.496094 109.894531 147.066406 117.640625 140.292969 123.859375 C 135.898438 127.894531 132.101562 131.382812 129.5 136.332031 C 128.050781 139.089844 126.972656 142.300781 126.371094 146.308594 C 124.894531 156.183594 119.753906 162.882812 113.273438 163.375 C 104.652344 164.03125 96.265625 154.007812 90.835938 136.5625 C 86.960938 124.109375 77.953125 119.3125 69.242188 114.671875 C 60.828125 110.191406 52.882812 105.960938 51.289062 94.9375 C 50.191406 87.335938 54.757812 85.464844 63.050781 82.074219 C 71.386719 78.664062 82.808594 73.992188 95.285156 60.867188 C 108.625 46.839844 134.984375 49.09375 151.238281 60.007812 Z M 95.609375 64.113281 C 84.539062 75.753906 74.398438 79.902344 66.988281 82.929688 C 59.433594 86.023438 54.871094 87.886719 55.949219 95.339844 C 57.4375 105.632812 64.738281 109.519531 72.46875 113.636719 C 80.128906 117.71875 88.054688 121.9375 91.429688 132.78125 C 96.417969 148.8125 104.253906 158.015625 112.390625 157.394531 C 118.597656 156.921875 123.5 150.644531 124.882812 141.398438 C 126.339844 131.640625 131.09375 127.277344 137.105469 121.753906 C 142.488281 116.8125 149.023438 110.808594 155.167969 99.125 C 156.019531 97.507812 156.863281 95.777344 157.695312 93.925781 C 162.757812 82.671875 158.691406 71.195312 146.820312 63.226562 C 131.972656 53.257812 107.851562 51.234375 95.609375 64.113281 Z M 146.339844 63.945312 C 158 71.773438 161.851562 82.574219 156.90625 93.570312 C 150.140625 108.605469 142.589844 115.542969 136.519531 121.117188 C 132.578125 124.738281 129.167969 127.871094 126.835938 132.3125 C 125.53125 134.785156 124.566406 137.671875 124.027344 141.269531 C 122.707031 150.101562 118.113281 156.09375 112.324219 156.535156 C 104.617188 157.121094 97.117188 148.144531 92.253906 132.523438 C 88.773438 121.34375 80.691406 117.039062 72.875 112.875 C 65.34375 108.863281 58.230469 105.074219 56.804688 95.214844 C 55.824219 88.433594 59.90625 86.761719 67.320312 83.730469 C 74.796875 80.671875 85.039062 76.480469 96.234375 64.707031 C 108.179688 52.148438 131.785156 54.171875 146.339844 63.945312 Z M 96.558594 67.953125 C 86.773438 78.242188 77.808594 81.910156 71.261719 84.589844 C 64.550781 87.332031 60.503906 88.988281 61.460938 95.617188 C 62.78125 104.746094 69.25 108.191406 76.101562 111.839844 C 82.871094 115.445312 89.871094 119.175781 92.847656 128.746094 C 97.269531 142.949219 104.21875 151.105469 111.441406 150.554688 C 116.957031 150.132812 121.3125 144.5625 122.539062 136.363281 C 123.828125 127.75 128.023438 123.894531 133.335938 119.015625 C 138.097656 114.640625 143.882812 109.328125 149.320312 98.984375 C 150.074219 97.550781 150.824219 96.019531 151.558594 94.378906 C 156.046875 84.402344 152.445312 74.226562 141.921875 67.164062 C 128.773438 58.332031 107.40625 56.542969 96.558594 67.953125 Z M 141.441406 67.878906 C 151.734375 74.792969 155.136719 84.320312 150.769531 94.023438 C 144.792969 107.316406 138.113281 113.449219 132.75 118.378906 C 129.257812 121.582031 126.238281 124.355469 124.171875 128.289062 C 123.015625 130.484375 122.160156 133.039062 121.683594 136.234375 C 120.515625 144.019531 116.472656 149.300781 111.375 149.691406 C 104.585938 150.207031 97.96875 142.28125 93.675781 128.488281 C 90.589844 118.578125 83.429688 114.765625 76.507812 111.078125 C 69.855469 107.535156 63.574219 104.191406 62.316406 95.492188 C 61.453125 89.53125 65.054688 88.058594 71.589844 85.386719 C 78.207031 82.679688 87.273438 78.972656 97.183594 68.550781 C 107.730469 57.457031 128.582031 59.246094 141.441406 67.878906 Z M 97.507812 71.796875 C 89.007812 80.730469 81.21875 83.917969 75.53125 86.246094 C 69.875 88.558594 66.136719 90.089844 66.976562 95.894531 C 68.128906 103.863281 73.765625 106.863281 79.734375 110.042969 C 85.609375 113.171875 91.683594 116.40625 94.269531 124.707031 C 98.121094 137.089844 104.1875 144.191406 110.496094 143.710938 C 115.316406 143.34375 119.125 138.480469 120.195312 131.324219 C 121.3125 123.851562 124.953125 120.507812 129.566406 116.273438 C 133.710938 112.464844 138.742188 107.84375 143.476562 98.84375 C 144.132812 97.59375 144.78125 96.261719 145.421875 94.835938 C 149.339844 86.132812 146.199219 77.257812 137.023438 71.097656 C 125.570312 63.410156 106.957031 61.855469 97.507812 71.796875 Z M 136.542969 71.816406 C 145.46875 77.808594 148.417969 86.070312 144.632812 94.480469 C 139.441406 106.027344 133.640625 111.355469 128.980469 115.636719 C 125.9375 118.429688 123.308594 120.84375 121.507812 124.269531 C 120.503906 126.183594 119.753906 128.410156 119.339844 131.195312 C 118.332031 137.9375 114.832031 142.511719 110.429688 142.847656 C 104.550781 143.296875 98.820312 136.417969 95.09375 124.453125 C 92.40625 115.8125 86.171875 112.492188 80.140625 109.28125 C 74.371094 106.207031 68.921875 103.304688 67.832031 95.773438 C 67.089844 90.632812 70.203125 89.359375 75.859375 87.046875 C 81.621094 84.691406 89.507812 81.464844 98.132812 72.390625 C 107.285156 62.765625 125.382812 64.324219 136.542969 71.816406 Z M 98.453125 75.636719 C 91.242188 83.222656 84.628906 85.925781 79.800781 87.902344 C 74.964844 89.882812 71.769531 91.1875 72.488281 96.171875 C 73.472656 102.976562 78.277344 105.539062 83.367188 108.246094 C 88.347656 110.898438 93.5 113.644531 95.6875 120.671875 C 98.972656 131.222656 104.152344 137.28125 109.546875 136.867188 C 113.675781 136.554688 116.933594 132.398438 117.847656 126.285156 C 118.792969 119.957031 121.882812 117.121094 125.792969 113.53125 C 129.320312 110.292969 133.601562 106.359375 137.628906 98.699219 C 138.1875 97.636719 138.742188 96.503906 139.289062 95.289062 C 142.628906 87.863281 139.953125 80.289062 132.125 75.035156 C 122.371094 68.484375 106.511719 67.164062 98.453125 75.636719 Z M 131.644531 75.753906 C 139.199219 80.828125 141.699219 87.820312 138.5 94.933594 C 134.09375 104.734375 129.164062 109.261719 125.207031 112.894531 C 122.617188 115.273438 120.378906 117.328125 118.84375 120.25 C 117.988281 121.878906 117.347656 123.78125 116.992188 126.15625 C 116.140625 131.855469 113.191406 135.722656 109.480469 136.007812 C 104.515625 136.382812 99.671875 130.554688 96.515625 120.414062 C 94.222656 113.046875 88.671875 110.089844 83.773438 107.484375 C 78.882812 104.878906 74.265625 102.421875 73.34375 96.050781 C 72.722656 91.734375 75.195312 90.71875 80.128906 88.703125 C 85.03125 86.699219 91.742188 83.953125 99.082031 76.230469 C 106.839844 68.074219 122.179688 69.398438 131.644531 75.753906 Z M 131.644531 75.753906 " fill-opacity="1" fill-rule="nonzero"/></g></g></g></svg>