<svg xmlns="http://www.w3.org/2000/svg" xmlns:xlink="http://www.w3.org/1999/xlink" width="387" zoomAndPan="magnify" viewBox="0 0 290.25 478.499994" height="638" preserveAspectRatio="xMidYMid meet" version="1.0"><path fill="#dd9bcf" d="M 272.515625 200.183594 C 259.75 174.996094 240.589844 157.691406 218.554688 151.457031 C 175.300781 139.222656 151.820312 119.542969 134.675781 105.167969 C 117.464844 90.746094 107.078125 82.039062 90.484375 94.054688 C 67.257812 110.875 67.132812 133.757812 67.007812 157.984375 C 66.875 182.296875 66.742188 207.433594 44.15625 229.996094 C 26.703125 247.429688 15.09375 263.9375 9.660156 279.066406 C 4.859375 292.425781 5.207031 304.085938 10.671875 312.78125 C 19.730469 327.203125 41.304688 331.046875 65.640625 322.578125 C 91.851562 313.453125 108.894531 319.546875 130.464844 327.253906 C 149.613281 334.097656 172.863281 342.414062 209.601562 342.410156 C 214.691406 342.410156 220.046875 342.25 225.679688 341.90625 C 243.742188 340.796875 258.367188 333.773438 269.144531 321.019531 C 278.71875 309.691406 284.820312 294.082031 286.785156 275.878906 C 289.472656 250.96875 284.269531 223.378906 272.515625 200.183594 Z M 285.671875 275.757812 C 281.5 314.429688 259.046875 338.738281 225.613281 340.789062 C 179.5625 343.609375 152.546875 333.960938 130.839844 326.203125 C 116.847656 321.199219 104.746094 316.875 90.828125 316.875 C 83.082031 316.875 74.777344 318.214844 65.273438 321.523438 C 41.449219 329.816406 20.390625 326.148438 11.617188 312.1875 C -0.0078125 293.675781 12.449219 263.246094 44.949219 230.785156 C 67.859375 207.902344 67.996094 182.527344 68.125 157.988281 C 68.253906 134.054688 68.375 111.449219 91.140625 94.960938 C 107.027344 83.457031 116.589844 91.472656 133.953125 106.027344 C 151.175781 120.464844 174.765625 140.234375 218.25 152.535156 C 239.976562 158.683594 258.894531 175.78125 271.515625 200.6875 C 283.175781 223.695312 288.335938 251.058594 285.671875 275.757812 Z M 214.722656 154.855469 C 173.792969 143.277344 151.574219 124.652344 135.347656 111.054688 C 119.050781 97.394531 109.214844 89.148438 93.488281 100.535156 C 71.492188 116.460938 71.378906 138.125 71.257812 161.0625 C 71.132812 184.0625 71.007812 207.851562 49.640625 229.191406 C 18.5 260.296875 6.648438 289.601562 17.945312 307.582031 C 26.527344 321.242188 46.960938 324.886719 70.003906 316.863281 C 94.800781 308.234375 110.921875 313.996094 131.335938 321.289062 C 149.457031 327.769531 171.46875 335.636719 206.238281 335.636719 C 211.058594 335.636719 216.128906 335.484375 221.460938 335.15625 C 238.5625 334.109375 252.410156 327.453125 262.617188 315.382812 C 271.683594 304.652344 277.460938 289.875 279.316406 272.640625 C 281.863281 249.0625 276.9375 222.945312 265.808594 200.984375 C 253.726562 177.140625 235.582031 160.757812 214.722656 154.855469 Z M 278.203125 272.519531 C 274.257812 309.101562 253.019531 332.101562 221.390625 334.039062 C 177.8125 336.714844 152.25 327.578125 131.710938 320.238281 C 118.464844 315.503906 107.007812 311.40625 93.832031 311.40625 C 86.5 311.40625 78.636719 312.675781 69.636719 315.808594 C 47.101562 323.652344 27.1875 320.1875 18.890625 306.984375 C 7.894531 289.480469 19.683594 260.695312 50.433594 229.984375 C 72.125 208.316406 72.253906 184.296875 72.375 161.066406 C 72.496094 138.421875 72.609375 117.035156 94.148438 101.4375 C 109.164062 90.566406 118.207031 98.148438 134.628906 111.910156 C 150.929688 125.574219 173.257812 144.289062 214.417969 155.933594 C 234.972656 161.746094 252.871094 177.925781 264.808594 201.488281 C 275.84375 223.261719 280.726562 249.152344 278.203125 272.519531 Z M 210.890625 158.253906 C 172.285156 147.332031 151.324219 129.765625 136.019531 116.9375 C 120.636719 104.039062 111.347656 96.253906 96.492188 107.011719 C 75.730469 122.046875 75.621094 142.492188 75.507812 164.136719 C 75.390625 185.832031 75.273438 208.265625 55.121094 228.390625 C 25.734375 257.746094 14.554688 285.402344 25.21875 302.378906 C 33.320312 315.28125 52.613281 318.722656 74.367188 311.152344 C 97.75 303.011719 112.957031 308.445312 132.203125 315.328125 C 149.304688 321.4375 170.074219 328.863281 202.878906 328.863281 C 207.429688 328.863281 212.207031 328.71875 217.242188 328.410156 C 233.386719 327.421875 246.457031 321.140625 256.089844 309.742188 C 264.648438 299.617188 270.097656 285.667969 271.851562 269.40625 C 274.253906 247.15625 269.605469 222.507812 259.105469 201.789062 C 247.703125 179.28125 230.578125 163.824219 210.890625 158.253906 Z M 270.738281 269.285156 C 266.960938 304.292969 247.4375 325.4375 217.171875 327.292969 C 176.066406 329.816406 151.953125 321.195312 132.582031 314.273438 C 120.082031 309.804688 109.269531 305.9375 96.835938 305.9375 C 89.917969 305.9375 82.492188 307.136719 74 310.09375 C 52.757812 317.488281 33.980469 314.226562 26.164062 301.785156 C 15.800781 285.28125 26.921875 258.140625 55.914062 229.179688 C 76.390625 208.730469 76.507812 186.0625 76.625 164.140625 C 76.738281 142.789062 76.847656 122.621094 97.152344 107.914062 C 111.296875 97.671875 119.824219 104.820312 135.300781 117.792969 C 150.683594 130.6875 171.75 148.34375 210.585938 159.328125 C 229.96875 164.8125 246.847656 180.070312 258.105469 202.292969 C 268.511719 222.824219 273.117188 247.242188 270.738281 269.285156 Z M 207.058594 161.652344 C 170.777344 151.386719 151.078125 134.875 136.695312 122.820312 C 122.21875 110.6875 113.484375 103.363281 99.5 113.488281 C 79.964844 127.632812 79.863281 146.859375 79.757812 167.210938 C 79.648438 187.597656 79.535156 208.675781 60.605469 227.585938 C 32.96875 255.191406 22.457031 281.207031 32.492188 297.175781 C 40.117188 309.316406 58.265625 312.558594 78.730469 305.4375 C 100.699219 297.789062 114.988281 302.894531 133.074219 309.359375 C 149.148438 315.105469 168.675781 322.085938 199.519531 322.085938 C 203.792969 322.085938 208.289062 321.953125 213.019531 321.660156 C 228.207031 320.730469 240.5 314.820312 249.5625 304.101562 C 257.609375 294.578125 262.738281 281.460938 264.386719 266.167969 C 266.644531 245.246094 262.273438 222.074219 252.402344 202.589844 C 241.679688 181.425781 225.574219 166.890625 207.058594 161.652344 Z M 263.273438 266.046875 C 259.726562 298.9375 241.382812 318.800781 212.953125 320.542969 C 174.320312 322.914062 151.660156 314.816406 133.453125 308.308594 C 121.695312 304.105469 111.53125 300.472656 99.839844 300.472656 C 93.332031 300.472656 86.351562 301.597656 78.363281 304.378906 C 58.410156 311.324219 40.777344 308.261719 33.441406 296.582031 C 23.703125 281.085938 34.15625 255.589844 61.398438 228.378906 C 80.65625 209.144531 80.765625 187.832031 80.878906 167.21875 C 80.984375 147.15625 81.085938 128.207031 100.15625 114.394531 C 113.429688 104.78125 121.4375 111.492188 135.976562 123.679688 C 150.4375 135.800781 170.242188 152.398438 206.753906 162.726562 C 246.03125 173.835938 267.6875 225.121094 263.273438 266.046875 Z M 203.226562 165.046875 C 169.269531 155.441406 150.832031 139.988281 137.371094 128.703125 C 123.804688 117.332031 115.617188 110.472656 102.503906 119.964844 C 84.203125 133.21875 84.109375 151.226562 84.007812 170.289062 C 83.90625 189.367188 83.800781 209.09375 66.089844 226.78125 C 40.203125 252.636719 30.363281 277.007812 39.765625 291.976562 C 46.910156 303.355469 63.921875 306.398438 83.09375 299.722656 C 103.648438 292.566406 117.019531 297.34375 133.945312 303.394531 C 148.996094 308.773438 167.28125 315.3125 196.160156 315.308594 C 200.164062 315.308594 204.371094 315.183594 208.800781 314.914062 C 223.027344 314.039062 234.546875 308.503906 243.035156 298.460938 C 250.574219 289.542969 255.375 277.253906 256.921875 262.929688 C 259.035156 243.335938 254.945312 221.636719 245.699219 203.390625 C 235.652344 183.570312 220.570312 169.953125 203.226562 165.046875 Z M 255.808594 262.8125 C 252.488281 293.582031 235.328125 312.164062 208.734375 313.796875 C 172.578125 316.015625 151.363281 308.433594 134.320312 302.34375 C 123.3125 298.410156 113.792969 295.007812 102.84375 295.007812 C 96.75 295.007812 90.210938 296.0625 82.726562 298.667969 C 64.0625 305.164062 47.574219 302.304688 40.710938 291.382812 C 31.609375 276.886719 41.390625 253.035156 66.882812 227.574219 C 84.917969 209.558594 85.023438 189.597656 85.128906 170.296875 C 85.226562 151.523438 85.320312 133.792969 103.160156 120.871094 C 115.566406 111.890625 123.054688 118.164062 136.648438 129.5625 C 150.191406 140.910156 168.734375 156.453125 202.921875 166.125 C 239.671875 176.519531 259.9375 224.511719 255.808594 262.8125 Z M 199.394531 168.445312 C 167.761719 159.496094 150.585938 145.101562 138.042969 134.585938 C 125.386719 123.980469 117.75 117.578125 105.507812 126.445312 C 88.441406 138.804688 88.351562 155.589844 88.257812 173.367188 C 88.164062 191.132812 88.066406 209.507812 71.574219 225.980469 C 47.4375 250.085938 38.265625 272.8125 47.035156 286.773438 C 53.707031 297.390625 69.574219 300.234375 87.457031 294.007812 C 106.59375 287.34375 119.046875 291.796875 134.8125 297.429688 C 148.839844 302.445312 165.882812 308.535156 192.796875 308.535156 C 196.527344 308.535156 200.453125 308.417969 204.582031 308.164062 C 217.847656 307.351562 228.589844 302.1875 236.507812 292.824219 C 243.535156 284.503906 248.011719 273.050781 249.453125 259.695312 C 251.425781 241.429688 247.609375 221.203125 238.992188 204.191406 C 229.628906 185.714844 215.566406 173.019531 199.394531 168.445312 Z M 248.339844 259.574219 C 245.25 288.226562 229.273438 305.53125 204.511719 307.046875 C 170.824219 309.113281 151.066406 302.050781 135.191406 296.378906 C 124.929688 292.710938 116.054688 289.539062 105.847656 289.539062 C 100.164062 289.539062 94.066406 290.523438 87.089844 292.953125 C 69.71875 299 54.367188 296.339844 47.984375 286.179688 C 39.511719 272.691406 48.625 250.484375 72.363281 226.769531 C 89.179688 209.972656 89.28125 191.367188 89.378906 173.371094 C 89.46875 155.890625 89.558594 139.375 106.164062 127.351562 C 117.699219 118.996094 124.667969 124.839844 137.324219 135.445312 C 149.941406 146.023438 167.226562 160.507812 199.089844 169.523438 C 233.316406 179.203125 252.1875 223.902344 248.339844 259.574219 Z M 195.5625 171.84375 C 166.253906 163.550781 150.339844 150.210938 138.71875 140.472656 C 126.972656 130.628906 119.882812 124.6875 108.511719 132.921875 C 92.679688 144.390625 92.59375 159.957031 92.507812 176.441406 C 92.417969 192.902344 92.328125 209.921875 77.054688 225.179688 C 54.675781 247.535156 46.171875 268.617188 54.308594 281.574219 C 60.503906 291.429688 75.226562 294.070312 91.820312 288.292969 C 109.546875 282.125 121.082031 286.246094 135.683594 291.464844 C 148.6875 296.113281 164.484375 301.761719 189.4375 301.761719 C 192.894531 301.761719 196.53125 301.652344 200.359375 301.417969 C 212.667969 300.664062 222.632812 295.875 229.976562 287.183594 C 236.5 279.46875 240.652344 268.84375 241.988281 256.457031 C 243.816406 239.523438 240.277344 220.765625 232.285156 204.996094 C 223.605469 187.859375 210.5625 176.085938 195.5625 171.84375 Z M 240.875 256.335938 C 238.011719 282.871094 223.222656 298.894531 200.292969 300.300781 C 169.082031 302.210938 150.773438 295.671875 136.0625 290.414062 C 126.546875 287.011719 118.320312 284.070312 108.851562 284.070312 C 103.582031 284.070312 97.925781 284.984375 91.453125 287.238281 C 75.371094 292.832031 61.164062 290.375 55.257812 280.976562 C 47.417969 268.492188 55.863281 247.929688 77.847656 225.96875 C 93.445312 210.386719 93.539062 193.132812 93.628906 176.449219 C 93.714844 160.257812 93.796875 144.960938 109.171875 133.828125 C 119.835938 126.105469 126.285156 131.511719 137.996094 141.328125 C 149.695312 151.136719 165.71875 164.5625 195.257812 172.921875 C 226.960938 181.886719 244.4375 223.292969 240.875 256.335938 Z M 191.730469 175.242188 C 164.746094 167.605469 150.089844 155.324219 139.390625 146.355469 C 128.558594 137.273438 122.019531 131.792969 111.515625 139.398438 C 96.914062 149.972656 96.839844 164.324219 96.757812 179.519531 C 96.675781 194.667969 96.59375 210.335938 82.539062 224.375 C 61.910156 244.980469 54.074219 264.417969 61.582031 276.371094 C 67.300781 285.46875 80.882812 287.90625 96.183594 282.578125 C 112.496094 276.902344 123.113281 280.695312 136.554688 285.5 C 148.535156 289.78125 163.089844 294.984375 186.078125 294.984375 C 189.265625 294.984375 192.613281 294.886719 196.140625 294.667969 C 207.488281 293.972656 216.675781 289.554688 223.449219 281.542969 C 229.460938 274.429688 233.292969 264.636719 234.523438 253.21875 C 236.207031 237.613281 232.949219 220.328125 225.582031 205.796875 C 217.582031 190.003906 205.558594 179.152344 191.730469 175.242188 Z M 233.410156 253.097656 C 230.777344 277.511719 217.167969 292.257812 196.070312 293.550781 C 167.335938 295.3125 150.476562 289.289062 136.929688 284.449219 C 128.164062 281.3125 120.582031 278.601562 111.859375 278.601562 C 107 278.601562 101.785156 279.445312 95.816406 281.523438 C 81.023438 286.671875 67.960938 284.414062 62.53125 275.773438 C 55.320312 264.296875 63.097656 245.375 83.332031 225.164062 C 97.710938 210.800781 97.796875 194.902344 97.878906 179.523438 C 97.957031 164.625 98.03125 150.546875 112.175781 140.304688 C 121.96875 133.214844 127.902344 138.183594 138.671875 147.210938 C 149.449219 156.246094 164.210938 168.617188 191.425781 176.316406 C 220.605469 184.570312 236.691406 222.683594 233.410156 253.097656 Z M 187.902344 178.636719 C 163.238281 171.660156 149.84375 160.433594 140.066406 152.238281 C 130.144531 143.921875 124.152344 138.902344 114.523438 145.878906 C 101.152344 155.558594 101.082031 168.691406 101.007812 182.59375 C 100.933594 196.4375 100.859375 210.75 88.023438 223.570312 C 69.144531 242.425781 61.980469 260.222656 68.855469 271.167969 C 74.097656 279.507812 86.535156 281.742188 100.546875 276.867188 C 115.445312 271.679688 125.144531 275.148438 137.425781 279.535156 C 148.382812 283.453125 161.691406 288.210938 182.714844 288.210938 C 185.632812 288.210938 188.695312 288.117188 191.921875 287.921875 C 202.308594 287.285156 210.722656 283.238281 216.921875 275.902344 C 222.425781 269.394531 225.929688 260.429688 227.058594 249.980469 C 230.101562 221.738281 215.097656 186.332031 187.902344 178.636719 Z M 225.941406 249.863281 C 223.539062 272.15625 211.113281 285.621094 191.851562 286.804688 C 165.589844 288.414062 150.179688 282.90625 137.800781 278.480469 C 129.78125 275.617188 122.84375 273.136719 114.863281 273.136719 C 110.414062 273.136719 105.640625 273.90625 100.179688 275.808594 C 86.679688 280.507812 74.753906 278.453125 69.808594 270.574219 C 63.226562 260.097656 70.332031 242.824219 88.816406 224.363281 C 101.976562 211.214844 102.054688 196.667969 102.128906 182.601562 C 102.199219 168.988281 102.269531 156.132812 115.179688 146.78125 C 124.105469 140.320312 129.515625 144.855469 139.34375 153.09375 C 149.203125 161.355469 162.703125 172.671875 187.597656 179.714844 C 214.246094 187.253906 228.941406 222.070312 225.941406 249.863281 Z M 184.066406 182.035156 C 161.730469 175.714844 149.597656 165.546875 140.738281 158.121094 C 131.726562 150.566406 126.289062 146.011719 117.527344 152.355469 C 105.386719 161.144531 105.324219 173.058594 105.257812 185.671875 C 105.191406 198.207031 105.121094 211.164062 93.503906 222.769531 C 76.378906 239.875 69.882812 256.023438 76.128906 265.964844 C 80.890625 273.542969 92.1875 275.578125 104.910156 271.152344 C 118.390625 266.457031 127.175781 269.597656 138.292969 273.570312 C 148.226562 277.121094 160.292969 281.433594 179.355469 281.433594 C 181.996094 281.433594 184.777344 281.351562 187.699219 281.171875 C 197.128906 280.59375 204.765625 276.921875 210.394531 270.261719 C 215.386719 264.355469 218.566406 256.222656 219.589844 246.746094 C 222.355469 221.128906 208.738281 189.015625 184.066406 182.035156 Z M 218.476562 246.625 C 216.300781 266.800781 205.058594 278.988281 187.632812 280.054688 C 163.847656 281.515625 149.886719 276.527344 138.671875 272.519531 C 131.398438 269.917969 125.105469 267.667969 117.867188 267.667969 C 113.832031 267.667969 109.5 268.367188 104.542969 270.09375 C 92.332031 274.34375 81.550781 272.492188 77.078125 265.371094 C 71.128906 255.902344 77.566406 240.269531 94.296875 223.558594 C 106.238281 211.632812 106.308594 198.4375 106.378906 185.679688 C 106.445312 173.355469 106.503906 161.71875 118.183594 153.261719 C 126.238281 147.429688 131.132812 151.53125 140.019531 158.980469 C 148.953125 166.46875 161.191406 176.730469 183.761719 183.113281 C 207.890625 189.9375 221.191406 221.460938 218.476562 246.625 Z M 180.238281 185.433594 C 160.222656 179.769531 149.351562 170.65625 141.414062 164.003906 C 133.3125 157.214844 128.421875 153.117188 120.53125 158.832031 C 109.625 166.730469 109.570312 177.425781 109.507812 188.746094 C 109.449219 199.972656 109.386719 211.578125 98.988281 221.964844 C 83.613281 237.320312 77.789062 251.824219 83.402344 260.765625 C 87.6875 267.582031 97.84375 269.414062 109.273438 265.4375 C 121.339844 261.234375 129.207031 264.046875 139.164062 267.605469 C 148.074219 270.789062 158.898438 274.660156 175.996094 274.660156 C 178.367188 274.660156 180.859375 274.585938 183.480469 274.421875 C 199.433594 273.445312 210.140625 261.886719 212.125 243.507812 C 214.605469 220.519531 202.382812 191.699219 180.238281 185.433594 Z M 211.011719 243.386719 C 209.0625 261.445312 199.003906 272.351562 183.414062 273.308594 C 162.097656 274.613281 149.589844 270.144531 139.539062 266.550781 C 133.015625 264.21875 127.367188 262.203125 120.871094 262.203125 C 117.246094 262.203125 113.359375 262.832031 108.90625 264.378906 C 97.984375 268.179688 88.347656 266.527344 84.351562 260.171875 C 79.035156 251.703125 84.800781 237.71875 99.78125 222.753906 C 110.503906 212.046875 110.566406 200.203125 110.628906 188.753906 C 110.6875 177.722656 110.742188 167.304688 121.1875 159.738281 C 128.371094 154.539062 132.746094 158.203125 140.691406 164.863281 C 148.707031 171.578125 159.6875 180.78125 179.933594 186.507812 C 201.535156 192.621094 213.441406 220.851562 211.011719 243.386719 Z M 176.40625 188.832031 C 158.714844 183.824219 149.101562 175.769531 142.085938 169.886719 C 134.898438 163.863281 130.558594 160.226562 123.535156 165.308594 C 113.863281 172.316406 113.8125 181.792969 113.757812 191.824219 C 113.707031 201.742188 113.648438 211.996094 104.472656 221.160156 C 90.851562 234.769531 85.691406 247.628906 90.675781 255.5625 C 94.480469 261.621094 103.496094 263.253906 113.636719 259.722656 C 124.289062 256.015625 131.238281 258.496094 140.03125 261.640625 C 147.917969 264.460938 157.496094 267.882812 172.632812 267.882812 C 174.730469 267.882812 176.9375 267.816406 179.261719 267.675781 C 193.40625 266.808594 202.902344 256.5625 204.660156 240.269531 C 206.855469 219.910156 196.027344 194.378906 176.40625 188.832031 Z M 203.546875 240.152344 C 201.824219 256.089844 192.949219 265.714844 179.191406 266.558594 C 160.351562 267.714844 149.292969 263.761719 140.410156 260.585938 C 134.632812 258.523438 129.628906 256.734375 123.875 256.734375 C 120.664062 256.734375 117.214844 257.292969 113.269531 258.664062 C 103.636719 262.015625 95.144531 260.566406 91.625 254.96875 C 86.9375 247.507812 92.039062 235.164062 105.265625 221.953125 C 114.769531 212.460938 114.824219 201.972656 114.878906 191.832031 C 114.929688 182.089844 114.980469 172.886719 124.195312 166.214844 C 130.507812 161.640625 134.363281 164.875 141.367188 170.746094 C 148.460938 176.691406 158.179688 184.835938 176.101562 189.90625 C 195.175781 195.304688 205.691406 220.242188 203.546875 240.152344 Z M 172.574219 192.226562 C 157.207031 187.878906 148.855469 180.882812 142.757812 175.773438 C 136.695312 170.691406 132.691406 167.332031 126.539062 171.789062 C 118.097656 177.902344 118.054688 186.160156 118.007812 194.902344 C 117.960938 203.507812 117.914062 212.410156 109.957031 220.359375 C 98.085938 232.214844 93.597656 243.433594 97.949219 250.363281 C 101.277344 255.660156 109.148438 257.089844 118 254.007812 C 127.238281 250.792969 133.269531 252.949219 140.902344 255.675781 C 147.765625 258.128906 156.101562 261.109375 169.273438 261.109375 C 171.101562 261.109375 173.019531 261.050781 175.042969 260.925781 C 187.378906 260.171875 195.660156 251.238281 197.191406 237.03125 C 199.105469 219.300781 189.667969 197.0625 172.574219 192.226562 Z M 196.078125 236.914062 C 194.589844 250.734375 186.894531 259.078125 174.972656 259.808594 C 158.605469 260.816406 149 257.382812 141.28125 254.621094 C 136.246094 252.824219 131.894531 251.265625 126.878906 251.265625 C 124.078125 251.265625 121.074219 251.753906 117.632812 252.953125 C 109.292969 255.855469 101.9375 254.605469 98.898438 249.765625 C 94.84375 243.308594 99.273438 232.613281 110.746094 221.148438 C 119.03125 212.875 119.082031 203.742188 119.128906 194.90625 C 119.171875 186.457031 119.214844 178.472656 127.195312 172.695312 C 132.640625 168.753906 135.980469 171.550781 142.039062 176.628906 C 148.214844 181.804688 156.667969 188.894531 172.269531 193.304688 C 188.820312 197.984375 197.941406 219.632812 196.078125 236.914062 Z M 168.742188 195.625 C 155.695312 191.933594 148.609375 185.992188 143.433594 181.65625 C 138.25 177.3125 134.828125 174.441406 129.542969 178.265625 C 122.335938 183.484375 122.296875 190.523438 122.257812 197.976562 C 122.21875 205.277344 122.179688 212.824219 115.4375 219.554688 C 105.320312 229.664062 101.5 239.234375 105.222656 245.160156 C 108.070312 249.695312 114.800781 250.925781 122.363281 248.292969 C 130.1875 245.566406 135.300781 247.398438 141.773438 249.710938 C 147.613281 251.796875 154.703125 254.332031 165.910156 254.332031 C 167.464844 254.332031 169.101562 254.285156 170.820312 254.179688 C 181.351562 253.53125 188.417969 245.914062 189.726562 233.796875 C 191.355469 218.691406 183.3125 199.746094 168.742188 195.625 Z M 188.613281 233.675781 C 187.351562 245.378906 180.839844 252.445312 170.753906 253.0625 C 156.863281 253.917969 148.703125 251 142.152344 248.660156 C 137.863281 247.125 134.15625 245.800781 129.882812 245.800781 C 127.496094 245.800781 124.933594 246.214844 121.996094 247.238281 C 114.945312 249.691406 108.734375 248.640625 106.171875 244.566406 C 102.746094 239.113281 106.507812 230.058594 116.230469 220.347656 C 123.296875 213.289062 123.339844 205.15625 123.378906 197.984375 C 123.417969 190.824219 123.453125 184.058594 130.203125 179.171875 C 134.773438 175.859375 137.429688 178.082031 142.714844 182.511719 C 147.96875 186.914062 155.160156 192.945312 168.4375 196.699219 C 182.464844 200.667969 190.195312 219.023438 188.613281 233.675781 Z M 188.613281 233.675781 " fill-opacity="1" fill-rule="nonzero"/></svg>