<svg xmlns="http://www.w3.org/2000/svg" xmlns:xlink="http://www.w3.org/1999/xlink" width="174" zoomAndPan="magnify" viewBox="0 0 130.5 239.249995" height="319" preserveAspectRatio="xMidYMid meet" version="1.0"><defs><filter x="0%" y="0%" width="100%" height="100%" id="9f2aaa6df6"><feColorMatrix values="0 0 0 0 1 0 0 0 0 1 0 0 0 0 1 0 0 0 1 0" color-interpolation-filters="sRGB"/></filter><mask id="5a9ddadbd0"><g filter="url(#9f2aaa6df6)"><rect x="-13.05" width="156.6" fill="#000000" y="-23.925" height="287.099994" fill-opacity="0.3"/></g></mask><clipPath id="d283cd8f81"><path d="M 41 0.460938 L 49 0.460938 L 49 130 L 41 130 Z M 41 0.460938 " clip-rule="nonzero"/></clipPath><clipPath id="05d714d0b4"><path d="M 74 116 L 100 116 L 100 160.210938 L 74 160.210938 Z M 74 116 " clip-rule="nonzero"/></clipPath><clipPath id="20f8c3928e"><path d="M 99 116 L 126 116 L 126 160.210938 L 99 160.210938 Z M 99 116 " clip-rule="nonzero"/></clipPath><clipPath id="3caaabf702"><path d="M 105 81 L 130 81 L 130 126 L 105 126 Z M 105 81 " clip-rule="nonzero"/></clipPath><clipPath id="932fa60fe5"><path d="M 79 71 L 130 71 L 130 92 L 79 92 Z M 79 71 " clip-rule="nonzero"/></clipPath><clipPath id="7109a542be"><rect x="0" width="130" y="0" height="161"/></clipPath></defs><g mask="url(#5a9ddadbd0)"><g transform="matrix(1, 0, 0, 1, 0, 41)"><g clip-path="url(#7109a542be)"><path fill="#c8a3d7" d="M 60.761719 46.542969 C 60.761719 50.5625 57.511719 53.824219 53.5 53.824219 L 36.507812 53.824219 C 32.496094 53.824219 29.246094 50.5625 29.246094 46.542969 L 29.246094 41.519531 C 29.246094 37.496094 31.902344 29.925781 43.601562 29.925781 L 46.410156 29.925781 C 59.085938 29.925781 60.761719 37.496094 60.761719 41.519531 L 60.761719 46.542969 " fill-opacity="1" fill-rule="nonzero"/><path fill="#a584ac" d="M 52.222656 39.675781 C 51.585938 39.675781 50.003906 39.359375 44.855469 39.359375 C 39.726562 39.359375 38.523438 38.972656 35.851562 38.3125 C 37.464844 37.808594 41.308594 34.964844 41.308594 30.042969 L 46.523438 29.925781 C 46.527344 29.925781 46.53125 29.925781 46.535156 29.925781 C 46.535156 38.480469 50.222656 38.480469 53.5 38.480469 C 52.597656 39.425781 52.785156 39.675781 52.222656 39.675781 " fill-opacity="1" fill-rule="nonzero"/><path fill="#f3615f" d="M 81.53125 123.25 C 81.53125 127.269531 78.277344 130.527344 74.265625 130.527344 L 15.742188 130.527344 C 11.730469 130.527344 8.480469 127.269531 8.480469 123.25 L 8.480469 118.222656 C 8.480469 114.203125 14.175781 106.628906 25.871094 106.628906 L 64.136719 106.628906 C 76.816406 106.628906 81.53125 114.203125 81.53125 118.222656 L 81.53125 123.25 " fill-opacity="1" fill-rule="nonzero"/><path fill="#ca5150" d="M 58.292969 116.957031 C 55.601562 116.957031 51.339844 116.066406 44.855469 116.066406 C 40.171875 116.066406 36.648438 115.742188 34.039062 115.183594 L 52.304688 115.183594 C 54.429688 116.089844 56.75 116.40625 58.550781 116.40625 C 59.746094 116.40625 60.707031 116.265625 61.226562 116.066406 C 60.585938 116.734375 59.636719 116.957031 58.292969 116.957031 " fill-opacity="1" fill-rule="nonzero"/><path fill="#c8a3d7" d="M 73.929688 92.566406 C 73.929688 96.585938 70.679688 99.84375 66.667969 99.84375 L 23.339844 99.84375 C 19.328125 99.84375 16.078125 96.585938 16.078125 92.566406 L 16.078125 87.539062 C 16.078125 83.519531 21.773438 75.945312 33.46875 75.945312 L 56.539062 75.945312 C 69.214844 75.945312 73.929688 83.519531 73.929688 87.539062 L 73.929688 92.566406 " fill-opacity="1" fill-rule="nonzero"/><path fill="#a584ac" d="M 55.046875 85.699219 C 53.042969 85.699219 50.003906 85.382812 44.855469 85.382812 C 40.183594 85.382812 38.765625 85.0625 36.53125 84.503906 L 58.691406 84.503906 C 57.789062 85.449219 56.828125 85.699219 55.046875 85.699219 " fill-opacity="1" fill-rule="nonzero"/><path fill="#fbc55c" d="M 76.464844 107.90625 C 76.464844 111.925781 73.214844 115.183594 69.203125 115.183594 L 20.804688 115.183594 C 16.796875 115.183594 13.546875 111.925781 13.546875 107.90625 L 13.546875 102.878906 C 13.546875 98.859375 19.242188 91.285156 30.9375 91.285156 L 59.070312 91.285156 C 71.75 91.285156 76.464844 98.859375 76.464844 102.878906 L 76.464844 107.90625 " fill-opacity="1" fill-rule="nonzero"/><path fill="#ce9f4e" d="M 58.292969 101.613281 C 55.601562 101.613281 51.339844 100.722656 44.855469 100.722656 C 39.726562 100.722656 35.988281 100.335938 33.320312 99.675781 C 34.929688 99.171875 37.917969 98.628906 38.863281 97.046875 C 39.84375 95.398438 40.117188 93.144531 40.109375 91.285156 L 46.535156 91.285156 C 46.535156 99.148438 54.128906 101.0625 58.550781 101.0625 C 59.746094 101.0625 60.707031 100.921875 61.226562 100.722656 C 60.585938 101.390625 59.636719 101.613281 58.292969 101.613281 " fill-opacity="1" fill-rule="nonzero"/><path fill="#f3615f" d="M 68.867188 77.226562 C 68.867188 81.246094 65.617188 84.503906 61.605469 84.503906 L 28.402344 84.503906 C 24.394531 84.503906 21.140625 81.246094 21.140625 77.226562 L 21.140625 72.199219 C 21.140625 68.179688 26.835938 60.605469 38.535156 60.605469 L 51.472656 60.605469 C 64.152344 60.605469 68.867188 68.179688 68.867188 72.199219 L 68.867188 77.226562 " fill-opacity="1" fill-rule="nonzero"/><path fill="#ca5150" d="M 55.046875 70.359375 C 53.042969 70.359375 50.003906 70.042969 44.855469 70.042969 C 40.183594 70.042969 38.765625 69.71875 36.53125 69.164062 L 56.539062 69.164062 C 56.726562 69.164062 56.914062 69.15625 57.097656 69.140625 C 57.707031 69.164062 58.25 69.164062 58.691406 69.164062 C 57.789062 70.109375 56.828125 70.359375 55.046875 70.359375 " fill-opacity="1" fill-rule="nonzero"/><path fill="#7dc4c1" d="M 63.800781 61.882812 C 63.800781 65.902344 60.550781 69.164062 56.539062 69.164062 L 33.46875 69.164062 C 29.460938 69.164062 26.207031 65.902344 26.207031 61.882812 L 26.207031 56.859375 C 26.207031 52.839844 31.902344 45.265625 43.601562 45.265625 L 46.410156 45.265625 C 59.085938 45.265625 63.800781 52.839844 63.800781 56.859375 L 63.800781 61.882812 " fill-opacity="1" fill-rule="nonzero"/><path fill="#a584ac" d="M 40.109375 45.503906 C 40.109375 45.421875 40.109375 45.34375 40.109375 45.265625 L 43.601562 45.265625 C 42.371094 45.265625 41.203125 45.347656 40.109375 45.503906 M 46.535156 45.265625 C 46.492188 45.265625 46.449219 45.265625 46.410156 45.265625 L 46.535156 45.265625 " fill-opacity="1" fill-rule="nonzero"/><path fill="#689f9b" d="M 55.042969 55.019531 C 53.042969 55.019531 50.003906 54.703125 44.855469 54.703125 C 39.726562 54.703125 38.523438 54.316406 35.851562 53.652344 C 37.464844 53.148438 37.917969 52.609375 38.863281 51.027344 C 39.804688 49.445312 40.089844 47.3125 40.109375 45.503906 C 41.203125 45.347656 42.371094 45.265625 43.601562 45.265625 L 46.410156 45.265625 C 46.449219 45.265625 46.492188 45.265625 46.535156 45.265625 C 46.535156 53.824219 55.417969 53.824219 58.691406 53.824219 C 57.789062 54.769531 56.828125 55.019531 55.042969 55.019531 " fill-opacity="1" fill-rule="nonzero"/><g clip-path="url(#d283cd8f81)"><path fill="#2e5580" d="M 48.453125 129.929688 L 48.453125 4.066406 C 48.453125 2.074219 46.84375 0.464844 44.859375 0.464844 L 44.855469 0.464844 C 42.871094 0.464844 41.261719 2.074219 41.261719 4.066406 L 41.261719 129.929688 L 48.453125 129.929688 " fill-opacity="1" fill-rule="nonzero"/></g><path fill="#4581be" d="M 89.703125 142.644531 L 89.703125 136.429688 C 89.703125 132.839844 86.796875 129.929688 83.214844 129.929688 L 6.5 129.929688 C 2.917969 129.929688 0.0117188 132.839844 0.0117188 136.429688 L 0.0117188 142.644531 L 89.703125 142.644531 " fill-opacity="1" fill-rule="nonzero"/><path fill="#fbc55c" d="M 76.464844 107.90625 C 76.464844 111.925781 73.214844 115.183594 69.203125 115.183594 L 20.804688 115.183594 C 16.796875 115.183594 13.546875 111.925781 13.546875 107.90625 L 13.546875 107.121094 C 13.546875 103.101562 16.796875 99.84375 20.804688 99.84375 L 69.203125 99.84375 C 73.214844 99.84375 76.464844 103.101562 76.464844 107.121094 L 76.464844 107.90625 " fill-opacity="1" fill-rule="nonzero"/><path fill="#f3615f" d="M 81.53125 123.25 C 81.53125 127.269531 78.277344 130.527344 74.265625 130.527344 L 15.742188 130.527344 C 11.730469 130.527344 8.480469 127.269531 8.480469 123.25 L 8.480469 122.464844 C 8.480469 118.445312 11.730469 115.1875 15.742188 115.1875 L 74.265625 115.1875 C 78.277344 115.1875 81.53125 118.445312 81.53125 122.464844 L 81.53125 123.25 " fill-opacity="1" fill-rule="nonzero"/><path fill="#c8a3d7" d="M 73.929688 92.566406 C 73.929688 96.585938 70.679688 99.84375 66.667969 99.84375 L 23.339844 99.84375 C 19.328125 99.84375 16.078125 96.585938 16.078125 92.566406 L 16.078125 91.78125 C 16.078125 87.761719 19.328125 84.503906 23.339844 84.503906 L 66.667969 84.503906 C 70.679688 84.503906 73.929688 87.761719 73.929688 91.78125 L 73.929688 92.566406 " fill-opacity="1" fill-rule="nonzero"/><path fill="#f3615f" d="M 68.867188 77.226562 C 68.867188 81.246094 65.617188 84.503906 61.605469 84.503906 L 28.402344 84.503906 C 24.394531 84.503906 21.140625 81.246094 21.140625 77.226562 L 21.140625 76.441406 C 21.140625 72.421875 24.394531 69.164062 28.402344 69.164062 L 61.605469 69.164062 C 65.617188 69.164062 68.867188 72.421875 68.867188 76.441406 L 68.867188 77.226562 " fill-opacity="1" fill-rule="nonzero"/><path fill="#7dc4c1" d="M 63.800781 61.882812 C 63.800781 65.902344 60.550781 69.164062 56.539062 69.164062 L 33.46875 69.164062 C 29.460938 69.164062 26.207031 65.902344 26.207031 61.882812 L 26.207031 61.101562 C 26.207031 57.082031 29.460938 53.824219 33.46875 53.824219 L 56.539062 53.824219 C 60.550781 53.824219 63.800781 57.082031 63.800781 61.101562 L 63.800781 61.882812 " fill-opacity="1" fill-rule="nonzero"/><path fill="#c8a3d7" d="M 60.761719 46.542969 C 60.761719 50.5625 57.511719 53.824219 53.5 53.824219 L 36.507812 53.824219 C 32.496094 53.824219 29.246094 50.5625 29.246094 46.542969 L 29.246094 45.757812 C 29.246094 41.742188 32.496094 38.480469 36.507812 38.480469 L 53.5 38.480469 C 57.511719 38.480469 60.761719 41.742188 60.761719 45.757812 L 60.761719 46.542969 " fill-opacity="1" fill-rule="nonzero"/><path fill="#f3615f" d="M 51.464844 155.808594 L 26.183594 146.0625 L 26.183594 112.144531 L 51.464844 121.894531 L 51.464844 155.808594 " fill-opacity="1" fill-rule="nonzero"/><path fill="#de5856" d="M 51.464844 155.808594 L 76.746094 146.0625 L 76.746094 112.144531 L 51.464844 121.894531 L 51.464844 155.808594 " fill-opacity="1" fill-rule="nonzero"/><path fill="#cd514f" d="M 51.464844 121.898438 L 76.746094 112.152344 L 51.464844 102.398438 L 26.183594 112.144531 L 51.464844 121.898438 " fill-opacity="1" fill-rule="nonzero"/><path fill="#f2f2f0" d="M 64.898438 141.167969 L 62.160156 142.164062 L 62.160156 136.261719 L 64.898438 135.265625 C 64.898438 135.265625 68.570312 133.460938 68.527344 136.894531 C 68.484375 140.324219 64.898438 141.167969 64.898438 141.167969 Z M 62.160156 128.667969 L 64.898438 127.667969 C 64.898438 127.667969 66.667969 126.863281 66.667969 128.886719 C 66.667969 130.550781 64.898438 131.222656 64.898438 131.222656 L 62.160156 132.222656 Z M 68.179688 132.164062 C 69.484375 131.371094 70.511719 129.878906 70.511719 128.292969 C 70.511719 123.878906 67.378906 123.292969 64.535156 124.128906 L 58.851562 126.097656 L 58.851562 146.722656 L 66.339844 143.671875 C 68.933594 142.414062 72.011719 140.839844 72.011719 135.214844 C 72.011719 132.539062 69.890625 131.414062 68.179688 132.164062 " fill-opacity="1" fill-rule="nonzero"/><path fill="#f2f2f0" d="M 37.882812 121.605469 C 37.550781 122.082031 36.679688 124.050781 35.984375 131.984375 C 37.878906 129.917969 39.710938 126.03125 38.492188 122.8125 C 38.222656 122.109375 38.011719 121.765625 37.882812 121.605469 Z M 35.457031 140.605469 C 36.507812 140.652344 37.1875 141.835938 37.84375 142.980469 C 38.101562 143.421875 38.449219 144.03125 38.636719 144.179688 L 38.640625 144.183594 C 38.925781 144.03125 39.21875 143.808594 39.511719 143.488281 C 40.765625 142.144531 41.628906 139.355469 41.289062 137.753906 C 41.046875 136.621094 40.476562 135.78125 39.796875 135.566406 C 38.890625 135.28125 37.835938 136.03125 37.105469 136.710938 C 36.289062 137.480469 35.796875 138.503906 35.511719 139.550781 C 35.496094 139.90625 35.476562 140.261719 35.457031 140.605469 Z M 35.335938 142.949219 C 35.460938 143.238281 35.707031 143.585938 36.09375 143.890625 C 36.25 144.011719 36.484375 144.167969 36.773438 144.285156 C 36.675781 144.121094 36.578125 143.949219 36.472656 143.769531 C 36.199219 143.292969 35.707031 142.4375 35.414062 142.21875 C 35.402344 142.234375 35.386719 142.246094 35.371094 142.265625 C 35.359375 142.507812 35.347656 142.738281 35.335938 142.949219 Z M 41.144531 146.722656 C 40.230469 146.722656 39.292969 146.457031 38.417969 145.945312 C 37.160156 146.226562 35.960938 145.796875 35.121094 145.136719 C 35.078125 145.105469 35.035156 145.066406 34.992188 145.03125 C 34.863281 145.148438 34.695312 145.222656 34.507812 145.230469 C 34.101562 145.246094 33.75 144.964844 33.6875 144.5625 C 33.664062 144.414062 33.332031 142.199219 33.824219 139.808594 C 32.921875 141.621094 31.671875 143.382812 30.003906 144.308594 C 29.621094 144.515625 29.140625 144.378906 28.929688 143.996094 C 28.71875 143.613281 28.855469 143.132812 29.238281 142.921875 C 32.664062 141.023438 34.136719 134.304688 34.261719 133.703125 C 34.59375 129.292969 35.015625 125.921875 35.519531 123.679688 C 36.082031 121.191406 36.730469 120.066406 37.691406 119.929688 C 39.015625 119.734375 39.707031 121.5625 39.96875 122.246094 C 41.792969 127.058594 38.332031 132.460938 35.804688 134.257812 C 35.78125 134.648438 35.75 135.207031 35.710938 135.871094 C 35.8125 135.765625 35.917969 135.65625 36.027344 135.554688 C 37.902344 133.800781 39.371094 133.769531 40.269531 134.054688 C 41.511719 134.449219 42.472656 135.707031 42.832031 137.425781 C 43.277344 139.515625 42.265625 142.855469 40.667969 144.570312 C 40.519531 144.730469 40.367188 144.875 40.214844 145.007812 C 40.761719 145.160156 41.308594 145.183594 41.816406 145.0625 C 42.652344 144.863281 43.320312 144.292969 43.707031 143.457031 C 43.890625 143.058594 44.359375 142.886719 44.757812 143.070312 C 45.152344 143.253906 45.324219 143.726562 45.140625 144.121094 C 44.546875 145.40625 43.5 146.289062 42.1875 146.601562 C 41.847656 146.683594 41.496094 146.722656 41.144531 146.722656 " fill-opacity="1" fill-rule="nonzero"/><path fill="#f2f2f0" d="M 50.828125 107.308594 C 47.152344 107.691406 43.101562 109.839844 41.964844 111.527344 L 43.460938 112.1875 L 52.347656 107.953125 L 50.828125 107.308594 " fill-opacity="1" fill-rule="nonzero"/><path fill="#f2f2f0" d="M 49.0625 114.441406 L 46.65625 112.082031 L 51.816406 109.5625 L 55.867188 110.921875 Z M 62.285156 113.074219 L 64.046875 112.210938 L 53.207031 108.886719 L 52.28125 108.503906 L 44.25 112.328125 L 45.246094 112.773438 L 51.015625 118.457031 L 52.515625 117.832031 L 50.441406 115.796875 L 58.347656 111.753906 L 62.285156 113.074219 " fill-opacity="1" fill-rule="nonzero"/><g clip-path="url(#05d714d0b4)"><path fill="#c8a3d7" d="M 99.78125 160.210938 L 74.5 150.460938 L 74.5 116.546875 L 99.78125 126.292969 L 99.78125 160.210938 " fill-opacity="1" fill-rule="nonzero"/></g><g clip-path="url(#20f8c3928e)"><path fill="#ba97c8" d="M 99.78125 160.210938 L 125.0625 150.460938 L 125.0625 116.546875 L 99.78125 126.292969 L 99.78125 160.210938 " fill-opacity="1" fill-rule="nonzero"/></g><path fill="#ab8ab6" d="M 99.78125 126.296875 L 125.0625 116.554688 L 99.78125 106.800781 L 74.5 116.546875 L 99.78125 126.296875 " fill-opacity="1" fill-rule="nonzero"/><path fill="#f2f2f0" d="M 82.53125 137 C 84.871094 138.609375 87.523438 137.199219 88.792969 136.023438 C 90.058594 134.851562 90.988281 133.042969 90.042969 131.835938 C 89.625 131.304688 89.148438 131.128906 88.492188 131.253906 C 86.351562 131.675781 83.472656 135.0625 82.53125 137 Z M 85.703125 147.652344 C 84.664062 147.652344 83.671875 147.410156 82.800781 146.9375 C 78.5 144.597656 79.753906 138.820312 80.253906 137.066406 C 80.253906 137.046875 80.261719 137.035156 80.265625 137.019531 C 80.945312 134.714844 84.6875 129.851562 88.085938 129.183594 C 89.515625 128.902344 90.796875 129.378906 91.699219 130.527344 C 93.21875 132.464844 92.613281 135.363281 90.222656 137.574219 C 88.109375 139.53125 84.8125 140.648438 81.949219 139.113281 C 81.628906 141.023438 81.59375 143.878906 83.804688 145.078125 C 84.78125 145.613281 86.023438 145.683594 87.300781 145.28125 C 88.703125 144.839844 89.921875 143.871094 90.484375 142.75 C 90.746094 142.230469 91.378906 142.019531 91.898438 142.28125 C 92.417969 142.542969 92.628906 143.175781 92.367188 143.699219 C 91.546875 145.335938 89.890625 146.679688 87.933594 147.296875 C 87.179688 147.53125 86.429688 147.652344 85.703125 147.652344 " fill-opacity="1" fill-rule="nonzero"/><path fill="#f2f2f0" d="M 118.15625 129.648438 L 118.15625 125.996094 L 106.6875 130.300781 L 106.6875 150.757812 L 118.15625 146.453125 L 118.15625 142.800781 L 110.148438 145.808594 L 110.148438 140.992188 L 114.421875 139.386719 L 114.421875 135.738281 L 110.148438 137.339844 L 110.148438 132.65625 L 118.15625 129.648438 " fill-opacity="1" fill-rule="nonzero"/><path fill="#89d7d3" d="M 105.207031 125.238281 L 79.925781 115.492188 L 79.925781 81.574219 L 105.207031 91.324219 L 105.207031 125.238281 " fill-opacity="1" fill-rule="nonzero"/><g clip-path="url(#3caaabf702)"><path fill="#7dc4c1" d="M 105.207031 125.238281 L 130.488281 115.492188 L 130.488281 81.574219 L 105.207031 91.324219 L 105.207031 125.238281 " fill-opacity="1" fill-rule="nonzero"/></g><g clip-path="url(#932fa60fe5)"><path fill="#74b5b2" d="M 105.207031 91.328125 L 130.488281 81.582031 L 105.207031 71.828125 L 79.925781 81.574219 L 105.207031 91.328125 " fill-opacity="1" fill-rule="nonzero"/></g><path fill="#f2f2f0" d="M 118.640625 110.597656 L 115.90625 111.59375 L 115.90625 105.691406 L 118.640625 104.695312 C 118.640625 104.695312 122.316406 102.890625 122.269531 106.324219 C 122.226562 109.757812 118.640625 110.597656 118.640625 110.597656 Z M 115.90625 98.097656 L 118.640625 97.097656 C 118.640625 97.097656 120.410156 96.292969 120.410156 98.316406 C 120.410156 99.980469 118.640625 100.652344 118.640625 100.652344 L 115.90625 101.652344 Z M 121.921875 101.59375 C 123.230469 100.800781 124.253906 99.308594 124.253906 97.722656 C 124.253906 93.308594 121.125 92.722656 118.28125 93.558594 L 112.597656 95.527344 L 112.597656 116.152344 L 120.085938 113.101562 C 122.675781 111.84375 125.753906 110.269531 125.753906 104.644531 C 125.753906 101.96875 123.632812 100.84375 121.921875 101.59375 " fill-opacity="1" fill-rule="nonzero"/><path fill="#f2f2f0" d="M 91.628906 91.035156 C 91.296875 91.511719 90.425781 93.480469 89.730469 101.414062 C 91.625 99.347656 93.457031 95.460938 92.234375 92.242188 C 91.96875 91.539062 91.753906 91.195312 91.628906 91.035156 Z M 89.199219 110.035156 C 90.253906 110.082031 90.933594 111.265625 91.585938 112.410156 C 91.84375 112.851562 92.191406 113.460938 92.378906 113.609375 L 92.382812 113.613281 C 92.667969 113.460938 92.960938 113.238281 93.257812 112.917969 C 94.507812 111.574219 95.371094 108.785156 95.03125 107.183594 C 94.792969 106.050781 94.21875 105.210938 93.539062 104.996094 C 92.632812 104.710938 91.578125 105.460938 90.847656 106.140625 C 90.03125 106.910156 89.542969 107.933594 89.253906 108.980469 C 89.238281 109.335938 89.21875 109.691406 89.199219 110.035156 Z M 89.078125 112.378906 C 89.203125 112.667969 89.449219 113.015625 89.839844 113.320312 C 89.996094 113.441406 90.226562 113.597656 90.519531 113.714844 C 90.421875 113.550781 90.320312 113.378906 90.21875 113.199219 C 89.945312 112.722656 89.453125 111.867188 89.15625 111.652344 C 89.144531 111.664062 89.128906 111.675781 89.113281 111.695312 C 89.101562 111.9375 89.089844 112.167969 89.078125 112.378906 Z M 94.886719 116.152344 C 93.976562 116.152344 93.039062 115.886719 92.164062 115.375 C 90.902344 115.65625 89.703125 115.226562 88.863281 114.566406 C 88.820312 114.535156 88.777344 114.5 88.734375 114.460938 C 88.605469 114.578125 88.4375 114.652344 88.253906 114.660156 C 87.847656 114.675781 87.492188 114.394531 87.429688 113.992188 C 87.40625 113.84375 87.074219 111.628906 87.566406 109.238281 C 86.664062 111.050781 85.414062 112.8125 83.746094 113.738281 C 83.367188 113.945312 82.882812 113.808594 82.675781 113.425781 C 82.460938 113.042969 82.601562 112.5625 82.984375 112.351562 C 86.40625 110.453125 87.878906 103.734375 88.003906 103.132812 C 88.335938 98.722656 88.757812 95.351562 89.265625 93.109375 C 89.824219 90.621094 90.472656 89.496094 91.433594 89.359375 C 92.757812 89.164062 93.453125 90.992188 93.710938 91.679688 C 95.535156 96.488281 92.074219 101.890625 89.550781 103.6875 C 89.523438 104.078125 89.492188 104.640625 89.453125 105.300781 C 89.554688 105.195312 89.660156 105.089844 89.773438 104.984375 C 91.644531 103.230469 93.113281 103.199219 94.015625 103.484375 C 95.253906 103.878906 96.214844 105.136719 96.578125 106.855469 C 97.019531 108.945312 96.007812 112.285156 94.414062 114 C 94.261719 114.160156 94.113281 114.304688 93.960938 114.4375 C 94.503906 114.589844 95.054688 114.613281 95.5625 114.492188 C 96.394531 114.292969 97.0625 113.722656 97.449219 112.886719 C 97.632812 112.488281 98.105469 112.316406 98.5 112.5 C 98.894531 112.683594 99.066406 113.15625 98.882812 113.550781 C 98.289062 114.835938 97.242188 115.71875 95.929688 116.03125 C 95.589844 116.113281 95.238281 116.152344 94.886719 116.152344 " fill-opacity="1" fill-rule="nonzero"/><path fill="#f2f2f0" d="M 104.570312 76.738281 C 100.898438 77.121094 96.84375 79.269531 95.707031 80.957031 L 97.203125 81.617188 L 106.089844 77.382812 L 104.570312 76.738281 " fill-opacity="1" fill-rule="nonzero"/><path fill="#f2f2f0" d="M 102.804688 83.871094 L 100.398438 81.511719 L 105.5625 78.992188 L 109.613281 80.351562 Z M 116.03125 82.503906 L 117.792969 81.640625 L 106.949219 78.316406 L 106.023438 77.933594 L 97.992188 81.761719 L 98.988281 82.203125 L 104.757812 87.890625 L 106.257812 87.261719 L 104.183594 85.226562 L 112.09375 81.183594 L 116.03125 82.503906 " fill-opacity="1" fill-rule="nonzero"/><path fill="#f1b44c" d="M 95.628906 93.238281 L 70.347656 83.488281 L 70.347656 49.574219 L 95.628906 59.320312 L 95.628906 93.238281 " fill-opacity="1" fill-rule="nonzero"/><path fill="#e6a448" d="M 95.628906 93.238281 L 120.910156 83.488281 L 120.910156 49.574219 L 95.628906 59.320312 L 95.628906 93.238281 " fill-opacity="1" fill-rule="nonzero"/><path fill="#d49742" d="M 95.628906 59.328125 L 120.910156 49.582031 L 95.628906 39.828125 L 70.347656 49.574219 L 95.628906 59.328125 " fill-opacity="1" fill-rule="nonzero"/><path fill="#f2f2f0" d="M 110.058594 73.089844 L 107.921875 73.945312 L 108.515625 68.25 L 108.949219 68.074219 Z M 110.070312 60.875 L 105.828125 62.605469 L 102.097656 84.710938 L 106.914062 82.847656 L 107.824219 76.800781 L 110.632812 75.621094 L 112.050781 80.960938 L 116.246094 79.257812 L 110.070312 60.875 " fill-opacity="1" fill-rule="nonzero"/><path fill="#f2f2f0" d="M 88.011719 51.867188 C 86.628906 48.300781 91.183594 46.574219 94.148438 48.464844 C 92.339844 45.515625 95.246094 43.460938 98.542969 45.039062 C 101.453125 46.429688 102.96875 49.363281 103.347656 53.335938 C 103.347656 53.335938 89.949219 56.855469 88.011719 51.867188 " fill-opacity="1" fill-rule="nonzero"/><path fill="#f2f2f0" d="M 85.738281 65.359375 C 83.085938 65.359375 80.433594 66.542969 78.394531 68.707031 C 76.195312 71.035156 75.230469 74.035156 75.871094 76.53125 C 76.078125 77.328125 76.585938 78.277344 77.824219 78.242188 C 80.097656 78.1875 84.382812 74.632812 86.535156 65.394531 C 86.269531 65.371094 86.003906 65.359375 85.738281 65.359375 Z M 88.894531 82.078125 C 88.84375 82.078125 88.792969 82.074219 88.742188 82.066406 C 87.742188 81.898438 86.9375 81.382812 86.347656 80.535156 C 85.304688 79.03125 85.085938 76.703125 85.273438 74.015625 C 82.976562 78.082031 80.167969 80.035156 77.867188 80.089844 C 76.011719 80.125 74.597656 78.976562 74.085938 76.996094 C 73.285156 73.886719 74.421875 70.222656 77.054688 67.433594 C 79.972656 64.339844 84 62.953125 87.824219 63.714844 C 87.886719 63.726562 87.949219 63.746094 88.007812 63.769531 C 88.164062 63.839844 88.296875 63.945312 88.394531 64.082031 C 88.457031 64.167969 88.507812 64.265625 88.535156 64.371094 C 88.566406 64.480469 88.578125 64.597656 88.566406 64.714844 C 88.515625 65.28125 88.347656 66.15625 88.132812 67.261719 C 87.472656 70.71875 86.242188 77.148438 87.859375 79.480469 C 88.164062 79.914062 88.539062 80.15625 89.046875 80.242188 C 89.546875 80.328125 89.886719 80.804688 89.804688 81.304688 C 89.726562 81.757812 89.335938 82.078125 88.894531 82.078125 " fill-opacity="1" fill-rule="nonzero"/></g></g></g></svg>