<svg xmlns="http://www.w3.org/2000/svg" xmlns:xlink="http://www.w3.org/1999/xlink" width="459" zoomAndPan="magnify" viewBox="0 0 344.25 526.499984" height="702" preserveAspectRatio="xMidYMid meet" version="1.0"><defs><clipPath id="268bee2a55"><path d="M 130 0.324219 L 309.136719 0.324219 L 309.136719 525.675781 L 130 525.675781 Z M 130 0.324219 " clip-rule="nonzero"/></clipPath><clipPath id="d9ba14dded"><path d="M 139 0.324219 L 317.984375 0.324219 L 317.984375 525.675781 L 139 525.675781 Z M 139 0.324219 " clip-rule="nonzero"/></clipPath><clipPath id="4d94988e13"><path d="M 182 0.324219 L 343.5 0.324219 L 343.5 525.679688 L 182 525.679688 Z M 182 0.324219 " clip-rule="nonzero"/></clipPath></defs><g clip-path="url(#268bee2a55)"><path fill="#fad2cc" d="M 163.800781 525.671875 L 167.1875 508.160156 C 170.632812 490.648438 177.402344 455.625 172.964844 420.601562 C 168.472656 385.578125 152.710938 350.554688 142.789062 315.535156 C 132.867188 280.511719 128.78125 245.488281 131.699219 210.464844 C 134.617188 175.441406 144.539062 140.417969 157.964844 105.394531 C 171.390625 70.371094 188.316406 35.347656 196.78125 17.835938 L 205.242188 0.324219 L 309.136719 0.324219 L 309.136719 17.835938 C 309.136719 35.347656 309.136719 70.371094 309.136719 105.394531 C 309.136719 140.417969 309.136719 175.441406 309.136719 210.464844 C 309.136719 245.488281 309.136719 280.511719 309.136719 315.535156 C 309.136719 350.554688 309.136719 385.578125 309.136719 420.601562 C 309.136719 455.625 309.136719 490.648438 309.136719 508.160156 L 309.136719 525.671875 Z M 163.800781 525.671875 " fill-opacity="1" fill-rule="nonzero"/></g><g clip-path="url(#d9ba14dded)"><path fill="#f48882" d="M 172.648438 525.671875 L 176.03125 508.160156 C 179.476562 490.648438 186.246094 455.625 181.8125 420.601562 C 177.316406 385.578125 161.558594 350.554688 151.636719 315.535156 C 141.710938 280.511719 137.625 245.488281 140.542969 210.464844 C 143.464844 175.441406 153.386719 140.417969 166.808594 105.394531 C 180.234375 70.371094 197.160156 35.347656 205.625 17.835938 L 214.089844 0.324219 L 317.984375 0.324219 L 317.984375 17.835938 C 317.984375 35.347656 317.984375 70.371094 317.984375 105.394531 C 317.984375 140.417969 317.984375 175.441406 317.984375 210.464844 C 317.984375 245.488281 317.984375 280.511719 317.984375 315.535156 C 317.984375 350.554688 317.984375 385.578125 317.984375 420.601562 C 317.984375 455.625 317.984375 490.648438 317.984375 508.160156 L 317.984375 525.671875 Z M 172.648438 525.671875 " fill-opacity="1" fill-rule="nonzero"/></g><g clip-path="url(#4d94988e13)"><path fill="#fad2cc" d="M 220.503906 579.835938 L 224.367188 559.855469 C 228.296875 539.871094 236.023438 499.910156 230.960938 459.949219 C 225.832031 419.984375 207.847656 380.023438 196.527344 340.058594 C 185.203125 300.097656 180.542969 260.132812 183.871094 220.171875 C 187.203125 180.210938 198.523438 140.246094 213.84375 100.285156 C 229.160156 60.320312 248.476562 20.359375 258.132812 0.378906 L 267.789062 -19.605469 L 386.34375 -19.605469 L 386.34375 0.378906 C 386.34375 20.359375 386.34375 60.320312 386.34375 100.285156 C 386.34375 140.246094 386.34375 180.210938 386.34375 220.171875 C 386.34375 260.132812 386.34375 300.097656 386.34375 340.058594 C 386.34375 380.023438 386.34375 419.984375 386.34375 459.949219 C 386.34375 499.910156 386.34375 539.871094 386.34375 559.855469 L 386.34375 579.835938 Z M 220.503906 579.835938 " fill-opacity="1" fill-rule="nonzero"/></g></svg>