<svg xmlns="http://www.w3.org/2000/svg" xmlns:xlink="http://www.w3.org/1999/xlink" width="500" zoomAndPan="magnify" viewBox="0 0 375 374.999991" height="500" preserveAspectRatio="xMidYMid meet" version="1.0"><defs><g/></defs><rect x="-37.5" width="450" fill="#ffffff" y="-37.499999" height="449.999989" fill-opacity="1"/><rect x="-37.5" width="450" fill="#830c4f" y="-37.499999" height="449.999989" fill-opacity="1"/><g fill="#38b6ff" fill-opacity="1"><g transform="translate(63.056987, 198.628888)"><g><path d="M 23.703125 -10.773438 C 23.703125 -16.894531 19.824219 -21.761719 13.144531 -21.761719 C 6.464844 -21.761719 2.585938 -16.894531 2.585938 -10.773438 L 2.585938 0 L 7.757812 0 L 7.757812 -10.773438 C 7.757812 -14.394531 9.480469 -16.9375 13.144531 -16.9375 C 16.808594 -16.9375 18.53125 -14.394531 18.53125 -10.773438 L 18.53125 0 L 23.703125 0 Z M 23.703125 -10.773438 "/></g></g></g><g fill="#38b6ff" fill-opacity="1"><g transform="translate(86.626688, 198.628888)"><g><path d="M 18.144531 -10.773438 C 18.144531 -6.550781 15.945312 -4.609375 12.410156 -4.609375 C 8.144531 -4.609375 6.507812 -7.371094 6.507812 -10.773438 C 6.507812 -14.179688 8.1875 -16.9375 12.410156 -16.9375 C 16.289062 -16.9375 17.96875 -14.566406 18.144531 -10.773438 Z M 25.039062 0 C 23.140625 -4.222656 23.402344 -8.574219 23.3125 -10.773438 C 23.054688 -17.496094 18.960938 -21.761719 12.410156 -21.761719 C 5.386719 -21.761719 1.335938 -16.851562 1.335938 -10.816406 C 1.335938 -4.652344 5.6875 0.214844 11.808594 0.214844 C 15.039062 0.214844 17.324219 -1.164062 18.789062 -3.316406 C 19.046875 -2.242188 19.394531 -1.121094 19.867188 0 Z M 25.039062 0 "/></g></g></g><g fill="#38b6ff" fill-opacity="1"><g transform="translate(110.153292, 198.628888)"><g><path d="M 23.703125 -10.773438 C 23.703125 -16.894531 19.824219 -21.761719 13.144531 -21.761719 C 6.464844 -21.761719 2.585938 -16.894531 2.585938 -10.773438 L 2.585938 0 L 7.757812 0 L 7.757812 -10.773438 C 7.757812 -14.394531 9.480469 -16.9375 13.144531 -16.9375 C 16.808594 -16.9375 18.53125 -14.394531 18.53125 -10.773438 L 18.53125 0 L 23.703125 0 Z M 23.703125 -10.773438 "/></g></g></g><g fill="#38b6ff" fill-opacity="1"><g transform="translate(133.722995, 198.628888)"><g><path d="M 23.703125 -10.773438 C 23.703125 -16.894531 19.824219 -21.761719 13.144531 -21.761719 C 6.464844 -21.761719 2.585938 -16.894531 2.585938 -10.773438 L 2.585938 0 L 7.757812 0 L 7.757812 -10.773438 C 7.757812 -14.394531 9.480469 -16.9375 13.144531 -16.9375 C 16.808594 -16.9375 18.53125 -14.394531 18.53125 -10.773438 L 18.53125 0 L 23.703125 0 Z M 23.703125 -10.773438 "/></g></g></g><g fill="#38b6ff" fill-opacity="1"><g transform="translate(157.292696, 198.628888)"><g><path d="M 18.1875 -10.773438 C 18.1875 -7.152344 16.246094 -4.609375 12.582031 -4.609375 C 8.921875 -4.609375 7.414062 -7.109375 7.414062 -10.773438 L 7.414062 -21.546875 L 2.242188 -21.546875 L 2.242188 -10.773438 C 2.242188 -4.652344 6.121094 0.214844 12.023438 0.214844 C 14.695312 0.214844 16.765625 -0.777344 18.1875 -2.457031 L 18.1875 -1.164062 C 18.1875 2.242188 16.679688 4.914062 11.980469 4.914062 C 9.652344 4.914062 7.066406 4.4375 5.601562 3.664062 L 5.601562 8.964844 C 7.457031 9.566406 9.910156 9.910156 12.238281 9.910156 C 19.351562 9.910156 23.359375 5 23.359375 -1.121094 L 23.359375 -21.546875 L 18.1875 -21.546875 Z M 18.1875 -10.773438 "/></g></g></g><g fill="#38b6ff" fill-opacity="1"><g transform="translate(180.862402, 198.628888)"><g><path d="M 36.199219 -11.636719 C 36.199219 -17.238281 32.664062 -21.761719 26.503906 -21.761719 C 23.183594 -21.761719 20.773438 -20.039062 19.394531 -17.410156 C 18.015625 -20.039062 15.601562 -21.761719 12.28125 -21.761719 C 6.121094 -21.761719 2.585938 -17.238281 2.585938 -11.636719 L 2.585938 0 L 7.757812 0 L 7.757812 -11.636719 C 7.757812 -14.738281 9.222656 -16.9375 12.28125 -16.9375 C 15.34375 -16.9375 16.808594 -14.738281 16.808594 -11.636719 L 16.808594 0 L 21.976562 0 L 21.976562 -11.636719 C 21.976562 -14.738281 23.445312 -16.9375 26.503906 -16.9375 C 29.5625 -16.9375 31.027344 -14.738281 31.027344 -11.636719 L 31.027344 0 L 36.199219 0 Z M 36.199219 -11.636719 "/></g></g></g><g fill="#38b6ff" fill-opacity="1"><g transform="translate(216.928158, 198.628888)"><g><path d="M 18.144531 -10.773438 C 18.144531 -6.550781 15.945312 -4.609375 12.410156 -4.609375 C 8.144531 -4.609375 6.507812 -7.371094 6.507812 -10.773438 C 6.507812 -14.179688 8.1875 -16.9375 12.410156 -16.9375 C 16.289062 -16.9375 17.96875 -14.566406 18.144531 -10.773438 Z M 25.039062 0 C 23.140625 -4.222656 23.402344 -8.574219 23.3125 -10.773438 C 23.054688 -17.496094 18.960938 -21.761719 12.410156 -21.761719 C 5.386719 -21.761719 1.335938 -16.851562 1.335938 -10.816406 C 1.335938 -4.652344 5.6875 0.214844 11.808594 0.214844 C 15.039062 0.214844 17.324219 -1.164062 18.789062 -3.316406 C 19.046875 -2.242188 19.394531 -1.121094 19.867188 0 Z M 25.039062 0 "/></g></g></g><g fill="#7ed957" fill-opacity="1"><g transform="translate(240.455413, 198.628888)"><g><path d="M 9.609375 -3.058594 C 9.609375 -4.914062 8.402344 -6.378906 6.335938 -6.378906 C 4.265625 -6.378906 3.015625 -4.871094 3.015625 -3.058594 C 3.015625 -1.25 4.265625 0.214844 6.335938 0.214844 C 8.402344 0.214844 9.609375 -1.292969 9.609375 -3.058594 Z M 9.609375 -3.058594 "/></g></g></g><g fill="#7ed957" fill-opacity="1"><g transform="translate(250.710338, 198.628888)"><g><path d="M 12.324219 -4.609375 C 8.230469 -4.609375 6.507812 -7.371094 6.507812 -10.773438 C 6.507812 -14.179688 8.230469 -16.9375 12.324219 -16.9375 C 16.417969 -16.9375 18.144531 -14.179688 18.144531 -10.773438 C 18.144531 -7.371094 16.417969 -4.609375 12.324219 -4.609375 Z M 12.324219 0.214844 C 19.261719 0.214844 23.3125 -4.699219 23.3125 -10.773438 C 23.3125 -16.851562 19.261719 -21.761719 12.324219 -21.761719 C 5.386719 -21.761719 1.335938 -16.851562 1.335938 -10.773438 C 1.335938 -4.699219 5.386719 0.214844 12.324219 0.214844 Z M 12.324219 0.214844 "/></g></g></g><g fill="#7ed957" fill-opacity="1"><g transform="translate(272.987338, 198.628888)"><g><path d="M 7.757812 -10.773438 C 7.757812 -14.136719 9.265625 -16.765625 13.960938 -16.765625 C 14.523438 -16.765625 15.039062 -16.632812 15.601562 -16.546875 L 15.601562 -21.546875 C 14.953125 -21.632812 14.351562 -21.761719 13.703125 -21.761719 C 6.59375 -21.761719 2.585938 -16.851562 2.585938 -10.730469 L 2.585938 0 L 7.757812 0 Z M 7.757812 -10.773438 "/></g></g></g><g fill="#7ed957" fill-opacity="1"><g transform="translate(287.077272, 198.628888)"><g><path d="M 16.851562 -12.929688 C 16.851562 -10.730469 15.386719 -8.921875 11.894531 -8.921875 C 8.402344 -8.921875 6.9375 -10.773438 6.9375 -12.929688 C 6.9375 -15.125 8.402344 -16.9375 11.894531 -16.9375 C 15.386719 -16.9375 16.851562 -15.125 16.851562 -12.929688 Z M 14.695312 4.308594 C 14.695312 5.6875 13.875 6.765625 11.894531 6.765625 C 9.910156 6.765625 9.09375 5.6875 9.09375 4.308594 C 9.09375 2.929688 9.910156 1.851562 11.894531 1.851562 C 13.875 1.851562 14.695312 2.929688 14.695312 4.308594 Z M 19.4375 4.308594 C 19.4375 1.59375 17.667969 -0.777344 14.480469 -1.636719 L 14.480469 -4.308594 C 19.304688 -5.257812 22.023438 -8.792969 22.023438 -12.929688 C 22.023438 -14.351562 21.71875 -15.6875 21.117188 -16.894531 C 21.933594 -17.195312 22.796875 -17.238281 23.703125 -17.238281 L 24.476562 -17.238281 L 24.476562 -21.546875 L 23.703125 -21.546875 C 21.460938 -21.546875 19.738281 -21.503906 17.710938 -20.382812 C 16.160156 -21.246094 14.179688 -21.761719 11.894531 -21.761719 C 5.472656 -21.761719 1.765625 -17.796875 1.765625 -12.929688 C 1.765625 -8.75 4.480469 -5.257812 9.308594 -4.308594 L 9.308594 -1.636719 C 6.121094 -0.777344 4.351562 1.59375 4.351562 4.308594 C 4.351562 7.714844 7.109375 10.558594 11.894531 10.558594 C 16.679688 10.558594 19.4375 7.800781 19.4375 4.308594 Z M 19.4375 4.308594 "/></g></g></g><g fill="#ffffff" fill-opacity="1"><g transform="translate(147.902312, 231.026211)"><g><path d="M 2.21875 -3.894531 L 2.3125 -3.898438 C 4.335938 -4.164062 5.6875 -10.832031 7.679688 -12.34375 C 7.765625 -10.960938 8.285156 -9.320312 9.714844 -9.410156 C 10.964844 -9.488281 12.480469 -11.992188 13.363281 -12.695312 C 13.527344 -10.015625 12.503906 -5.546875 14.050781 -2.257812 C 14.644531 -0.949219 15.507812 -0.492188 16.382812 -0.542969 C 17.910156 -0.640625 19.574219 -2.226562 20.667969 -4.054688 C 20.960938 -4.535156 21.132812 -4.777344 21.386719 -5.164062 C 21.636719 -5.644531 21.757812 -5.929688 22.007812 -6.363281 C 22.300781 -6.890625 23.226562 -8.433594 23.191406 -8.988281 C 23.171875 -9.3125 22.878906 -9.570312 22.691406 -9.558594 C 21.675781 -9.496094 21.5 -8.605469 21.125 -7.933594 C 20.042969 -5.871094 18.082031 -2.363281 16.742188 -2.28125 C 15.957031 -2.234375 15.382812 -3.21875 15.210938 -6.039062 C 15.050781 -8.625 15.578125 -13.621094 14.6875 -14.539062 C 14.441406 -14.800781 14.15625 -14.878906 13.878906 -14.859375 C 13.601562 -14.84375 13.332031 -14.734375 13.0625 -14.578125 C 12.570312 -14.269531 12.316406 -13.882812 11.929688 -13.394531 C 11.144531 -12.605469 10.164062 -11.199219 9.476562 -11.066406 C 9.382812 -12.542969 8.949219 -14.324219 7.5625 -14.238281 C 6.457031 -14.171875 5.261719 -11.734375 4.804688 -10.824219 L 2.859375 -7.039062 C 2.773438 -6.941406 2.730469 -6.894531 2.644531 -6.792969 C 2.355469 -11.460938 4.445312 -13.675781 2.089844 -13.53125 C 0.425781 -13.429688 -1.015625 -3.695312 2.21875 -3.894531 Z M 2.21875 -3.894531 "/></g></g></g><g fill="#ffffff" fill-opacity="1"><g transform="translate(169.47726, 229.698062)"><g><path d="M -0.289062 -4.667969 C -0.183594 -3.003906 0.00390625 -2.226562 1.710938 -2.332031 C 3.050781 -2.414062 4.214844 -6.84375 5.058594 -7.5 C 5.179688 -5.511719 6.804688 -3.203125 9.117188 -3.34375 C 9.902344 -3.390625 10.761719 -3.722656 11.644531 -4.425781 L 12.964844 -5.621094 C 15.179688 -8.03125 14.832031 -9.167969 14.140625 -9.125 C 13.863281 -9.109375 13.546875 -8.949219 13.335938 -8.613281 C 12.730469 -7.878906 12.621094 -7.457031 11.789062 -6.617188 C 10.835938 -5.535156 9.898438 -4.921875 9.023438 -4.867188 C 8.050781 -4.808594 7.175781 -5.496094 6.703125 -7.136719 C 6.179688 -8.867188 6.835938 -10.996094 5.21875 -10.894531 C 4.617188 -10.859375 2.964844 -6.816406 2.128906 -5.324219 L 1.792969 -4.75 C 1.582031 -4.457031 1.707031 -4.648438 1.578125 -4.503906 C 1.484375 -6.027344 2.023438 -7.824219 2.5625 -8.832031 C 3.761719 -11.222656 4.644531 -11.925781 5.339844 -11.96875 C 6.214844 -12.023438 6.835938 -10.996094 7.484375 -11.035156 C 8.683594 -11.109375 7.320312 -13.667969 5.148438 -13.535156 C 1.914062 -13.335938 -0.449219 -7.300781 -0.289062 -4.667969 Z M -0.289062 -4.667969 "/></g></g></g><g fill="#ffffff" fill-opacity="1"><g transform="translate(182.874987, 228.873301)"><g/></g></g><g fill="#ffffff" fill-opacity="1"><g transform="translate(194.840532, 228.136704)"><g><path d="M -7.066406 17.78125 C -7.339844 13.34375 -6.0625 10.761719 -4.132812 7.441406 C -3.039062 5.613281 0.0898438 1.433594 1.464844 0.421875 C 1.855469 6.796875 1.6875 13.855469 -0.941406 18.609375 C -2.113281 20.675781 -3.222656 21.484375 -4.238281 21.546875 C -5.808594 21.644531 -6.941406 19.8125 -7.066406 17.78125 Z M -0.0664062 -19.148438 C -0.0117188 -18.273438 0.425781 -17.972656 0.886719 -18.003906 C 1.441406 -18.035156 2.054688 -18.585938 2.019531 -19.183594 C 1.941406 -20.433594 1.546875 -20.824219 1.132812 -20.800781 C 0.53125 -20.761719 -0.109375 -19.84375 -0.0664062 -19.148438 Z M -8.390625 16.609375 C -8.273438 18.550781 -8.203125 20.402344 -6.628906 21.878906 C -5.890625 22.578125 -5.125 22.992188 -4.105469 22.929688 C -1.195312 22.753906 0.949219 19.1875 1.773438 16.726562 C 3.792969 11.128906 3.980469 5.921875 3.511719 -1.746094 C 4.570312 -2.601562 7.550781 -5.425781 8.78125 -6.523438 L 10.097656 -7.71875 C 10.40625 -8.015625 10.507812 -7.835938 10.472656 -8.4375 C 10.449219 -8.804688 10.300781 -8.9375 10.070312 -8.921875 C 9.238281 -8.871094 7.410156 -6.949219 6.792969 -6.402344 L 3.277344 -3.261719 C 3.1875 -4.695312 2.496094 -12.953125 0.878906 -12.855469 C -0.644531 -12.761719 -1.007812 -11.070312 -0.515625 -10.636719 C -0.269531 -10.417969 -0.179688 -10.425781 0.0976562 -10.441406 C 0.144531 -10.445312 0.195312 -10.402344 0.351562 -10.132812 C 0.359375 -9.992188 0.863281 -5.570312 0.941406 -5.066406 C 1.082031 -4.242188 1.003906 -3.261719 1.148438 -2.4375 C 1.371094 -1.105469 1.523438 -1.625 0.65625 -0.644531 L -2.464844 2.886719 C -5.328125 6.125 -8.660156 12.265625 -8.390625 16.609375 Z M -8.390625 16.609375 "/></g></g></g><g fill="#ffffff" fill-opacity="1"><g transform="translate(203.941735, 227.576436)"><g><path d="M -0.289062 -4.667969 C -0.183594 -3.003906 0.00390625 -2.226562 1.710938 -2.332031 C 3.050781 -2.414062 4.214844 -6.84375 5.058594 -7.5 C 5.179688 -5.511719 6.804688 -3.203125 9.117188 -3.34375 C 9.902344 -3.390625 10.761719 -3.722656 11.644531 -4.425781 L 12.964844 -5.621094 C 15.179688 -8.03125 14.832031 -9.167969 14.140625 -9.125 C 13.863281 -9.109375 13.546875 -8.949219 13.335938 -8.613281 C 12.730469 -7.878906 12.621094 -7.457031 11.789062 -6.617188 C 10.835938 -5.535156 9.898438 -4.921875 9.023438 -4.867188 C 8.050781 -4.808594 7.175781 -5.496094 6.703125 -7.136719 C 6.179688 -8.867188 6.835938 -10.996094 5.21875 -10.894531 C 4.617188 -10.859375 2.964844 -6.816406 2.128906 -5.324219 L 1.792969 -4.75 C 1.582031 -4.457031 1.707031 -4.648438 1.578125 -4.503906 C 1.484375 -6.027344 2.023438 -7.824219 2.5625 -8.832031 C 3.761719 -11.222656 4.644531 -11.925781 5.339844 -11.96875 C 6.214844 -12.023438 6.835938 -10.996094 7.484375 -11.035156 C 8.683594 -11.109375 7.320312 -13.667969 5.148438 -13.535156 C 1.914062 -13.335938 -0.449219 -7.300781 -0.289062 -4.667969 Z M -0.289062 -4.667969 "/></g></g></g><g fill="#ffffff" fill-opacity="1"><g transform="translate(217.339462, 226.751675)"><g><path d="M 3.847656 -0.0507812 C 6.019531 -0.183594 7.648438 -2.324219 8.6875 -3.550781 C 9.378906 -4.332031 11.960938 -7.601562 11.90625 -8.476562 C 11.882812 -8.894531 11.734375 -9.023438 11.550781 -9.011719 C 10.671875 -8.957031 8.425781 -5.527344 8.253906 -5.285156 C 7.617188 -4.363281 5.363281 -1.769531 3.886719 -1.675781 C 2.636719 -1.601562 1.960938 -4.292969 1.875 -5.679688 C 1.585938 -10.394531 3.304688 -12.585938 1.179688 -12.457031 C 0.257812 -12.398438 -0.078125 -10.289062 -0.15625 -9.3125 C -0.519531 -6.925781 -0.230469 -3.742188 1.007812 -1.730469 C 1.570312 -0.886719 2.597656 0.0273438 3.847656 -0.0507812 Z M 1.238281 -18.300781 C 1.300781 -17.285156 1.929688 -16.859375 2.578125 -16.902344 C 3.5 -16.957031 4.410156 -18.035156 3.425781 -19.6875 C 3.117188 -20.179688 2.78125 -20.34375 2.457031 -20.324219 C 1.765625 -20.28125 1.171875 -19.363281 1.238281 -18.300781 Z M 1.238281 -18.300781 "/></g></g></g><g fill="#ffffff" fill-opacity="1"><g transform="translate(227.872848, 226.103242)"><g><path d="M 1.023438 7.589844 C 0.910156 5.742188 2.121094 3.578125 3.148438 2.171875 C 3.664062 1.492188 4.6875 0.0351562 5.398438 -0.425781 C 5.480469 0.867188 5.589844 1.882812 5.332031 2.964844 C 5.007812 4.515625 4.128906 6.796875 2.9375 7.796875 C 2.632812 8.09375 2.101562 8.496094 1.683594 8.523438 C 1.359375 8.542969 1.066406 8.28125 1.023438 7.589844 Z M -0.320312 -7.492188 C -0.171875 -5.042969 3.109375 -4.457031 4.707031 -1.914062 C 4.082031 -0.761719 -0.710938 3.523438 -0.453125 7.679688 C -0.351562 9.34375 0.625 10.164062 1.917969 10.085938 C 3.304688 10 4.996094 8.828125 6.195312 6.480469 C 8.96875 1.023438 6.910156 -1.539062 7.054688 -2.195312 C 7.121094 -2.570312 10.253906 -5.222656 10.742188 -5.53125 L 13.75 -7.894531 C 14.777344 -8.5625 14.820312 -9.351562 14.082031 -9.308594 C 13.667969 -9.28125 13.078125 -9.058594 12.324219 -8.457031 L 8.214844 -5.191406 C 7.558594 -4.546875 6.941406 -4 6.234375 -3.445312 C 3.609375 -6.902344 0.152344 -6.546875 2.429688 -9.472656 C 3.074219 -10.300781 2.953125 -10.058594 4.042969 -10.40625 C 4.25 -11.578125 3.804688 -12.015625 3.160156 -11.972656 C 1.820312 -11.890625 -0.46875 -9.847656 -0.320312 -7.492188 Z M -0.320312 -7.492188 "/></g></g></g><g fill="#ffffff" fill-opacity="1"><g transform="translate(241.224377, 225.281325)"><g><path d="M 3.847656 -0.0507812 C 6.019531 -0.183594 7.648438 -2.324219 8.6875 -3.550781 C 9.378906 -4.332031 11.960938 -7.601562 11.90625 -8.476562 C 11.882812 -8.894531 11.734375 -9.023438 11.550781 -9.011719 C 10.671875 -8.957031 8.425781 -5.527344 8.253906 -5.285156 C 7.617188 -4.363281 5.363281 -1.769531 3.886719 -1.675781 C 2.636719 -1.601562 1.960938 -4.292969 1.875 -5.679688 C 1.585938 -10.394531 3.304688 -12.585938 1.179688 -12.457031 C 0.257812 -12.398438 -0.078125 -10.289062 -0.15625 -9.3125 C -0.519531 -6.925781 -0.230469 -3.742188 1.007812 -1.730469 C 1.570312 -0.886719 2.597656 0.0273438 3.847656 -0.0507812 Z M 1.238281 -18.300781 C 1.300781 -17.285156 1.929688 -16.859375 2.578125 -16.902344 C 3.5 -16.957031 4.410156 -18.035156 3.425781 -19.6875 C 3.117188 -20.179688 2.78125 -20.34375 2.457031 -20.324219 C 1.765625 -20.28125 1.171875 -19.363281 1.238281 -18.300781 Z M 1.238281 -18.300781 "/></g></g></g><g fill="#ffffff" fill-opacity="1"><g transform="translate(251.757763, 224.632891)"><g/></g></g><g fill="#ffffff" fill-opacity="1"><g transform="translate(263.723308, 223.896295)"><g><path d="M 1.144531 -2.480469 C 2.949219 -2.59375 4.433594 -8.621094 5.894531 -9.730469 C 6.363281 -8.878906 5.832031 -6.992188 6.925781 -4.277344 C 7.417969 -3.054688 8.28125 -1.855469 9.710938 -1.941406 C 9.988281 -1.960938 10.265625 -2.023438 10.582031 -2.136719 C 11.628906 -2.476562 12.992188 -4.417969 13.585938 -5.289062 C 13.84375 -5.675781 16.359375 -9.261719 14.554688 -9.152344 C 13.722656 -9.101562 11.613281 -3.453125 9.765625 -3.335938 C 8.054688 -3.230469 7.710938 -7.339844 7.640625 -8.492188 L 7.203125 -11.0625 C 6.941406 -11.558594 6.601562 -11.769531 6.28125 -11.75 C 5.171875 -11.679688 3.929688 -9.238281 3.683594 -8.714844 L 1.671875 -5.203125 C 1.453125 -8.808594 4.1875 -13.335938 2.15625 -13.210938 C 0.398438 -13.101562 -1.8125 -2.300781 1.144531 -2.480469 Z M 1.144531 -2.480469 "/></g></g></g><g fill="#ffffff" fill-opacity="1"><g transform="translate(277.583014, 223.043094)"><g><path d="M -0.289062 -4.667969 C -0.183594 -3.003906 0.00390625 -2.226562 1.710938 -2.332031 C 3.050781 -2.414062 4.214844 -6.84375 5.058594 -7.5 C 5.179688 -5.511719 6.804688 -3.203125 9.117188 -3.34375 C 9.902344 -3.390625 10.761719 -3.722656 11.644531 -4.425781 L 12.964844 -5.621094 C 15.179688 -8.03125 14.832031 -9.167969 14.140625 -9.125 C 13.863281 -9.109375 13.546875 -8.949219 13.335938 -8.613281 C 12.730469 -7.878906 12.621094 -7.457031 11.789062 -6.617188 C 10.835938 -5.535156 9.898438 -4.921875 9.023438 -4.867188 C 8.050781 -4.808594 7.175781 -5.496094 6.703125 -7.136719 C 6.179688 -8.867188 6.835938 -10.996094 5.21875 -10.894531 C 4.617188 -10.859375 2.964844 -6.816406 2.128906 -5.324219 L 1.792969 -4.75 C 1.582031 -4.457031 1.707031 -4.648438 1.578125 -4.503906 C 1.484375 -6.027344 2.023438 -7.824219 2.5625 -8.832031 C 3.761719 -11.222656 4.644531 -11.925781 5.339844 -11.96875 C 6.214844 -12.023438 6.835938 -10.996094 7.484375 -11.035156 C 8.683594 -11.109375 7.320312 -13.667969 5.148438 -13.535156 C 1.914062 -13.335938 -0.449219 -7.300781 -0.289062 -4.667969 Z M -0.289062 -4.667969 "/></g></g></g><g fill="#ffffff" fill-opacity="1"><g transform="translate(290.980742, 222.218333)"><g><path d="M 1.144531 -2.480469 C 2.949219 -2.59375 4.433594 -8.621094 5.894531 -9.730469 C 6.363281 -8.878906 5.832031 -6.992188 6.925781 -4.277344 C 7.417969 -3.054688 8.28125 -1.855469 9.710938 -1.941406 C 9.988281 -1.960938 10.265625 -2.023438 10.582031 -2.136719 C 11.628906 -2.476562 12.992188 -4.417969 13.585938 -5.289062 C 13.84375 -5.675781 16.359375 -9.261719 14.554688 -9.152344 C 13.722656 -9.101562 11.613281 -3.453125 9.765625 -3.335938 C 8.054688 -3.230469 7.710938 -7.339844 7.640625 -8.492188 L 7.203125 -11.0625 C 6.941406 -11.558594 6.601562 -11.769531 6.28125 -11.75 C 5.171875 -11.679688 3.929688 -9.238281 3.683594 -8.714844 L 1.671875 -5.203125 C 1.453125 -8.808594 4.1875 -13.335938 2.15625 -13.210938 C 0.398438 -13.101562 -1.8125 -2.300781 1.144531 -2.480469 Z M 1.144531 -2.480469 "/></g></g></g><g fill="#ffffff" fill-opacity="1"><g transform="translate(304.840448, 221.365132)"><g><path d="M 1.144531 -2.480469 C 2.949219 -2.59375 4.433594 -8.621094 5.894531 -9.730469 C 6.363281 -8.878906 5.832031 -6.992188 6.925781 -4.277344 C 7.417969 -3.054688 8.28125 -1.855469 9.710938 -1.941406 C 9.988281 -1.960938 10.265625 -2.023438 10.582031 -2.136719 C 11.628906 -2.476562 12.992188 -4.417969 13.585938 -5.289062 C 13.84375 -5.675781 16.359375 -9.261719 14.554688 -9.152344 C 13.722656 -9.101562 11.613281 -3.453125 9.765625 -3.335938 C 8.054688 -3.230469 7.710938 -7.339844 7.640625 -8.492188 L 7.203125 -11.0625 C 6.941406 -11.558594 6.601562 -11.769531 6.28125 -11.75 C 5.171875 -11.679688 3.929688 -9.238281 3.683594 -8.714844 L 1.671875 -5.203125 C 1.453125 -8.808594 4.1875 -13.335938 2.15625 -13.210938 C 0.398438 -13.101562 -1.8125 -2.300781 1.144531 -2.480469 Z M 1.144531 -2.480469 "/></g></g></g><g fill="#ffffff" fill-opacity="1"><g transform="translate(318.700155, 220.511932)"><g><path d="M 2.480469 18.445312 C 1.742188 18.488281 0.984375 18.257812 0.585938 17.820312 C -1.382812 15.945312 0.234375 12.089844 1.246094 10.449219 C 2.292969 8.625 3.3125 7.125 4.703125 5.554688 C 5.050781 5.207031 5.214844 4.828125 5.476562 4.578125 L 9.757812 0.28125 C 10.109375 -0.0195312 10.375 -0.222656 10.730469 -0.476562 C 10.675781 2.402344 9.054688 10.710938 7.824219 13.339844 C 6.835938 15.394531 5.113281 18.28125 2.480469 18.445312 Z M 2.152344 -4.214844 C 1.878906 -8.648438 4.414062 -11.914062 2.382812 -11.789062 C 0.855469 -11.695312 0.03125 -7.003906 0.15625 -5.019531 C 0.253906 -3.402344 1.054688 -2.429688 2.074219 -2.492188 C 2.582031 -2.523438 3.117188 -2.835938 3.640625 -3.378906 C 4.816406 -4.609375 6.105469 -7.054688 6.9375 -8.589844 C 7.613281 -9.699219 10.703125 -15.964844 11.101562 -16.265625 C 11.429688 -10.953125 11.207031 -7.785156 10.945312 -3.039062 C 10.949219 -2.203125 10.53125 -2.179688 9.746094 -1.386719 C 9.394531 -1.089844 9.214844 -0.984375 8.910156 -0.6875 C 5.066406 2.425781 -1.949219 10.554688 -1.632812 15.636719 C -1.464844 18.410156 0.390625 19.917969 2.65625 19.777344 C 5.703125 19.589844 8.167969 16.65625 9.351562 14.03125 C 11.386719 10.199219 12.480469 3.082031 12.84375 -1.53125 C 12.898438 -2.183594 12.800781 -2.273438 13.242188 -2.625 C 14.964844 -3.980469 16.785156 -5.300781 18.617188 -6.480469 C 19.148438 -6.835938 22.011719 -8.542969 21.96875 -9.238281 C 21.949219 -9.605469 21.753906 -9.734375 21.523438 -9.71875 C 20.832031 -9.675781 19.644531 -8.628906 19.378906 -8.425781 L 13.007812 -4.1875 C 12.925781 -5.480469 13.15625 -8.507812 13.015625 -10.820312 L 12.796875 -14.375 C 12.738281 -15.300781 12.574219 -18.722656 11.605469 -18.664062 C 10.632812 -18.601562 10.65625 -18.277344 9.988281 -17.03125 C 8.539062 -14.207031 4.433594 -5.558594 2.152344 -4.214844 Z M 2.152344 -4.214844 "/></g></g></g><g fill="#ffffff" fill-opacity="1"><g transform="translate(339.489714, 219.232131)"><g><path d="M 2.414062 -1.492188 C 2.457031 -0.753906 3.085938 -0.328125 3.6875 -0.367188 C 4.289062 -0.402344 4.863281 -0.855469 4.902344 -1.738281 C 4.984375 -2.625 4.359375 -3.003906 3.714844 -2.964844 C 3.066406 -2.925781 2.355469 -2.417969 2.414062 -1.492188 Z M 2.414062 -1.492188 "/></g></g></g><g fill="#ffffff" fill-opacity="1"><g transform="translate(346.973966, 218.771402)"><g><path d="M 2.414062 -1.492188 C 2.457031 -0.753906 3.085938 -0.328125 3.6875 -0.367188 C 4.289062 -0.402344 4.863281 -0.855469 4.902344 -1.738281 C 4.984375 -2.625 4.359375 -3.003906 3.714844 -2.964844 C 3.066406 -2.925781 2.355469 -2.417969 2.414062 -1.492188 Z M 2.414062 -1.492188 "/></g></g></g><g fill="#ffffff" fill-opacity="1"><g transform="translate(354.458218, 218.310673)"><g><path d="M 2.414062 -1.492188 C 2.457031 -0.753906 3.085938 -0.328125 3.6875 -0.367188 C 4.289062 -0.402344 4.863281 -0.855469 4.902344 -1.738281 C 4.984375 -2.625 4.359375 -3.003906 3.714844 -2.964844 C 3.066406 -2.925781 2.355469 -2.417969 2.414062 -1.492188 Z M 2.414062 -1.492188 "/></g></g></g></svg>