<svg xmlns="http://www.w3.org/2000/svg" xmlns:xlink="http://www.w3.org/1999/xlink" width="150" zoomAndPan="magnify" viewBox="0 0 112.5 74.999997" height="100" preserveAspectRatio="xMidYMid meet" version="1.0"><defs><g/></defs><g fill="#38B6FF" fill-opacity="1"><g transform="translate(0.0187064, 40.295211)"><g><path d="M 3.71875 -3.953125 L 3.71875 0 L 0.859375 0 L 0.859375 -9.78125 L 3.75 -9.78125 L 6.34375 -5.828125 C 6.738281 -5.242188 7.035156 -4.753906 7.234375 -4.359375 L 7.296875 -4.359375 L 7.296875 -9.78125 L 10.140625 -9.78125 L 10.140625 0 L 7.21875 0 L 4.5625 -4.125 L 3.796875 -5.28125 L 3.734375 -5.28125 Z M 3.71875 -3.953125 "/></g></g></g><g fill="#38B6FF" fill-opacity="1"><g transform="translate(10.997179, 40.295211)"><g><path d="M 6.515625 -2.140625 L 3.671875 -2.140625 L 3.15625 0 L 0 0 L 3.15625 -9.78125 L 7.1875 -9.78125 L 10.203125 0 L 7.03125 0 Z M 5.078125 -7.671875 L 4.0625 -4.046875 L 6.109375 -4.046875 L 5.140625 -7.671875 Z M 5.078125 -7.671875 "/></g></g></g><g fill="#38B6FF" fill-opacity="1"><g transform="translate(21.203722, 40.295211)"><g><path d="M 3.71875 -3.953125 L 3.71875 0 L 0.859375 0 L 0.859375 -9.78125 L 3.75 -9.78125 L 6.34375 -5.828125 C 6.738281 -5.242188 7.035156 -4.753906 7.234375 -4.359375 L 7.296875 -4.359375 L 7.296875 -9.78125 L 10.140625 -9.78125 L 10.140625 0 L 7.21875 0 L 4.5625 -4.125 L 3.796875 -5.28125 L 3.734375 -5.28125 Z M 3.71875 -3.953125 "/></g></g></g><g fill="#38B6FF" fill-opacity="1"><g transform="translate(32.182194, 40.295211)"><g><path d="M 3.71875 -3.953125 L 3.71875 0 L 0.859375 0 L 0.859375 -9.78125 L 3.75 -9.78125 L 6.34375 -5.828125 C 6.738281 -5.242188 7.035156 -4.753906 7.234375 -4.359375 L 7.296875 -4.359375 L 7.296875 -9.78125 L 10.140625 -9.78125 L 10.140625 0 L 7.21875 0 L 4.5625 -4.125 L 3.796875 -5.28125 L 3.734375 -5.28125 Z M 3.71875 -3.953125 "/></g></g></g><g fill="#38B6FF" fill-opacity="1"><g transform="translate(43.160666, 40.295211)"><g><path d="M 6.265625 -3.125 L 6.265625 0 L 3.171875 0 L 3.171875 -3.09375 L -0.125 -9.78125 L 3.015625 -9.78125 L 4.328125 -6.609375 C 4.460938 -6.285156 4.585938 -5.945312 4.703125 -5.59375 L 4.734375 -5.59375 C 4.859375 -5.976562 4.984375 -6.328125 5.109375 -6.640625 L 6.40625 -9.78125 L 9.515625 -9.78125 Z M 6.265625 -3.125 "/></g></g></g><g fill="#7ED957" fill-opacity="1"><g transform="translate(52.546139, 40.295211)"><g><path d="M 13.46875 0 L 10.578125 0 L 10.359375 -5.390625 C 10.328125 -6.453125 10.289062 -7.257812 10.25 -7.8125 L 10.1875 -7.8125 C 10.050781 -7.375 9.890625 -6.695312 9.703125 -5.78125 L 9.625 -5.359375 L 8.4375 0 L 5.5625 0 L 4.5625 -4.828125 L 4.390625 -5.671875 C 4.148438 -6.742188 3.984375 -7.457031 3.890625 -7.8125 L 3.84375 -7.8125 C 3.800781 -7.238281 3.757812 -6.304688 3.71875 -5.015625 C 3.707031 -4.929688 3.703125 -4.800781 3.703125 -4.625 L 3.546875 0 L 0.65625 0 L 1.0625 -9.78125 L 5.96875 -9.78125 L 6.8125 -5.5625 L 7.015625 -4.421875 C 7.109375 -4.773438 7.195312 -5.171875 7.28125 -5.609375 L 8.0625 -9.78125 L 13.078125 -9.78125 Z M 13.46875 0 "/></g></g></g><g fill="#7ED957" fill-opacity="1"><g transform="translate(66.663771, 40.295211)"><g><path d="M 6.515625 -2.140625 L 3.671875 -2.140625 L 3.15625 0 L 0 0 L 3.15625 -9.78125 L 7.1875 -9.78125 L 10.203125 0 L 7.03125 0 Z M 5.078125 -7.671875 L 4.0625 -4.046875 L 6.109375 -4.046875 L 5.140625 -7.671875 Z M 5.078125 -7.671875 "/></g></g></g><g fill="#38B6FF" fill-opacity="1"><g transform="translate(76.864395, 40.295211)"><g><path d="M 2.296875 0.140625 C 1.828125 0.140625 1.441406 -0.015625 1.140625 -0.328125 C 0.835938 -0.640625 0.6875 -1.054688 0.6875 -1.578125 C 0.6875 -2.035156 0.84375 -2.421875 1.15625 -2.734375 C 1.46875 -3.046875 1.863281 -3.203125 2.34375 -3.203125 C 2.800781 -3.203125 3.1875 -3.046875 3.5 -2.734375 C 3.8125 -2.421875 3.96875 -2.035156 3.96875 -1.578125 C 3.96875 -1.054688 3.8125 -0.640625 3.5 -0.328125 C 3.195312 -0.015625 2.796875 0.140625 2.296875 0.140625 Z M 2.296875 0.140625 "/></g></g></g><g fill="#38B6FF" fill-opacity="1"><g transform="translate(81.513088, 40.295211)"><g><path d="M 5.625 0.21875 C 3.925781 0.21875 2.648438 -0.179688 1.796875 -0.984375 C 0.941406 -1.796875 0.515625 -3.09375 0.515625 -4.875 C 0.515625 -6.625 0.984375 -7.898438 1.921875 -8.703125 C 2.859375 -9.503906 4.097656 -9.90625 5.640625 -9.90625 C 8.890625 -9.90625 10.515625 -8.285156 10.515625 -5.046875 C 10.515625 -3.410156 10.113281 -2.125 9.3125 -1.1875 C 8.519531 -0.25 7.289062 0.21875 5.625 0.21875 Z M 5.5625 -1.796875 C 5.875 -1.796875 6.140625 -1.847656 6.359375 -1.953125 C 6.578125 -2.066406 6.75 -2.265625 6.875 -2.546875 C 7.113281 -3.015625 7.234375 -3.78125 7.234375 -4.84375 C 7.234375 -5.882812 7.113281 -6.640625 6.875 -7.109375 C 6.632812 -7.585938 6.195312 -7.835938 5.5625 -7.859375 C 5.320312 -7.859375 5.070312 -7.832031 4.8125 -7.78125 C 4.550781 -7.726562 4.390625 -7.65625 4.328125 -7.5625 C 4.191406 -7.40625 4.082031 -7.066406 4 -6.546875 C 3.925781 -6.023438 3.890625 -5.457031 3.890625 -4.84375 C 3.890625 -3.875 3.984375 -3.171875 4.171875 -2.734375 C 4.296875 -2.398438 4.472656 -2.160156 4.703125 -2.015625 C 4.929688 -1.867188 5.21875 -1.796875 5.5625 -1.796875 Z M 5.5625 -1.796875 "/></g></g></g><g fill="#38B6FF" fill-opacity="1"><g transform="translate(92.543021, 40.295211)"><g><path d="M 9.765625 0 L 6.515625 0 L 5.9375 -2.46875 C 5.914062 -2.5625 5.878906 -2.71875 5.828125 -2.9375 C 5.773438 -3.164062 5.710938 -3.332031 5.640625 -3.4375 C 5.578125 -3.550781 5.484375 -3.625 5.359375 -3.65625 C 5.035156 -3.644531 4.566406 -3.640625 3.953125 -3.640625 L 3.953125 0 L 0.859375 0 L 0.859375 -9.6875 C 2.242188 -9.789062 3.535156 -9.84375 4.734375 -9.84375 C 5.816406 -9.84375 6.695312 -9.753906 7.375 -9.578125 C 8.050781 -9.398438 8.554688 -9.097656 8.890625 -8.671875 C 9.234375 -8.242188 9.40625 -7.65625 9.40625 -6.90625 C 9.40625 -6.21875 9.242188 -5.675781 8.921875 -5.28125 C 8.597656 -4.882812 8.082031 -4.644531 7.375 -4.5625 L 7.375 -4.453125 C 7.78125 -4.421875 8.113281 -4.289062 8.375 -4.0625 C 8.644531 -3.84375 8.828125 -3.5625 8.921875 -3.21875 Z M 3.953125 -5.578125 C 4.046875 -5.566406 4.242188 -5.5625 4.546875 -5.5625 C 5.429688 -5.5625 5.945312 -5.632812 6.09375 -5.78125 C 6.226562 -5.914062 6.296875 -6.238281 6.296875 -6.75 C 6.296875 -7.21875 6.171875 -7.535156 5.921875 -7.703125 C 5.679688 -7.867188 5.28125 -7.953125 4.71875 -7.953125 C 4.59375 -7.953125 4.335938 -7.941406 3.953125 -7.921875 Z M 3.953125 -5.578125 "/></g></g></g><g fill="#38B6FF" fill-opacity="1"><g transform="translate(102.49226, 40.295211)"><g><path d="M 9.40625 -5.421875 L 9.40625 -0.53125 C 8.632812 -0.28125 7.90625 -0.0976562 7.21875 0.015625 C 6.53125 0.128906 5.953125 0.1875 5.484375 0.1875 C 3.929688 0.1875 2.710938 -0.21875 1.828125 -1.03125 C 0.953125 -1.84375 0.515625 -3.085938 0.515625 -4.765625 C 0.515625 -6.484375 0.976562 -7.769531 1.90625 -8.625 C 2.832031 -9.476562 4.132812 -9.90625 5.8125 -9.90625 C 6.695312 -9.90625 7.753906 -9.769531 8.984375 -9.5 C 8.984375 -9.269531 8.960938 -8.929688 8.921875 -8.484375 C 8.878906 -8.035156 8.832031 -7.71875 8.78125 -7.53125 L 8.171875 -7.546875 C 7.410156 -7.566406 6.820312 -7.578125 6.40625 -7.578125 C 5.132812 -7.578125 4.441406 -7.503906 4.328125 -7.359375 C 4.140625 -7.140625 4.007812 -6.800781 3.9375 -6.34375 C 3.863281 -5.882812 3.828125 -5.445312 3.828125 -5.03125 C 3.828125 -4.257812 3.910156 -3.660156 4.078125 -3.234375 C 4.253906 -2.816406 4.519531 -2.519531 4.875 -2.34375 C 5.226562 -2.175781 5.707031 -2.09375 6.3125 -2.09375 L 6.375 -2.09375 L 6.375 -5.421875 Z M 9.40625 -5.421875 "/></g></g></g></svg>