<svg xmlns="http://www.w3.org/2000/svg" xmlns:xlink="http://www.w3.org/1999/xlink" width="45" zoomAndPan="magnify" viewBox="0 0 33.75 33.749999" height="45" preserveAspectRatio="xMidYMid meet" version="1.0"><defs><clipPath id="c73566b856"><path d="M 0 0 L 33.5 0 L 33.5 33.5 L 0 33.5 Z M 0 0 " clip-rule="nonzero"/></clipPath><clipPath id="83bf3b1c86"><path d="M 0 1.476562 L 33.5 1.476562 L 33.5 32.226562 L 0 32.226562 Z M 0 1.476562 " clip-rule="nonzero"/></clipPath></defs><g clip-path="url(#c73566b856)"><path fill="#ffffff" d="M 0 0 L 33.75 0 L 33.75 33.75 L 0 33.75 Z M 0 0 " fill-opacity="1" fill-rule="nonzero"/><path fill="#ffffff" d="M 0 0 L 33.75 0 L 33.75 33.75 L 0 33.75 Z M 0 0 " fill-opacity="1" fill-rule="nonzero"/></g><g clip-path="url(#83bf3b1c86)"><path fill="#00bf63" d="M 10.566406 10.96875 C 10.578125 10.980469 10.589844 10.996094 10.601562 11.007812 L 16.5 16.894531 C 16.589844 16.984375 16.703125 17.035156 16.820312 17.046875 C 16.839844 17.046875 16.855469 17.050781 16.875 17.050781 C 16.878906 17.050781 16.886719 17.050781 16.890625 17.050781 C 17.023438 17.042969 17.152344 16.988281 17.246094 16.894531 L 23.144531 11.007812 C 23.15625 10.996094 23.167969 10.980469 23.179688 10.96875 L 24.214844 9.933594 C 26.046875 8.105469 26.046875 5.128906 24.214844 3.300781 C 22.386719 1.472656 19.40625 1.472656 17.574219 3.300781 L 16.871094 4.003906 L 16.167969 3.300781 C 14.339844 1.472656 11.359375 1.472656 9.527344 3.300781 C 7.699219 5.128906 7.699219 8.105469 9.527344 9.933594 Z M 10.269531 4.042969 C 10.960938 3.355469 11.875 2.976562 12.847656 2.976562 C 13.824219 2.976562 14.738281 3.355469 15.425781 4.042969 L 16.5 5.113281 C 16.601562 5.214844 16.734375 5.269531 16.871094 5.269531 C 17.011719 5.269531 17.144531 5.214844 17.242188 5.113281 L 18.316406 4.042969 C 19.007812 3.355469 19.921875 2.976562 20.894531 2.976562 C 21.871094 2.976562 22.785156 3.355469 23.472656 4.042969 C 24.894531 5.460938 24.894531 7.773438 23.472656 9.191406 L 22.398438 10.265625 C 22.386719 10.277344 22.375 10.289062 22.363281 10.304688 L 16.871094 15.785156 L 11.378906 10.304688 C 11.367188 10.289062 11.355469 10.277344 11.34375 10.265625 L 10.269531 9.191406 C 8.847656 7.773438 8.847656 5.460938 10.269531 4.042969 Z M 33.515625 16.214844 C 32.570312 15.269531 31.148438 14.972656 29.910156 15.4375 C 29.53125 15.292969 29.125 15.21875 28.707031 15.21875 C 27.804688 15.21875 26.957031 15.566406 26.316406 16.199219 L 22.410156 19.5 C 22.414062 19.460938 22.414062 19.417969 22.414062 19.375 C 22.414062 19.085938 22.179688 18.851562 21.890625 18.851562 L 9.835938 18.851562 C 8.113281 18.851562 6.496094 19.519531 5.277344 20.738281 L 0.226562 25.777344 C 0.0234375 25.984375 0.0234375 26.316406 0.226562 26.519531 C 0.328125 26.621094 0.464844 26.671875 0.597656 26.671875 C 0.734375 26.671875 0.867188 26.621094 0.96875 26.519531 L 6.019531 21.476562 C 7.039062 20.460938 8.394531 19.898438 9.835938 19.898438 L 21.300781 19.898438 C 21.066406 20.878906 20.179688 21.609375 19.125 21.609375 L 12.710938 21.609375 C 12.417969 21.609375 12.183594 21.84375 12.183594 22.132812 C 12.183594 22.421875 12.417969 22.660156 12.710938 22.660156 L 19.125 22.660156 C 20.054688 22.660156 20.894531 22.269531 21.496094 21.648438 L 27.011719 16.984375 C 27.019531 16.976562 27.03125 16.964844 27.042969 16.957031 C 27.832031 16.164062 29.050781 16.054688 29.960938 16.625 L 21.609375 24.964844 C 20.835938 25.738281 19.800781 26.167969 18.703125 26.167969 L 10.472656 26.167969 C 9.515625 26.167969 8.617188 26.539062 7.9375 27.214844 L 3.816406 31.332031 C 3.613281 31.535156 3.613281 31.867188 3.816406 32.070312 C 3.917969 32.171875 4.054688 32.226562 4.1875 32.226562 C 4.320312 32.226562 4.457031 32.171875 4.558594 32.070312 L 8.679688 27.957031 C 9.160156 27.476562 9.796875 27.214844 10.472656 27.214844 L 21.105469 27.214844 C 22.484375 27.214844 23.777344 26.679688 24.753906 25.707031 L 33.515625 16.957031 C 33.722656 16.75 33.722656 16.417969 33.515625 16.214844 Z M 24.011719 24.964844 C 23.433594 25.542969 22.710938 25.925781 21.929688 26.085938 C 22.074219 25.964844 22.21875 25.839844 22.351562 25.707031 L 31.117188 16.957031 C 31.304688 16.769531 31.320312 16.472656 31.164062 16.269531 C 31.585938 16.28125 32 16.402344 32.363281 16.628906 Z M 24.011719 24.964844 " fill-opacity="1" fill-rule="nonzero"/></g></svg>