<svg xmlns="http://www.w3.org/2000/svg" xmlns:xlink="http://www.w3.org/1999/xlink" width="45" zoomAndPan="magnify" viewBox="0 0 33.75 33.749999" height="45" preserveAspectRatio="xMidYMid meet" version="1.0"><defs><clipPath id="cc09827f92"><path d="M 0 0 L 33.5 0 L 33.5 33.5 L 0 33.5 Z M 0 0 " clip-rule="nonzero"/></clipPath><clipPath id="f49729353d"><path d="M 0 0.941406 L 33 0.941406 L 33 33.5 L 0 33.5 Z M 0 0.941406 " clip-rule="nonzero"/></clipPath></defs><g clip-path="url(#cc09827f92)"><path fill="#ffffff" d="M 0 0 L 33.75 0 L 33.75 33.75 L 0 33.75 Z M 0 0 " fill-opacity="1" fill-rule="nonzero"/><path fill="#ffffff" d="M 0 0 L 33.75 0 L 33.75 33.75 L 0 33.75 Z M 0 0 " fill-opacity="1" fill-rule="nonzero"/></g><g clip-path="url(#f49729353d)"><path fill="#00bf63" d="M 16.5 3.089844 C 8.597656 3.089844 2.167969 9.527344 2.167969 17.441406 C 2.167969 25.355469 8.597656 31.792969 16.5 31.792969 C 24.402344 31.792969 30.832031 25.355469 30.832031 17.441406 C 30.832031 9.527344 24.402344 3.089844 16.5 3.089844 Z M 16.5 33.945312 C 14.277344 33.945312 12.117188 33.507812 10.085938 32.648438 C 8.121094 31.816406 6.359375 30.625 4.847656 29.109375 C 3.335938 27.59375 2.144531 25.832031 1.316406 23.867188 C 0.457031 21.832031 0.0195312 19.667969 0.0195312 17.441406 C 0.0195312 15.214844 0.457031 13.054688 1.316406 11.019531 C 2.144531 9.050781 3.335938 7.289062 4.847656 5.773438 C 6.359375 4.257812 8.121094 3.066406 10.085938 2.238281 C 12.117188 1.375 14.277344 0.9375 16.5 0.9375 C 18.722656 0.9375 20.882812 1.375 22.914062 2.238281 C 24.878906 3.066406 26.640625 4.257812 28.152344 5.773438 C 29.664062 7.289062 30.855469 9.050781 31.683594 11.019531 C 32.542969 13.054688 32.980469 15.214844 32.980469 17.441406 C 32.980469 19.667969 32.542969 21.832031 31.683594 23.867188 C 30.855469 25.832031 29.664062 27.59375 28.152344 29.109375 C 26.640625 30.625 24.878906 31.816406 22.914062 32.648438 C 20.882812 33.507812 18.722656 33.945312 16.5 33.945312 " fill-opacity="1" fill-rule="nonzero"/></g><path fill="#00bf63" d="M 16.917969 7.148438 L 16.082031 7.148438 C 16.015625 7.148438 15.960938 7.09375 15.960938 7.027344 L 15.960938 4.464844 C 15.960938 4.398438 16.015625 4.34375 16.082031 4.34375 L 16.917969 4.34375 C 16.984375 4.34375 17.039062 4.398438 17.039062 4.464844 L 17.039062 7.027344 C 17.039062 7.09375 16.984375 7.148438 16.917969 7.148438 " fill-opacity="1" fill-rule="nonzero"/><path fill="#00bf63" d="M 16.917969 30.539062 L 16.082031 30.539062 C 16.015625 30.539062 15.960938 30.484375 15.960938 30.417969 L 15.960938 27.855469 C 15.960938 27.789062 16.015625 27.734375 16.082031 27.734375 L 16.917969 27.734375 C 16.984375 27.734375 17.039062 27.789062 17.039062 27.855469 L 17.039062 30.417969 C 17.039062 30.484375 16.984375 30.539062 16.917969 30.539062 " fill-opacity="1" fill-rule="nonzero"/><path fill="#00bf63" d="M 24.0625 10.457031 L 23.472656 9.871094 C 23.425781 9.820312 23.425781 9.742188 23.472656 9.695312 L 25.28125 7.886719 C 25.328125 7.835938 25.40625 7.835938 25.453125 7.886719 L 26.042969 8.472656 C 26.089844 8.523438 26.089844 8.601562 26.042969 8.648438 L 24.234375 10.457031 C 24.1875 10.507812 24.109375 10.507812 24.0625 10.457031 " fill-opacity="1" fill-rule="nonzero"/><path fill="#00bf63" d="M 7.546875 26.996094 L 6.957031 26.410156 C 6.910156 26.359375 6.910156 26.285156 6.957031 26.234375 L 8.765625 24.425781 C 8.8125 24.378906 8.890625 24.378906 8.9375 24.425781 L 9.527344 25.011719 C 9.574219 25.0625 9.574219 25.140625 9.527344 25.1875 L 7.71875 26.996094 C 7.671875 27.046875 7.59375 27.046875 7.546875 26.996094 " fill-opacity="1" fill-rule="nonzero"/><path fill="#00bf63" d="M 26.777344 17.859375 L 26.777344 17.023438 C 26.777344 16.957031 26.832031 16.902344 26.898438 16.902344 L 29.457031 16.902344 C 29.523438 16.902344 29.578125 16.957031 29.578125 17.023438 L 29.578125 17.859375 C 29.578125 17.925781 29.523438 17.980469 29.457031 17.980469 L 26.898438 17.980469 C 26.832031 17.980469 26.777344 17.925781 26.777344 17.859375 " fill-opacity="1" fill-rule="nonzero"/><path fill="#00bf63" d="M 3.421875 17.859375 L 3.421875 17.023438 C 3.421875 16.957031 3.476562 16.902344 3.542969 16.902344 L 6.101562 16.902344 C 6.167969 16.902344 6.222656 16.957031 6.222656 17.023438 L 6.222656 17.859375 C 6.222656 17.925781 6.167969 17.980469 6.101562 17.980469 L 3.542969 17.980469 C 3.476562 17.980469 3.421875 17.925781 3.421875 17.859375 " fill-opacity="1" fill-rule="nonzero"/><path fill="#00bf63" d="M 23.472656 25.011719 L 24.0625 24.425781 C 24.109375 24.378906 24.1875 24.378906 24.234375 24.425781 L 26.042969 26.234375 C 26.089844 26.285156 26.089844 26.359375 26.042969 26.410156 L 25.453125 26.996094 C 25.40625 27.046875 25.328125 27.046875 25.28125 26.996094 L 23.472656 25.1875 C 23.425781 25.140625 23.425781 25.0625 23.472656 25.011719 " fill-opacity="1" fill-rule="nonzero"/><path fill="#00bf63" d="M 6.957031 8.472656 L 7.546875 7.886719 C 7.59375 7.835938 7.671875 7.835938 7.71875 7.886719 L 9.527344 9.695312 C 9.574219 9.742188 9.574219 9.820312 9.527344 9.871094 L 8.9375 10.457031 C 8.890625 10.507812 8.8125 10.507812 8.765625 10.457031 L 6.957031 8.648438 C 6.910156 8.601562 6.910156 8.523438 6.957031 8.472656 " fill-opacity="1" fill-rule="nonzero"/><path fill="#00bf63" d="M 22.367188 21.9375 L 17.890625 17.457031 C 17.890625 17.449219 17.894531 17.445312 17.894531 17.441406 C 17.894531 17.128906 17.789062 16.84375 17.617188 16.609375 L 17.617188 10.292969 C 17.617188 9.675781 17.113281 9.171875 16.5 9.171875 C 15.886719 9.171875 15.382812 9.675781 15.382812 10.292969 L 15.382812 16.609375 C 15.210938 16.84375 15.105469 17.128906 15.105469 17.441406 C 15.105469 18.042969 15.488281 18.558594 16.027344 18.753906 L 20.789062 23.519531 C 21.222656 23.957031 21.933594 23.957031 22.367188 23.519531 C 22.804688 23.085938 22.804688 22.375 22.367188 21.9375 " fill-opacity="1" fill-rule="nonzero"/></svg>