<svg xmlns="http://www.w3.org/2000/svg" xmlns:xlink="http://www.w3.org/1999/xlink" width="45" zoomAndPan="magnify" viewBox="0 0 33.75 33.749999" height="45" preserveAspectRatio="xMidYMid meet" version="1.0"><defs><clipPath id="66628f792d"><path d="M 0 0 L 33.5 0 L 33.5 33.5 L 0 33.5 Z M 0 0 " clip-rule="nonzero"/></clipPath><clipPath id="0102bd5cc1"><path d="M 0 2 L 33 2 L 33 31.773438 L 0 31.773438 Z M 0 2 " clip-rule="nonzero"/></clipPath></defs><g clip-path="url(#66628f792d)"><path fill="#ffffff" d="M 0 0 L 33.75 0 L 33.75 33.75 L 0 33.75 Z M 0 0 " fill-opacity="1" fill-rule="nonzero"/><path fill="#ffffff" d="M 0 0 L 33.75 0 L 33.75 33.75 L 0 33.75 Z M 0 0 " fill-opacity="1" fill-rule="nonzero"/></g><g clip-path="url(#0102bd5cc1)"><path fill="#00bf63" d="M 30.199219 22.386719 L 30.179688 22.410156 C 29.746094 22.914062 28.984375 22.976562 28.476562 22.550781 L 28.195312 22.3125 C 28.164062 22.28125 28.128906 22.25 28.089844 22.21875 L 26.179688 20.609375 C 25.738281 20.175781 25.703125 19.464844 26.113281 18.984375 L 26.132812 18.960938 C 26.371094 18.679688 26.710938 18.535156 27.054688 18.535156 C 27.332031 18.535156 27.609375 18.628906 27.835938 18.820312 L 30.058594 20.691406 C 30.566406 21.121094 30.628906 21.878906 30.199219 22.386719 Z M 27.558594 24.695312 L 27.539062 24.71875 C 27.109375 25.222656 26.347656 25.285156 25.84375 24.863281 C 25.808594 24.828125 25.773438 24.796875 25.738281 24.769531 L 23.824219 23.15625 C 23.386719 22.71875 23.351562 22.011719 23.757812 21.535156 L 23.78125 21.507812 C 23.988281 21.265625 24.28125 21.117188 24.601562 21.089844 C 24.921875 21.0625 25.234375 21.160156 25.476562 21.367188 C 25.511719 21.398438 25.546875 21.429688 25.582031 21.460938 L 27.496094 23.070312 C 27.695312 23.269531 27.820312 23.53125 27.84375 23.820312 C 27.871094 24.136719 27.769531 24.449219 27.558594 24.695312 Z M 25.210938 27.242188 L 25.1875 27.269531 C 24.757812 27.773438 23.992188 27.835938 23.484375 27.410156 L 23.125 27.105469 C 23.089844 27.070312 23.054688 27.039062 23.019531 27.007812 L 21.472656 25.707031 C 21.269531 25.507812 21.148438 25.246094 21.125 24.960938 C 21.097656 24.640625 21.199219 24.332031 21.40625 24.085938 L 21.429688 24.058594 C 21.859375 23.558594 22.617188 23.492188 23.125 23.917969 C 23.160156 23.949219 23.195312 23.980469 23.230469 24.011719 L 25.144531 25.621094 C 25.34375 25.824219 25.46875 26.082031 25.492188 26.367188 C 25.519531 26.6875 25.417969 27 25.210938 27.242188 Z M 22.488281 29.484375 L 22.464844 29.507812 C 22.257812 29.753906 21.964844 29.902344 21.644531 29.929688 C 21.320312 29.953125 21.011719 29.855469 20.765625 29.648438 L 19.195312 28.328125 C 18.6875 27.898438 18.625 27.140625 19.054688 26.636719 L 19.078125 26.609375 C 19.285156 26.367188 19.578125 26.214844 19.898438 26.191406 C 20.21875 26.164062 20.527344 26.261719 20.773438 26.46875 C 20.808594 26.5 20.839844 26.53125 20.878906 26.558594 L 22.421875 27.859375 C 22.625 28.0625 22.746094 28.324219 22.773438 28.609375 C 22.796875 28.929688 22.699219 29.238281 22.488281 29.484375 Z M 17.828125 30.339844 C 17.335938 30.851562 16.507812 30.875 15.984375 30.398438 L 15.957031 30.375 C 15.429688 29.890625 15.390625 29.066406 15.871094 28.535156 L 17.484375 26.761719 C 17.675781 26.550781 17.65625 26.222656 17.445312 26.035156 C 17.234375 25.84375 16.90625 25.859375 16.714844 26.070312 L 14.414062 28.605469 C 13.949219 29.121094 13.144531 29.164062 12.625 28.703125 L 12.597656 28.679688 C 12.34375 28.449219 12.191406 28.136719 12.175781 27.796875 C 12.160156 27.457031 12.28125 27.128906 12.511719 26.878906 L 14.789062 24.441406 C 14.980469 24.234375 14.96875 23.910156 14.761719 23.714844 C 14.554688 23.523438 14.226562 23.53125 14.03125 23.738281 L 11.621094 26.285156 C 11.03125 26.910156 10.066406 26.953125 9.421875 26.382812 L 9.390625 26.355469 C 9.066406 26.070312 8.878906 25.675781 8.859375 25.25 C 8.84375 24.820312 8.996094 24.414062 9.292969 24.101562 L 11.292969 22.015625 C 11.488281 21.8125 11.480469 21.484375 11.273438 21.289062 C 11.066406 21.09375 10.738281 21.101562 10.542969 21.308594 L 8.101562 23.855469 C 7.488281 24.496094 6.457031 24.53125 5.804688 23.9375 L 5.769531 23.910156 C 5.445312 23.613281 5.253906 23.210938 5.238281 22.769531 C 5.21875 22.332031 5.375 21.914062 5.671875 21.59375 L 6.609375 20.589844 C 6.613281 20.585938 6.617188 20.582031 6.621094 20.578125 L 14.636719 11.988281 L 16.230469 13.242188 C 17.777344 14.460938 19.828125 14.84375 21.714844 14.261719 L 21.828125 14.226562 C 22.441406 14.039062 22.894531 13.554688 23.035156 12.929688 C 23.179688 12.304688 22.980469 11.671875 22.503906 11.238281 L 17.65625 6.808594 L 18.761719 5.765625 C 21.8125 2.902344 26.671875 3 29.601562 5.984375 L 29.707031 6.089844 C 32.230469 8.664062 32.609375 12.699219 30.621094 15.675781 L 28.742188 18.234375 L 28.503906 18.035156 C 27.5625 17.242188 26.144531 17.359375 25.34375 18.296875 L 25.320312 18.320312 C 24.933594 18.773438 24.746094 19.351562 24.796875 19.945312 C 24.800781 19.984375 24.804688 20.023438 24.808594 20.0625 C 24.136719 20.03125 23.460938 20.296875 22.992188 20.84375 L 22.96875 20.871094 C 22.542969 21.371094 22.375 22.007812 22.457031 22.613281 C 21.785156 22.578125 21.105469 22.847656 20.640625 23.394531 L 20.617188 23.421875 C 20.230469 23.875 20.042969 24.453125 20.09375 25.042969 C 20.09375 25.082031 20.101562 25.121094 20.105469 25.160156 C 20.007812 25.15625 19.910156 25.15625 19.8125 25.164062 C 19.214844 25.214844 18.671875 25.492188 18.285156 25.945312 L 18.265625 25.972656 C 17.464844 26.910156 17.582031 28.316406 18.523438 29.109375 L 18.792969 29.335938 Z M 3.128906 15.671875 C 1.140625 12.683594 1.523438 8.65625 4.042969 6.089844 L 4.148438 5.984375 C 7.078125 3 11.9375 2.902344 14.992188 5.773438 L 21.804688 11.996094 C 22.003906 12.175781 22.085938 12.441406 22.027344 12.703125 C 21.96875 12.964844 21.777344 13.167969 21.519531 13.246094 L 21.410156 13.28125 C 19.847656 13.761719 18.152344 13.445312 16.875 12.4375 L 14.90625 10.886719 C 14.695312 10.71875 14.386719 10.742188 14.203125 10.9375 L 6.257812 19.453125 Z M 30.730469 19.910156 L 29.535156 18.902344 L 31.46875 16.261719 C 33.738281 12.871094 33.308594 8.289062 30.449219 5.371094 L 30.34375 5.265625 C 27.023438 1.882812 21.507812 1.769531 18.050781 5.019531 L 16.890625 6.109375 L 15.699219 5.019531 C 12.242188 1.769531 6.726562 1.878906 3.40625 5.265625 L 3.300781 5.371094 C 0.441406 8.289062 0.0117188 12.871094 2.28125 16.261719 C 2.289062 16.277344 2.300781 16.289062 2.3125 16.304688 L 5.546875 20.214844 L 4.914062 20.894531 C 4.425781 21.417969 4.171875 22.101562 4.203125 22.816406 C 4.234375 23.527344 4.542969 24.1875 5.074219 24.667969 L 5.105469 24.699219 C 5.859375 25.378906 6.917969 25.550781 7.824219 25.230469 C 7.824219 25.25 7.824219 25.269531 7.828125 25.292969 C 7.855469 26 8.167969 26.652344 8.703125 27.125 L 8.734375 27.152344 C 9.417969 27.757812 10.320312 27.945312 11.140625 27.726562 C 11.140625 27.765625 11.140625 27.804688 11.140625 27.84375 C 11.171875 28.464844 11.445312 29.03125 11.910156 29.445312 L 11.9375 29.46875 C 12.667969 30.121094 13.707031 30.21875 14.53125 29.792969 C 14.617188 30.292969 14.859375 30.765625 15.257812 31.132812 L 15.285156 31.15625 C 15.730469 31.5625 16.304688 31.765625 16.875 31.765625 C 17.496094 31.765625 18.117188 31.527344 18.574219 31.050781 L 19.585938 30.003906 L 20.097656 30.433594 C 20.515625 30.789062 21.03125 30.960938 21.542969 30.960938 C 22.179688 30.960938 22.8125 30.695312 23.257812 30.175781 L 23.277344 30.148438 C 23.632812 29.730469 23.820312 29.214844 23.808594 28.675781 C 23.960938 28.703125 24.113281 28.71875 24.265625 28.71875 C 24.902344 28.71875 25.535156 28.453125 25.976562 27.933594 L 26 27.90625 C 26.386719 27.453125 26.574219 26.878906 26.523438 26.285156 C 26.519531 26.246094 26.515625 26.207031 26.511719 26.167969 C 26.546875 26.167969 26.582031 26.171875 26.617188 26.171875 C 27.253906 26.171875 27.886719 25.902344 28.328125 25.382812 L 28.351562 25.355469 C 28.71875 24.929688 28.902344 24.390625 28.882812 23.828125 C 29.003906 23.851562 29.128906 23.859375 29.253906 23.859375 C 29.890625 23.859375 30.523438 23.59375 30.96875 23.074219 L 30.988281 23.046875 C 31.789062 22.109375 31.671875 20.703125 30.730469 19.910156 " fill-opacity="1" fill-rule="nonzero"/></g></svg>